STARTFONT 2.1
COMMENT
COMMENT Converted from OpenType font "c:\Users\martin\Dropbox\Code\EEZ\psu-firmware\tools\font_tools\fonts\ttf\webhostinghub-glyphs.ttf" by "otf2bdf.exe 3.0".
COMMENT
FONT -FreeType-WebHostingHub Glyphs-Medium-R-Normal--33-240-100-100-P-318-ISO10646-1
SIZE 24 100 100
FONTBOUNDINGBOX 34 35 0 -1
STARTPROPERTIES 19
FOUNDRY "FreeType"
FAMILY_NAME "WebHostingHub Glyphs"
WEIGHT_NAME "Medium"
SLANT "R"
SETWIDTH_NAME "Normal"
ADD_STYLE_NAME ""
PIXEL_SIZE 33
POINT_SIZE 240
RESOLUTION_X 100
RESOLUTION_Y 100
SPACING "P"
AVERAGE_WIDTH 318
CHARSET_REGISTRY "ISO10646"
CHARSET_ENCODING "1"
FONT_ASCENT 35
FONT_DESCENT 0
COPYRIGHT "WebHostingHub Glyphs - author WebHostingHub.com - http://webhostinghub.com/glyphs/"
_OTF_FONTFILE "c:\Users\martin\Dropbox\Code\EEZ\psu-firmware\tools\font_tools\fonts\ttf\webhostinghub-glyphs.ttf"
_OTF_PSNAME "WebHostingHub-Glyphs"
ENDPROPERTIES
CHARS 1508
STARTCHAR 0024
ENCODING 36
SWIDTH 990 0
DWIDTH 33 0
BBX 25 33 4 0
BITMAP
001C0000
001C0000
007F0000
07FFE000
0FFFF800
3FFFFE00
7FC1FE00
7E003F00
F8000F80
F0000780
F0000780
F8000780
7C000000
7E000000
3FF80000
1FFFE000
0FFFF800
03FFFC00
000FFE00
00003F00
00001F00
70000F80
F0000780
F0000780
F8000F80
7E003F00
7FC1FE00
3FFFFE00
0FFFF800
07FFF000
007F0000
001C0000
001C0000
ENDCHAR
STARTCHAR 0025
ENCODING 37
SWIDTH 990 0
DWIDTH 33 0
BBX 33 33 0 0
BITMAP
0F8003F800
3FC007F800
7FE00FF000
7FF01FF000
F9F01FE000
F0F03FE000
F0F03FC000
F8F07FC000
FFF07F8000
7FE0FF8000
3FE0FF0000
1F81FE0000
0003FE0000
0003FC0000
0007FC0000
0007F80000
000FF80000
000FF00000
001FF00000
001FE00000
003FE00000
003FC0FC00
007F83FE00
00FF83FF00
00FF07FF80
01FF078F80
01FE078780
03FE078780
03FC07CF80
07FC07FF00
07F803FF00
0FF001FE00
0FE000F800
ENDCHAR
STARTCHAR 002A
ENCODING 42
SWIDTH 990 0
DWIDTH 33 0
BBX 33 33 0 -1
BITMAP
001FFC0000
001FFE0000
001FFE0000
001FFE0000
001FFE0000
001FFC0000
0C1FFC0C00
1F1FFC3E00
1FCFFCFE00
3FFFFFFE00
3FFFFFFF00
3FFFFFFF00
7FFFFFFF00
7FFFFFFF80
7FFFFFFF80
FFFFFFFF80
FFFFFFFF80
7FFFFFFF00
01FFFFC000
007FFF0000
00FFFF8000
01FFFFC000
03FFFFE000
07FFFFF000
0FFFFFF800
1FFF7FFC00
1FFF3FFC00
0FFE3FFC00
07FE1FF000
03FC1FE000
00FC0FC000
00780F8000
0038060000
ENDCHAR
STARTCHAR 002B
ENCODING 43
SWIDTH 990 0
DWIDTH 33 0
BBX 33 33 0 0
BITMAP
0007F00000
000FF80000
000FF80000
000FF80000
000FF80000
000FF80000
000FF80000
000FF80000
000FF80000
000FF80000
000FF80000
000FF80000
7FFFFFFF00
FFFFFFFF80
FFFFFFFF80
FFFFFFFF80
FFFFFFFF80
FFFFFFFF80
FFFFFFFF80
FFFFFFFF80
7FFFFFFF00
000FF80000
000FF80000
000FF80000
000FF80000
000FF80000
000FF80000
000FF80000
000FF80000
000FF80000
000FF80000
000FF80000
0007F00000
ENDCHAR
STARTCHAR 0030
ENCODING 48
SWIDTH 990 0
DWIDTH 33 0
BBX 25 33 4 0
BITMAP
03FFE000
0FFFF800
3FFFFE00
3FFFFE00
7E003F00
7E000F00
FF000F80
FF000780
FF800780
F7C00780
F3E00780
F3E00780
F1F00780
F0F80780
F07C0780
F07C0780
F03E0780
F01F0780
F01F0780
F00F8780
F007C780
F003E780
F003E780
F001F780
F000FF80
F0007F80
F8007F80
78003F00
7E003F00
3FFFFE00
3FFFFE00
0FFFF800
03FFE000
ENDCHAR
STARTCHAR 0031
ENCODING 49
SWIDTH 750 0
DWIDTH 25 0
BBX 17 33 4 0
BITMAP
780000
FE0000
FF0000
7F8000
0F8000
07C000
03C000
03C000
03C000
03C000
03C000
03C000
03C000
03C000
03C000
03C000
03C000
03C000
03C000
03C000
03C000
03C000
03C000
03C000
03C000
03C000
03C000
03C000
03C000
7FFF00
FFFF80
FFFF80
7FFF00
ENDCHAR
STARTCHAR 0032
ENCODING 50
SWIDTH 990 0
DWIDTH 33 0
BBX 25 33 4 0
BITMAP
03FFE000
0FFFF800
3FFFFE00
3FFFFE00
7E003F00
78000F00
F8000F80
F0000780
F0000780
70000780
00000780
00000780
00000780
00000780
00000F80
00001F00
00007F00
0FFFFE00
1FFFFC00
3FFFF800
7FFFC000
7C000000
F8000000
F0000000
F0000000
F0000000
F0000000
F0000000
F0000000
FFFFFF00
FFFFFF80
FFFFFF80
7FFFFF00
ENDCHAR
STARTCHAR 0033
ENCODING 51
SWIDTH 990 0
DWIDTH 33 0
BBX 25 33 4 0
BITMAP
03FFE000
0FFFF800
3FFFFE00
3FFFFE00
7E003F00
78000F00
F8000F80
F0000780
F0000780
70000780
00000780
00000780
00000F80
00001F00
0003FF00
0007FE00
000FFC00
0007FE00
0003FF00
00001F00
00000F80
00000780
00000780
70000780
F0000780
F0000780
F8000F80
78000F00
7E003F00
3FFFFE00
3FFFFE00
0FFFF800
03FFE000
ENDCHAR
STARTCHAR 0034
ENCODING 52
SWIDTH 990 0
DWIDTH 33 0
BBX 25 33 4 0
BITMAP
60000700
F0000780
F0000780
F0000780
F0000780
F0000780
F0000780
F0000780
F0000780
F0000780
F0000780
F0000780
F0000780
F0000780
F8000F80
7C001F80
7F007F80
3FFFFF80
1FFFFF80
0FFFFF80
01FFC780
00000780
00000780
00000780
00000780
00000780
00000780
00000780
00000780
00000780
00000780
00000780
00000700
ENDCHAR
STARTCHAR 0035
ENCODING 53
SWIDTH 990 0
DWIDTH 33 0
BBX 25 33 4 0
BITMAP
7FFFFF00
FFFFFF80
FFFFFF80
FFFFFF00
F0000000
F0000000
F0000000
F0000000
F0000000
F0000000
F0000000
F0000000
FFFFC000
FFFFF800
7FFFFC00
3FFFFE00
0FFFFF00
00001F00
00000F80
00000780
00000780
00000780
00000780
70000780
F0000780
F0000780
F8000F80
78000F00
7E003F00
3FFFFE00
3FFFFE00
0FFFF800
03FFE000
ENDCHAR
STARTCHAR 0036
ENCODING 54
SWIDTH 990 0
DWIDTH 33 0
BBX 25 33 4 0
BITMAP
03FFE000
0FFFF800
3FFFFE00
3FFFFE00
7E003F00
78000F00
F8000F80
F0000780
F0000780
F0000700
F0000000
F0000000
F1FFC000
FFFFF800
FFFFFC00
FFFFFE00
FF007F00
FC001F00
F8000F80
F0000780
F0000780
F0000780
F0000780
F0000780
F0000780
F0000780
F8000F80
78000F00
7E003F00
3FFFFE00
3FFFFE00
0FFFF800
03FFE000
ENDCHAR
STARTCHAR 0037
ENCODING 55
SWIDTH 990 0
DWIDTH 33 0
BBX 25 33 4 0
BITMAP
7FFFE000
FFFFF800
FFFFFE00
7FFFFE00
00003F00
00000F00
00000F80
00000780
00000780
00000780
00000F80
00000F00
00000F00
00001F00
00001E00
00003E00
00003C00
00007C00
00007800
0000F800
0000F000
0001E000
0001E000
0003C000
0003C000
00078000
00078000
000F0000
000F0000
001E0000
001E0000
003C0000
001C0000
ENDCHAR
STARTCHAR 0038
ENCODING 56
SWIDTH 990 0
DWIDTH 33 0
BBX 25 33 4 0
BITMAP
03FFE000
0FFFF800
3FFFFE00
3FFFFE00
7E003F00
78000F00
F8000F80
F0000780
F0000780
F0000780
F0000780
F0000780
F8000F80
7C001F00
7FFFFF00
3FFFFE00
1FFFFC00
3FFFFE00
7FFFFF00
7C001F00
F8000F80
F0000780
F0000780
F0000780
F0000780
F0000780
F8000F80
78000F00
7E003F00
3FFFFE00
3FFFFE00
0FFFF800
03FFE000
ENDCHAR
STARTCHAR 0039
ENCODING 57
SWIDTH 990 0
DWIDTH 33 0
BBX 25 33 4 0
BITMAP
03FFE000
0FFFF800
3FFFFE00
3FFFFE00
7E003F00
78000F00
F8000F80
F0000780
F0000780
F0000780
F0000780
F0000780
F0000780
F0000780
F8000F80
7C001F80
7F007F80
3FFFFF80
1FFFFF80
0FFFFF80
01FFC780
00000780
00000780
70000780
F0000780
F0000780
F8000F80
78000F00
7E003F00
3FFFFE00
3FFFFE00
0FFFF800
03FFE000
ENDCHAR
STARTCHAR 0040
ENCODING 64
SWIDTH 990 0
DWIDTH 33 0
BBX 33 33 0 0
BITMAP
0007F00000
003FFE0000
00FFFF8000
03FFFFE000
07FC1FF000
0FE003F800
1F8000FC00
1F00007C00
3E01C03E00
3C0FF81E00
7C1FFF1F00
783FFF8F00
F87F7F8F00
F07C1F8F80
F0F80F8780
F0F00F8780
F0F0078780
F0F00F8780
F0F80F8780
F07C1F8F80
F87F7F8F80
783FFFFF00
7C1FFFFF00
3C0FFBFF00
3E03C1FC00
1F00000000
1F80000000
0FE0000000
07FC000000
03FFFF0000
00FFFF8000
003FFF8000
0007FF0000
ENDCHAR
STARTCHAR 0041
ENCODING 65
SWIDTH 990 0
DWIDTH 33 0
BBX 25 33 4 0
BITMAP
03FFE000
0FFFF800
3FFFFE00
3FFFFE00
7E003F00
78000F00
F8000F80
F0000780
F0000780
F0000780
F0000780
F0000780
F0000780
F0000780
F0000780
F0000780
F8000F80
FFFFFF80
FFFFFF80
FFFFFF80
FFFFFF80
F0000780
F0000780
F0000780
F0000780
F0000780
F0000780
F0000780
F0000780
F0000780
F0000780
F0000780
70000700
ENDCHAR
STARTCHAR 0042
ENCODING 66
SWIDTH 990 0
DWIDTH 33 0
BBX 25 33 4 0
BITMAP
7FFFE000
FFFFF800
FFFFFE00
FFFFFE00
F8003F00
F0000F00
F0000F80
F0000780
F0000780
F0000780
F0000780
F0000780
F0000F80
F0001F00
FFFFFF00
FFFFFE00
FFFFFC00
FFFFFE00
FFFFFF00
F0001F00
F0000F80
F0000780
F0000780
F0000780
F0000780
F0000780
F0000F80
F0000F00
F0003F00
FFFFFE00
FFFFFE00
FFFFF800
7FFFE000
ENDCHAR
STARTCHAR 0043
ENCODING 67
SWIDTH 990 0
DWIDTH 33 0
BBX 25 33 4 0
BITMAP
03FFE000
0FFFF800
3FFFFE00
3FFFFE00
7E003F00
78000F00
F8000F80
F0000780
F0000780
F0000700
F0000000
F0000000
F0000000
F0000000
F0000000
F0000000
F0000000
F0000000
F0000000
F0000000
F0000000
F0000000
F0000000
F0000700
F0000780
F0000780
F8000F80
78000F00
7E003F00
3FFFFE00
3FFFFE00
0FFFF800
03FFE000
ENDCHAR
STARTCHAR 0044
ENCODING 68
SWIDTH 990 0
DWIDTH 33 0
BBX 25 33 4 0
BITMAP
7FFFE000
FFFFF800
FFFFFE00
FFFFFE00
F8003F00
F0000F00
F0000F80
F0000780
F0000780
F0000780
F0000780
F0000780
F0000780
F0000780
F0000780
F0000780
F0000780
F0000780
F0000780
F0000780
F0000780
F0000780
F0000780
F0000780
F0000780
F0000780
F0000F80
F0000F00
F0003F00
FFFFFE00
FFFFFE00
FFFFF800
7FFFE000
ENDCHAR
STARTCHAR 0045
ENCODING 69
SWIDTH 990 0
DWIDTH 33 0
BBX 25 33 4 0
BITMAP
7FFFFF00
FFFFFF80
FFFFFF80
FFFFFF00
F8000000
F0000000
F0000000
F0000000
F0000000
F0000000
F0000000
F0000000
F0000000
F0000000
FFFFE000
FFFFF000
FFFFF800
FFFFF800
FFFFE000
F0000000
F0000000
F0000000
F0000000
F0000000
F0000000
F0000000
F0000000
F0000000
F0000000
FFFFFF00
FFFFFF80
FFFFFF80
7FFFFF00
ENDCHAR
STARTCHAR 0046
ENCODING 70
SWIDTH 990 0
DWIDTH 33 0
BBX 25 33 4 0
BITMAP
7FFFFF00
FFFFFF80
FFFFFF80
FFFFFF00
F8000000
F0000000
F0000000
F0000000
F0000000
F0000000
F0000000
F0000000
F0000000
F0000000
FFFFE000
FFFFF000
FFFFF800
FFFFF800
FFFFE000
F0000000
F0000000
F0000000
F0000000
F0000000
F0000000
F0000000
F0000000
F0000000
F0000000
F0000000
F0000000
F0000000
70000000
ENDCHAR
STARTCHAR 0047
ENCODING 71
SWIDTH 990 0
DWIDTH 33 0
BBX 25 33 4 0
BITMAP
03FFE000
0FFFF800
3FFFFE00
3FFFFE00
7E003F00
78000F00
F8000F80
F0000780
F0000780
F0000700
F0000000
F0000000
F0000000
F0000000
F0000000
F0000000
F001FE00
F007FF80
F00FFF80
F007FF80
F003FF80
F0000780
F0000780
F0000780
F0000780
F0000780
F8000F80
78000F00
7E003F00
3FFFFE00
3FFFFE00
0FFFF800
03FFE000
ENDCHAR
STARTCHAR 0048
ENCODING 72
SWIDTH 990 0
DWIDTH 33 0
BBX 25 33 4 0
BITMAP
60000300
F0000780
F0000780
F0000780
F0000780
F0000780
F0000780
F0000780
F0000780
F0000780
F0000780
F0000780
F0000780
F0000780
FFFFFF80
FFFFFF80
FFFFFF80
FFFFFF80
FFFFFF80
F0000780
F0000780
F0000780
F0000780
F0000780
F0000780
F0000780
F0000780
F0000780
F0000780
F0000780
F0000780
F0000780
70000300
ENDCHAR
STARTCHAR 0049
ENCODING 73
SWIDTH 630 0
DWIDTH 21 0
BBX 12 33 4 0
BITMAP
7FF0
FFF0
FFF0
7FF0
0F00
0F00
0F00
0F00
0F00
0F00
0F00
0F00
0F00
0F00
0F00
0F00
0F00
0F00
0F00
0F00
0F00
0F00
0F00
0F00
0F00
0F00
0F00
0F00
0F00
7FF0
FFF0
FFF0
7FF0
ENDCHAR
STARTCHAR 004A
ENCODING 74
SWIDTH 990 0
DWIDTH 33 0
BBX 25 33 4 0
BITMAP
00000300
00000780
00000780
00000780
00000780
00000780
00000780
00000780
00000780
00000780
00000780
00000780
00000780
00000780
00000780
00000780
00000780
00000780
00000780
00000780
00000780
00000780
00000780
70000780
F0000780
F0000780
F8000F80
78000F00
7E003F00
3FFFFE00
3FFFFE00
0FFFF800
03FFE000
ENDCHAR
STARTCHAR 004B
ENCODING 75
SWIDTH 990 0
DWIDTH 33 0
BBX 25 33 4 0
BITMAP
70000300
F0000780
F0000780
F0000780
F0000780
F0000780
F0000780
F0000780
F0000780
F0000780
F0000780
F0000780
F0000F80
F0001F00
FFFFFF00
FFFFFE00
FFFFFC00
FFFFFE00
FFFFFF00
F0001F00
F0000F80
F0000780
F0000780
F0000780
F0000780
F0000780
F0000780
F0000780
F0000780
F0000780
F0000780
F0000780
70000700
ENDCHAR
STARTCHAR 004C
ENCODING 76
SWIDTH 990 0
DWIDTH 33 0
BBX 25 33 4 0
BITMAP
70000000
F0000000
F0000000
F0000000
F0000000
F0000000
F0000000
F0000000
F0000000
F0000000
F0000000
F0000000
F0000000
F0000000
F0000000
F0000000
F0000000
F0000000
F0000000
F0000000
F0000000
F0000000
F0000000
F0000000
F0000000
F0000000
F0000000
F0000000
F0000000
FFFFFF00
FFFFFF80
FFFFFF80
7FFFFF00
ENDCHAR
STARTCHAR 004D
ENCODING 77
SWIDTH 990 0
DWIDTH 33 0
BBX 25 33 4 0
BITMAP
70000700
F0000780
F8000F80
FC001F80
FC001F80
FE003F80
FF007F80
FF807F80
FF80FF80
F7C1F780
F3E3E780
F3F3E780
F1F7C780
F0FF8780
F07F0780
F07F0780
F03E0780
F01C0780
F0080780
F0000780
F0000780
F0000780
F0000780
F0000780
F0000780
F0000780
F0000780
F0000780
F0000780
F0000780
F0000780
F0000780
70000700
ENDCHAR
STARTCHAR 004E
ENCODING 78
SWIDTH 990 0
DWIDTH 33 0
BBX 25 33 4 0
BITMAP
60000300
F0000780
F8000780
FC000780
FC000780
FE000780
FF000780
FF800780
FF800780
F7C00780
F7E00780
F3F00780
F1F00780
F0F80780
F0FC0780
F07C0780
F03E0780
F03F0780
F01F8780
F00F8780
F007C780
F007E780
F003F780
F001F780
F000FF80
F000FF80
F0007F80
F0003F80
F0001F80
F0001F80
F0000F80
F0000780
70000300
ENDCHAR
STARTCHAR 004F
ENCODING 79
SWIDTH 990 0
DWIDTH 33 0
BBX 25 33 4 0
BITMAP
03FFE000
0FFFF800
3FFFFE00
3FFFFE00
7E003F00
78000F00
F8000F80
F0000780
F0000780
F0000780
F0000780
F0000780
F0000780
F0000780
F0000780
F0000780
F0000780
F0000780
F0000780
F0000780
F0000780
F0000780
F0000780
F0000780
F0000780
F0000780
F8000F80
78000F00
7E003F00
3FFFFE00
3FFFFE00
0FFFF800
03FFE000
ENDCHAR
STARTCHAR 0050
ENCODING 80
SWIDTH 990 0
DWIDTH 33 0
BBX 25 33 4 0
BITMAP
7FFFE000
FFFFF800
FFFFFE00
FFFFFE00
F0003F00
F0000F00
F0000F80
F0000780
F0000780
F0000780
F0000780
F0000780
F0000780
F0000780
F0000F80
F0001F00
F0007F00
FFFFFE00
FFFFFC00
FFFFF800
FFFFC000
F0000000
F0000000
F0000000
F0000000
F0000000
F0000000
F0000000
F0000000
F0000000
F0000000
F0000000
70000000
ENDCHAR
STARTCHAR 0051
ENCODING 81
SWIDTH 990 0
DWIDTH 33 0
BBX 25 33 4 0
BITMAP
03FFE000
0FFFF800
3FFFFE00
3FFFFE00
7E003F00
78000F00
F8000F80
F0000780
F0000780
F0000780
F0000780
F0000780
F0000780
F0000780
F0000780
F0000780
F0000780
F0000780
F0000780
F0000780
F0000780
F0070780
F00F8780
F007C780
F003E780
F001F780
F800FF80
78007F00
7E003F00
3FFFFF00
3FFFFF80
0FFFFF80
03FFE300
ENDCHAR
STARTCHAR 0052
ENCODING 82
SWIDTH 990 0
DWIDTH 33 0
BBX 25 33 4 0
BITMAP
7FFFE000
FFFFF800
FFFFFE00
FFFFFE00
F0003F00
F0000F00
F0000F80
F0000780
F0000780
F0000780
F0000780
F0000780
F0000780
F0000780
F0000F80
F0001F00
F0007F00
FFFFFE00
FFFFFC00
FFFFFE00
FFFFFF00
F0001F00
F0000F80
F0000780
F0000780
F0000780
F0000780
F0000780
F0000780
F0000780
F0000780
F0000780
70000700
ENDCHAR
STARTCHAR 0053
ENCODING 83
SWIDTH 990 0
DWIDTH 33 0
BBX 25 33 4 0
BITMAP
03FFE000
0FFFF800
3FFFFE00
3FFFFE00
7E003F00
78000F00
F8000F80
F0000780
F0000780
F0000700
F0000000
F0000000
F8000000
7C000000
7FFF8000
3FFFF800
1FFFFC00
0FFFFE00
00FFFF00
00001F00
00000F80
00000780
00000780
70000780
F0000780
F0000780
F8000F80
78000F00
7E003F00
3FFFFE00
3FFFFE00
0FFFF800
03FFE000
ENDCHAR
STARTCHAR 0054
ENCODING 84
SWIDTH 990 0
DWIDTH 33 0
BBX 25 33 4 0
BITMAP
7FFFFF00
FFFFFF80
FFFFFF80
7FFFFF00
003E0000
003E0000
003E0000
003E0000
003E0000
003E0000
003E0000
003E0000
003E0000
003E0000
003E0000
003E0000
003E0000
003E0000
003E0000
003E0000
003E0000
003E0000
003E0000
003E0000
003E0000
003E0000
003E0000
003E0000
003E0000
003E0000
003E0000
001C0000
001C0000
ENDCHAR
STARTCHAR 0055
ENCODING 85
SWIDTH 990 0
DWIDTH 33 0
BBX 25 33 4 0
BITMAP
70000300
F0000780
F0000780
F0000780
F0000780
F0000780
F0000780
F0000780
F0000780
F0000780
F0000780
F0000780
F0000780
F0000780
F0000780
F0000780
F0000780
F0000780
F0000780
F0000780
F0000780
F0000780
F0000780
F0000780
F0000780
F0000780
F8000F80
78000F00
7E003F00
3FFFFE00
3FFFFE00
0FFFF800
03FFE000
ENDCHAR
STARTCHAR 0056
ENCODING 86
SWIDTH 990 0
DWIDTH 33 0
BBX 25 33 4 0
BITMAP
70000300
F0000780
F0000780
F0000780
F0000780
F0000780
F0000780
F0000780
F0000780
F0000780
F0000780
F0000780
F0000780
F0000780
F0000780
F0000780
F0000780
F0000780
F0000780
F0000780
F8000F80
FC001F80
7E003F00
3F007E00
1F80FC00
0FC1F800
07E3F000
03F7E000
01FFC000
00FF8000
007F0000
003E0000
001C0000
ENDCHAR
STARTCHAR 0057
ENCODING 87
SWIDTH 990 0
DWIDTH 33 0
BBX 25 33 4 0
BITMAP
701C0300
F01C0780
F03E0780
F03E0780
F03E0780
F03E0780
F03E0780
F03E0780
F03E0780
F03E0780
F03E0780
F03E0780
F03E0780
F03E0780
F03E0780
F03E0780
F03E0780
F03E0780
F03E0780
F03E0780
F03E0780
F03E0780
F03E0780
F03E0780
F03E0780
F03E0780
F83E0F80
783E0F00
7E3E3F00
3FFFFE00
3FFFFE00
0FFFF800
03FFE000
ENDCHAR
STARTCHAR 0058
ENCODING 88
SWIDTH 990 0
DWIDTH 33 0
BBX 25 33 4 0
BITMAP
70000700
F0000780
F8000F80
7C001F00
7E001F00
3E003E00
1F007C00
1F80F800
0F80F800
07C1F000
03E3E000
03F3C000
01F7C000
00FF8000
007F0000
007F0000
003E0000
007F0000
007F0000
00FF8000
01F7C000
01E7E000
03E3E000
07C1F000
0F80F800
0F80FC00
1F007C00
3E003E00
7C001F00
7C001F00
F8000F80
F0000780
70000700
ENDCHAR
STARTCHAR 0059
ENCODING 89
SWIDTH 990 0
DWIDTH 33 0
BBX 25 33 4 0
BITMAP
60000700
F0000780
F0000780
F0000780
F0000780
F0000780
F0000780
F0000780
F0000780
F0000780
F0000780
F0000780
F0000780
F0000780
F8000F80
7C001F80
7F007F80
3FFFFF80
1FFFFF80
0FFFFF80
01FFC780
00000780
00000780
00000780
00000780
00000780
00000F80
00000F00
00003F00
07FFFE00
0FFFFE00
0FFFF800
07FFE000
ENDCHAR
STARTCHAR 005A
ENCODING 90
SWIDTH 990 0
DWIDTH 33 0
BBX 25 33 4 0
BITMAP
7FFFFF00
FFFFFF80
FFFFFF80
7FFFFF00
00001F00
00003E00
00007C00
00007800
0000F800
0001F000
0001E000
0003C000
0007C000
000F8000
000F0000
001F0000
003E0000
007C0000
00780000
00F80000
01F00000
01E00000
03C00000
07C00000
0F800000
0F000000
1F000000
3E000000
7C000000
7FFFFF00
FFFFFF80
FFFFFF80
7FFFFF00
ENDCHAR
STARTCHAR 0061
ENCODING 97
SWIDTH 990 0
DWIDTH 33 0
BBX 25 33 4 0
BITMAP
03FFE000
0FFFF800
3FFFFE00
3FFFFE00
7E003F00
78000F00
F8000F80
F0000780
F0000780
F0000780
F0000780
F0000780
F0000780
F0000780
F0000780
F0000780
F8000F80
FFFFFF80
FFFFFF80
FFFFFF80
FFFFFF80
F0000780
F0000780
F0000780
F0000780
F0000780
F0000780
F0000780
F0000780
F0000780
F0000780
F0000780
70000700
ENDCHAR
STARTCHAR 0062
ENCODING 98
SWIDTH 990 0
DWIDTH 33 0
BBX 25 33 4 0
BITMAP
7FFFE000
FFFFF800
FFFFFE00
FFFFFE00
F8003F00
F0000F00
F0000F80
F0000780
F0000780
F0000780
F0000780
F0000780
F0000F80
F0001F00
FFFFFF00
FFFFFE00
FFFFFC00
FFFFFE00
FFFFFF00
F0001F00
F0000F80
F0000780
F0000780
F0000780
F0000780
F0000780
F0000F80
F0000F00
F0003F00
FFFFFE00
FFFFFE00
FFFFF800
7FFFE000
ENDCHAR
STARTCHAR 0063
ENCODING 99
SWIDTH 990 0
DWIDTH 33 0
BBX 25 33 4 0
BITMAP
03FFE000
0FFFF800
3FFFFE00
3FFFFE00
7E003F00
78000F00
F8000F80
F0000780
F0000780
F0000700
F0000000
F0000000
F0000000
F0000000
F0000000
F0000000
F0000000
F0000000
F0000000
F0000000
F0000000
F0000000
F0000000
F0000700
F0000780
F0000780
F8000F80
78000F00
7E003F00
3FFFFE00
3FFFFE00
0FFFF800
03FFE000
ENDCHAR
STARTCHAR 0064
ENCODING 100
SWIDTH 990 0
DWIDTH 33 0
BBX 25 33 4 0
BITMAP
7FFFE000
FFFFF800
FFFFFE00
FFFFFE00
F8003F00
F0000F00
F0000F80
F0000780
F0000780
F0000780
F0000780
F0000780
F0000780
F0000780
F0000780
F0000780
F0000780
F0000780
F0000780
F0000780
F0000780
F0000780
F0000780
F0000780
F0000780
F0000780
F0000F80
F0000F00
F0003F00
FFFFFE00
FFFFFE00
FFFFF800
7FFFE000
ENDCHAR
STARTCHAR 0065
ENCODING 101
SWIDTH 990 0
DWIDTH 33 0
BBX 25 33 4 0
BITMAP
7FFFFF00
FFFFFF80
FFFFFF80
FFFFFF00
F8000000
F0000000
F0000000
F0000000
F0000000
F0000000
F0000000
F0000000
F0000000
F0000000
FFFFE000
FFFFF000
FFFFF800
FFFFF800
FFFFE000
F0000000
F0000000
F0000000
F0000000
F0000000
F0000000
F0000000
F0000000
F0000000
F0000000
FFFFFF00
FFFFFF80
FFFFFF80
7FFFFF00
ENDCHAR
STARTCHAR 0066
ENCODING 102
SWIDTH 990 0
DWIDTH 33 0
BBX 25 33 4 0
BITMAP
7FFFFF00
FFFFFF80
FFFFFF80
FFFFFF00
F8000000
F0000000
F0000000
F0000000
F0000000
F0000000
F0000000
F0000000
F0000000
F0000000
FFFFE000
FFFFF000
FFFFF800
FFFFF800
FFFFE000
F0000000
F0000000
F0000000
F0000000
F0000000
F0000000
F0000000
F0000000
F0000000
F0000000
F0000000
F0000000
F0000000
70000000
ENDCHAR
STARTCHAR 0067
ENCODING 103
SWIDTH 990 0
DWIDTH 33 0
BBX 25 33 4 0
BITMAP
03FFE000
0FFFF800
3FFFFE00
3FFFFE00
7E003F00
78000F00
F8000F80
F0000780
F0000780
F0000700
F0000000
F0000000
F0000000
F0000000
F0000000
F0000000
F001FE00
F007FF80
F00FFF80
F007FF80
F003FF80
F0000780
F0000780
F0000780
F0000780
F0000780
F8000F80
78000F00
7E003F00
3FFFFE00
3FFFFE00
0FFFF800
03FFE000
ENDCHAR
STARTCHAR 0068
ENCODING 104
SWIDTH 990 0
DWIDTH 33 0
BBX 25 33 4 0
BITMAP
60000300
F0000780
F0000780
F0000780
F0000780
F0000780
F0000780
F0000780
F0000780
F0000780
F0000780
F0000780
F0000780
F0000780
FFFFFF80
FFFFFF80
FFFFFF80
FFFFFF80
FFFFFF80
F0000780
F0000780
F0000780
F0000780
F0000780
F0000780
F0000780
F0000780
F0000780
F0000780
F0000780
F0000780
F0000780
70000300
ENDCHAR
STARTCHAR 0069
ENCODING 105
SWIDTH 630 0
DWIDTH 21 0
BBX 12 33 4 0
BITMAP
7FF0
FFF0
FFF0
7FF0
0F00
0F00
0F00
0F00
0F00
0F00
0F00
0F00
0F00
0F00
0F00
0F00
0F00
0F00
0F00
0F00
0F00
0F00
0F00
0F00
0F00
0F00
0F00
0F00
0F00
7FF0
FFF0
FFF0
7FF0
ENDCHAR
STARTCHAR 006A
ENCODING 106
SWIDTH 990 0
DWIDTH 33 0
BBX 25 33 4 0
BITMAP
00000300
00000780
00000780
00000780
00000780
00000780
00000780
00000780
00000780
00000780
00000780
00000780
00000780
00000780
00000780
00000780
00000780
00000780
00000780
00000780
00000780
00000780
00000780
70000780
F0000780
F0000780
F8000F80
78000F00
7E003F00
3FFFFE00
3FFFFE00
0FFFF800
03FFE000
ENDCHAR
STARTCHAR 006B
ENCODING 107
SWIDTH 990 0
DWIDTH 33 0
BBX 25 33 4 0
BITMAP
70000300
F0000780
F0000780
F0000780
F0000780
F0000780
F0000780
F0000780
F0000780
F0000780
F0000780
F0000780
F0000F80
F0001F00
FFFFFF00
FFFFFE00
FFFFFC00
FFFFFE00
FFFFFF00
F0001F00
F0000F80
F0000780
F0000780
F0000780
F0000780
F0000780
F0000780
F0000780
F0000780
F0000780
F0000780
F0000780
70000700
ENDCHAR
STARTCHAR 006C
ENCODING 108
SWIDTH 990 0
DWIDTH 33 0
BBX 25 33 4 0
BITMAP
70000000
F0000000
F0000000
F0000000
F0000000
F0000000
F0000000
F0000000
F0000000
F0000000
F0000000
F0000000
F0000000
F0000000
F0000000
F0000000
F0000000
F0000000
F0000000
F0000000
F0000000
F0000000
F0000000
F0000000
F0000000
F0000000
F0000000
F0000000
F0000000
FFFFFF00
FFFFFF80
FFFFFF80
7FFFFF00
ENDCHAR
STARTCHAR 006D
ENCODING 109
SWIDTH 990 0
DWIDTH 33 0
BBX 25 33 4 0
BITMAP
70000700
F0000780
F8000F80
FC001F80
FC001F80
FE003F80
FF007F80
FF807F80
FF80FF80
F7C1F780
F3E3E780
F3F3E780
F1F7C780
F0FF8780
F07F0780
F07F0780
F03E0780
F01C0780
F0080780
F0000780
F0000780
F0000780
F0000780
F0000780
F0000780
F0000780
F0000780
F0000780
F0000780
F0000780
F0000780
F0000780
70000700
ENDCHAR
STARTCHAR 006E
ENCODING 110
SWIDTH 990 0
DWIDTH 33 0
BBX 25 33 4 0
BITMAP
60000300
F0000780
F8000780
FC000780
FC000780
FE000780
FF000780
FF800780
FF800780
F7C00780
F7E00780
F3F00780
F1F00780
F0F80780
F0FC0780
F07C0780
F03E0780
F03F0780
F01F8780
F00F8780
F007C780
F007E780
F003F780
F001F780
F000FF80
F000FF80
F0007F80
F0003F80
F0001F80
F0001F80
F0000F80
F0000780
70000300
ENDCHAR
STARTCHAR 006F
ENCODING 111
SWIDTH 990 0
DWIDTH 33 0
BBX 25 33 4 0
BITMAP
03FFE000
0FFFF800
3FFFFE00
3FFFFE00
7E003F00
78000F00
F8000F80
F0000780
F0000780
F0000780
F0000780
F0000780
F0000780
F0000780
F0000780
F0000780
F0000780
F0000780
F0000780
F0000780
F0000780
F0000780
F0000780
F0000780
F0000780
F0000780
F8000F80
78000F00
7E003F00
3FFFFE00
3FFFFE00
0FFFF800
03FFE000
ENDCHAR
STARTCHAR 0070
ENCODING 112
SWIDTH 990 0
DWIDTH 33 0
BBX 25 33 4 0
BITMAP
7FFFE000
FFFFF800
FFFFFE00
FFFFFE00
F0003F00
F0000F00
F0000F80
F0000780
F0000780
F0000780
F0000780
F0000780
F0000780
F0000780
F0000F80
F0001F00
F0007F00
FFFFFE00
FFFFFC00
FFFFF800
FFFFC000
F0000000
F0000000
F0000000
F0000000
F0000000
F0000000
F0000000
F0000000
F0000000
F0000000
F0000000
70000000
ENDCHAR
STARTCHAR 0071
ENCODING 113
SWIDTH 990 0
DWIDTH 33 0
BBX 25 33 4 0
BITMAP
03FFE000
0FFFF800
3FFFFE00
3FFFFE00
7E003F00
78000F00
F8000F80
F0000780
F0000780
F0000780
F0000780
F0000780
F0000780
F0000780
F0000780
F0000780
F0000780
F0000780
F0000780
F0000780
F0000780
F0070780
F00F8780
F007C780
F003E780
F001F780
F800FF80
78007F00
7E003F00
3FFFFF00
3FFFFF80
0FFFFF80
03FFE300
ENDCHAR
STARTCHAR 0072
ENCODING 114
SWIDTH 990 0
DWIDTH 33 0
BBX 25 33 4 0
BITMAP
7FFFE000
FFFFF800
FFFFFE00
FFFFFE00
F0003F00
F0000F00
F0000F80
F0000780
F0000780
F0000780
F0000780
F0000780
F0000780
F0000780
F0000F80
F0001F00
F0007F00
FFFFFE00
FFFFFC00
FFFFFE00
FFFFFF00
F0001F00
F0000F80
F0000780
F0000780
F0000780
F0000780
F0000780
F0000780
F0000780
F0000780
F0000780
70000700
ENDCHAR
STARTCHAR 0073
ENCODING 115
SWIDTH 990 0
DWIDTH 33 0
BBX 25 33 4 0
BITMAP
03FFE000
0FFFF800
3FFFFE00
3FFFFE00
7E003F00
78000F00
F8000F80
F0000780
F0000780
F0000700
F0000000
F0000000
F8000000
7C000000
7FFF8000
3FFFF800
1FFFFC00
0FFFFE00
00FFFF00
00001F00
00000F80
00000780
00000780
70000780
F0000780
F0000780
F8000F80
78000F00
7E003F00
3FFFFE00
3FFFFE00
0FFFF800
03FFE000
ENDCHAR
STARTCHAR 0074
ENCODING 116
SWIDTH 990 0
DWIDTH 33 0
BBX 25 33 4 0
BITMAP
7FFFFF00
FFFFFF80
FFFFFF80
7FFFFF00
003E0000
003E0000
003E0000
003E0000
003E0000
003E0000
003E0000
003E0000
003E0000
003E0000
003E0000
003E0000
003E0000
003E0000
003E0000
003E0000
003E0000
003E0000
003E0000
003E0000
003E0000
003E0000
003E0000
003E0000
003E0000
003E0000
003E0000
001C0000
001C0000
ENDCHAR
STARTCHAR 0075
ENCODING 117
SWIDTH 990 0
DWIDTH 33 0
BBX 25 33 4 0
BITMAP
70000300
F0000780
F0000780
F0000780
F0000780
F0000780
F0000780
F0000780
F0000780
F0000780
F0000780
F0000780
F0000780
F0000780
F0000780
F0000780
F0000780
F0000780
F0000780
F0000780
F0000780
F0000780
F0000780
F0000780
F0000780
F0000780
F8000F80
78000F00
7E003F00
3FFFFE00
3FFFFE00
0FFFF800
03FFE000
ENDCHAR
STARTCHAR 0076
ENCODING 118
SWIDTH 990 0
DWIDTH 33 0
BBX 25 33 4 0
BITMAP
70000300
F0000780
F0000780
F0000780
F0000780
F0000780
F0000780
F0000780
F0000780
F0000780
F0000780
F0000780
F0000780
F0000780
F0000780
F0000780
F0000780
F0000780
F0000780
F0000780
F8000F80
FC001F80
7E003F00
3F007E00
1F80FC00
0FC1F800
07E3F000
03F7E000
01FFC000
00FF8000
007F0000
003E0000
001C0000
ENDCHAR
STARTCHAR 0077
ENCODING 119
SWIDTH 990 0
DWIDTH 33 0
BBX 25 33 4 0
BITMAP
701C0300
F01C0780
F03E0780
F03E0780
F03E0780
F03E0780
F03E0780
F03E0780
F03E0780
F03E0780
F03E0780
F03E0780
F03E0780
F03E0780
F03E0780
F03E0780
F03E0780
F03E0780
F03E0780
F03E0780
F03E0780
F03E0780
F03E0780
F03E0780
F03E0780
F03E0780
F83E0F80
783E0F00
7E3E3F00
3FFFFE00
3FFFFE00
0FFFF800
03FFE000
ENDCHAR
STARTCHAR 0078
ENCODING 120
SWIDTH 990 0
DWIDTH 33 0
BBX 25 33 4 0
BITMAP
70000700
F0000780
F8000F80
7C001F00
7E001F00
3E003E00
1F007C00
1F80F800
0F80F800
07C1F000
03E3E000
03F3C000
01F7C000
00FF8000
007F0000
007F0000
003E0000
007F0000
007F0000
00FF8000
01F7C000
01E7E000
03E3E000
07C1F000
0F80F800
0F80FC00
1F007C00
3E003E00
7C001F00
7C001F00
F8000F80
F0000780
70000700
ENDCHAR
STARTCHAR 0079
ENCODING 121
SWIDTH 990 0
DWIDTH 33 0
BBX 25 33 4 0
BITMAP
60000700
F0000780
F0000780
F0000780
F0000780
F0000780
F0000780
F0000780
F0000780
F0000780
F0000780
F0000780
F0000780
F0000780
F8000F80
7C001F80
7F007F80
3FFFFF80
1FFFFF80
0FFFFF80
01FFC780
00000780
00000780
00000780
00000780
00000780
00000F80
00000F00
00003F00
07FFFE00
0FFFFE00
0FFFF800
07FFE000
ENDCHAR
STARTCHAR 007A
ENCODING 122
SWIDTH 990 0
DWIDTH 33 0
BBX 25 33 4 0
BITMAP
7FFFFF00
FFFFFF80
FFFFFF80
7FFFFF00
00001F00
00003E00
00007C00
00007800
0000F800
0001F000
0001E000
0003C000
0007C000
000F8000
000F0000
001F0000
003E0000
007C0000
00780000
00F80000
01F00000
01E00000
03C00000
07C00000
0F800000
0F000000
1F000000
3E000000
7C000000
7FFFFF00
FFFFFF80
FFFFFF80
7FFFFF00
ENDCHAR
STARTCHAR 00A5
ENCODING 165
SWIDTH 990 0
DWIDTH 33 0
BBX 25 33 4 0
BITMAP
60000300
F0000780
F8000F80
7C001F00
3E003E00
1F007C00
0FC0F800
07E1F000
03F3E000
01FFC000
00FF8000
007F0000
003E0000
003E0000
003E0000
003E0000
003FE000
07FFF000
0FFFF800
0FFFF800
03FFE000
003E0000
003E0000
07FFF000
0FFFF800
0FFFF800
07FFF000
003E0000
003E0000
003E0000
003E0000
001C0000
001C0000
ENDCHAR
STARTCHAR 00A9
ENCODING 169
SWIDTH 990 0
DWIDTH 33 0
BBX 33 33 0 0
BITMAP
000FF00000
003FFE0000
00FFFF8000
03FFFFE000
07FC1FF000
0FE003F800
1F8000FC00
1F00007C00
3E01C03E00
3C0FF81E00
7C1FFC1F00
783FFE0F00
F87F7E0F80
F07C1F0F80
F0F80E0780
F0F0000780
F0F0000780
F0F0000780
F0F80E0780
F07C1F0F80
F87F7E0F80
783FFE0F00
7C1FFC1F00
7C0FF81E00
3E03C03E00
1F00007C00
1F8000FC00
0FE003F800
07FC1FF000
03FFFFE000
00FFFF8000
003FFE0000
000FF80000
ENDCHAR
STARTCHAR 00B6
ENCODING 182
SWIDTH 990 0
DWIDTH 33 0
BBX 33 33 0 0
BITMAP
01FFFFFF00
07FFFFFF80
0FFFFFFF80
1FFFFFFF00
3FFF807800
7FFF807800
7FFF807800
FFFF807800
FFFF807800
FFFF807800
FFFF807800
FFFF807800
FFFF807800
FFFF807800
7FFF807800
7FFF807800
3FFF807800
1FFF807800
0FFF807800
03FF807800
007F807800
000F807800
000F807800
000F807800
000F807800
000F807800
000F807800
000F807800
000F807800
000F807800
000F807800
000F007800
0007003000
ENDCHAR
STARTCHAR 00D7
ENCODING 215
SWIDTH 990 0
DWIDTH 33 0
BBX 33 33 0 0
BITMAP
0C00003800
1F00007C00
3F8000FE00
7FC001FF00
FFE003FF80
FFF007FF80
FFF80FFF80
7FFC1FFF00
3FFE3FFE00
1FFF7FFC00
0FFFFFF800
07FFFFF000
03FFFFE000
01FFFFC000
00FFFF8000
007FFF0000
003FFE0000
003FFF0000
007FFF8000
01FFFFC000
03FFFFE000
07FFFFF000
0FFFFFF800
1FFF7FFC00
3FFE3FFE00
7FFC1FFF00
FFF80FFF80
FFF007FF80
FFE003FF80
7FC001FF00
3F8000FE00
1F00007C00
0E00003800
ENDCHAR
STARTCHAR 00F7
ENCODING 247
SWIDTH 990 0
DWIDTH 33 0
BBX 33 33 0 0
BITMAP
0007F00000
000FF80000
000FF80000
000FF80000
000FF80000
000FF80000
000FF80000
0007F00000
0000000000
0000000000
0000000000
0000000000
7FFFFFFF00
FFFFFFFF80
FFFFFFFF80
FFFFFFFF80
FFFFFFFF80
FFFFFFFF80
FFFFFFFF80
FFFFFFFF80
7FFFFFFF00
0000000000
0000000000
0000000000
0000000000
0007F00000
000FF80000
000FF80000
000FF80000
000FF80000
000FF80000
000FF80000
0007F00000
ENDCHAR
STARTCHAR 01C0
ENCODING 448
SWIDTH 990 0
DWIDTH 33 0
BBX 33 33 0 0
BITMAP
0000018000
0000030000
0000070400
0000060C00
0000060800
0000061800
0000061800
0000061800
0000061800
0000061800
0000071800
0000031800
0000010C00
0000018C00
0000000000
0000000000
7000007E00
FFF001FF80
7FF801FF80
01FC01FF80
007E01FF80
003F01FF80
001F81FF80
000FC1FF80
0007F3FF80
0003FFFF80
0001FFFF80
0000FFFF80
0000FFFF00
00007FFF00
00001FFE00
00000FFC00
000003F000
ENDCHAR
STARTCHAR 02DA
ENCODING 730
SWIDTH 990 0
DWIDTH 33 0
BBX 29 33 2 0
BITMAP
001FC000
007FF000
007FF000
003FE000
001FC000
00FFF800
01FFFC00
07FFFF00
0FF8FF80
1FC01FC0
3F0007C0
3E0003E0
7C0001F0
7C0001F0
780000F0
F80000F8
F0000078
F0000078
F0000078
F0000078
F0000078
F80000F8
780000F0
780000F0
7C0001F0
3E0003E0
3F0007E0
1F800FC0
0FF07F80
07FFFF00
03FFFE00
00FFF800
001FC000
ENDCHAR
STARTCHAR 2020
ENCODING 8224
SWIDTH 990 0
DWIDTH 33 0
BBX 33 32 0 1
BITMAP
8000000000
4000000000
6000000000
7800000000
3C00000000
3E00000000
1F80000000
1FF0000000
0FF8000000
0FFC000000
07FE000000
03FF000000
03FF800000
01FFC00000
00FFE00000
007FF00000
001FFC0000
000FFC0000
0007FE0000
0003FF0000
0001FF8000
0001DFC000
00018FE000
000107F000
000003F800
000001FC00
000000FE00
0000007F00
0000003F80
0000001F80
0000000F00
0000000600
ENDCHAR
STARTCHAR 2040
ENCODING 8256
SWIDTH 990 0
DWIDTH 33 0
BBX 12 33 11 0
BITMAP
FFF0
FFF0
FFE0
7FC0
3F80
1F80
0F00
0F00
0F00
1F00
1F80
1F80
1F80
3F80
3F80
3FC0
3FC0
3FC0
7FC0
7FE0
7FE0
7FE0
FFE0
FFE0
FFF0
FFF0
FFF0
7FE0
7FC0
3F80
1F00
0E00
0600
ENDCHAR
STARTCHAR 20AC
ENCODING 8364
SWIDTH 990 0
DWIDTH 33 0
BBX 29 33 2 0
BITMAP
0007F000
001FFC00
007FFF00
00FFFF80
01FC1FC0
03F007E0
03E003E0
07C001F0
078000F0
07800078
7FFE0078
FFFF0078
FFFF8000
FFFF0000
0F000000
0F000000
0F000000
0F000000
0F000000
FFFF0000
FFFF8000
FFFF0078
7FFE0078
07800078
078000F0
07C001F0
03E001E0
03F007E0
01FC1FC0
00FFFF80
007FFF00
001FFE00
0007F000
ENDCHAR
STARTCHAR 21B8
ENCODING 8632
SWIDTH 990 0
DWIDTH 33 0
BBX 33 33 0 1
BITMAP
0001C00000
0003E00000
0007F00000
000FF80000
001FFC0000
003FFE0000
007FFF0000
00FFFF8000
01FFFFC000
03FFFFE000
07FFFFF000
0FFFFFF800
1FFFFFFC00
3FFFFFFE00
7FFFFFFF00
FFFFFFFF80
FFFFFFFF80
FFFFFFFF80
0FFFFFF800
0FFFFFF800
0FFFFFF800
0FFFFFF800
0FFFFFF800
0FF007F800
0FF007F800
0FF007F800
0FF007F800
0FF007F800
0FF007F800
0FF007F800
0FF007F800
0FF007F800
07F007F000
ENDCHAR
STARTCHAR 21EA
ENCODING 8682
SWIDTH 990 0
DWIDTH 33 0
BBX 29 33 2 0
BITMAP
00070000
000F8000
001FC000
003FE000
007FF000
007FF800
00FFF800
01FFFC00
03FFFE00
07FFFF00
0FFFFF80
1FFFFFC0
3FFFFFE0
7FFFFFF0
FFFFFFF8
FFFFFFF8
7FFFFFF0
03FFFE00
03FFFE00
03FFFE00
03FFFE00
03FFFE00
03FFFE00
03FFFE00
01FFFC00
00000000
00000000
01FFFC00
03FFFE00
03FFFE00
03FFFE00
03FFFE00
01FFFC00
ENDCHAR
STARTCHAR 2207
ENCODING 8711
SWIDTH 990 0
DWIDTH 33 0
BBX 33 33 0 0
BITMAP
3FFFFFFE00
7FFFFFFF00
FFFFFFFF80
FFFFFFFF80
F00399FF80
F00399FF80
F00CE7FF80
F00CE7FF80
F00399FF80
F00399FF80
F00CE7FF80
F00CE7FF80
F00399FF80
F00399FF80
F00CE7FF80
F00CE7FF80
F00FFFFF80
F00399FF80
F00399FF80
F00CE7FF80
F00CE7FF80
F00399FF80
F00399FF80
F00CE7FF80
F00CE7FF80
F00399FF80
F00399FF80
F00CE7FF80
F00CE7FF80
FFFFFFFF80
FFFFFFFF80
7FFFFFFF00
3FFFFFFE00
ENDCHAR
STARTCHAR 2212
ENCODING 8722
SWIDTH 990 0
DWIDTH 33 0
BBX 33 9 0 12
BITMAP
7FFFFFFF00
FFFFFFFF80
FFFFFFFF80
FFFFFFFF80
FFFFFFFF80
FFFFFFFF80
FFFFFFFF80
FFFFFFFF80
7FFFFFFF00
ENDCHAR
STARTCHAR 221E
ENCODING 8734
SWIDTH 990 0
DWIDTH 33 0
BBX 33 17 0 8
BITMAP
03C001E000
0FF007F800
1FF80FFC00
3FFE3FFE00
7F7F7F7F00
781FFC0F00
F80FF80F80
F007F00780
F007F00780
F007F00780
F80FF80F80
781FFC0F00
7F7F7F7F00
3FFE3FFE00
1FF80FFC00
0FF007F800
03C001E000
ENDCHAR
STARTCHAR 2229
ENCODING 8745
SWIDTH 990 0
DWIDTH 33 0
BBX 33 33 0 0
BITMAP
0001C00000
0001C00000
0003E00000
0003E00000
07FFFFFF00
1FFFFFFF80
3FFFFFFF80
FFFFFFFF80
FFFFFFFF80
7FFFFFFF80
3FFFFFFF80
0FFFFFFF80
0003E00000
0003E00000
3FFFFFE000
FFFFFFF800
FFFFFFFE00
FFFFFFFF00
FFFFFFFF80
FFFFFFFF00
FFFFFFFE00
FFFFFFFC00
7FFFFFF000
0003E00000
0003E00000
0003E00000
0003E00000
0003E00000
0003E00000
0003E00000
0003E00000
0001C00000
0001C00000
ENDCHAR
STARTCHAR 22B7
ENCODING 8887
SWIDTH 990 0
DWIDTH 33 0
BBX 33 33 0 1
BITMAP
FFFFFFFF80
FFFFFFFF80
C000000180
C000000180
C3C0000180
C7E0000180
CFF0000180
CFF0000180
CFF0000180
CFF0000180
C7F0018180
C3E003C180
C00007E180
C0000FF180
C0001FF980
C0003FF980
C0007FF980
C0F0FFF980
C1F8FFF980
C3FC7FF980
C7FE3FF980
CFFF1FF980
CFFF8FF980
CFFFC7F980
CFFFE3F980
C000000180
C000000180
FFFFFFFF80
FFFFFFFF80
FFFFFFFF80
FFFFFFFF80
FFFFFFFF80
FFFFFFFF80
ENDCHAR
STARTCHAR 22D4
ENCODING 8916
SWIDTH 990 0
DWIDTH 33 0
BBX 33 33 0 -1
BITMAP
0060000000
00F0000000
00F8000000
007C000000
063E000000
0F1F000000
0F8F800000
07C7C00000
63E3E00000
F1F1F00000
F8F8F00000
7C7CF00000
3E3EF80000
1F1FF80000
0F8FF00000
07C7F00000
03FFF00000
01FFFC0000
00FFFE0000
007FFF0000
000CFF8000
00007FC000
00003FF000
00001FF800
00000FFC00
000007FE00
000003FF00
000003FF00
000001FF80
000000FF80
0000007F80
0000003F00
0000001E00
ENDCHAR
STARTCHAR 2407
ENCODING 9223
SWIDTH 990 0
DWIDTH 33 0
BBX 33 33 0 0
BITMAP
0001C00000
0003C00000
0007F00000
001FFC0000
007FFF0000
00FFFF8000
01FFFFC000
03FFFFE000
03FFFFE000
07FFFFF000
07FFFFF000
0FFFFFF800
0FFFFFF800
0FFFFFF800
0FFFFFF800
0FFFFFF800
0FFFFFF800
0FFFFFF800
0FFFFFF800
0FFFFFF800
0FFFFFF800
0FFFFFF800
0FFFFFF800
1FFFFFFC00
1FFFFFFC00
3FFFFFFE00
7FFFFFFF00
FFFFFFFF80
FFFFFFFF80
FFFFFFFF80
7FFFFFFF00
0007F00000
0001C00000
ENDCHAR
STARTCHAR 2441
ENCODING 9281
SWIDTH 990 0
DWIDTH 33 0
BBX 33 27 0 2
BITMAP
01FFFFC000
03FFFFE000
03FFFFE000
01FFFFC000
01FFFFC000
01FFFFC000
01FFFFC000
00FFFF8000
00FFFF8000
70FFFF8700
F8FFFF8F80
FC7FFF1F80
FC3FFE1F80
FC00001F80
FC00001F80
FC7FFF1F80
FCFFFF9F80
FCFFFF9F80
FC7FFF1F80
FC00001F80
FC00001F80
FC7FFF1F80
FCFFFF9F80
FCFFFF9F80
FCFFFF9F80
FCFFFF9F80
787FFF0F00
ENDCHAR
STARTCHAR 25AD
ENCODING 9645
SWIDTH 990 0
DWIDTH 33 0
BBX 33 33 0 0
BITMAP
FFFFFFFF80
FFFFFFFF80
C000000180
C000000180
C000000180
C000000180
C000000180
C000000180
C000000180
C000000180
C000000180
C000000180
C000000180
C000000180
C000000180
C000000180
C000000180
C000000180
C000000180
C000000180
C000000180
C000000180
C000000180
C000000180
C000000180
C000000180
C000000180
C000000180
C000000180
C000000180
C000000180
FFFFFFFF80
FFFFFFFF80
ENDCHAR
STARTCHAR 25B3
ENCODING 9651
SWIDTH 990 0
DWIDTH 33 0
BBX 33 33 0 0
BITMAP
0000000180
0000000380
0000000780
0000000F80
0000001F80
0000003F80
0000007F80
000000FF80
000001FF80
000003FF80
000007FF80
00000FFF80
00001FFF80
00003FFF80
00007FFF80
0000FF9F80
0001FF1F80
0003FE1F80
0007FC1F80
000FF81F80
001FF01F80
003FE01F80
007FC01F80
00FF801F80
01FF001F80
03FE001F80
07FE003F80
0FFFFFFF80
1FFFFFFF80
3F3FBF9F80
7F3F9F9F80
F33B999980
F333999980
ENDCHAR
STARTCHAR 262F
ENCODING 9775
SWIDTH 990 0
DWIDTH 33 0
BBX 33 33 0 1
BITMAP
0007F00000
003FFE0000
00FFFF8000
03FFFFE000
07FDFFF000
0FE7FFF800
1F8FFFFC00
1F1FFFFC00
3E1F7FFE00
3C3E3FFE00
7C3C1FFF00
783E3FFF00
F81FFFFF00
F01FFFFF80
F00FFFFF80
F007FFFF80
F000FFFF80
F0000FFF80
F00007FF80
F00003FF80
F80003FF80
7801C1FF00
7C03E1FF00
3C01C1FE00
3E0083FE00
1F0003FC00
1F8007FC00
0FE00FF800
07FC3FF000
03FFFFE000
00FFFF8000
003FFE0000
0007F00000
ENDCHAR
STARTCHAR 263A
ENCODING 9786
SWIDTH 990 0
DWIDTH 33 0
BBX 33 33 0 0
BITMAP
0007F00000
003FFE0000
00FFFF8000
03FFFFE000
07FFFFF000
0FFFFFF800
1FFFFFFC00
1FFFFFFC00
3F3FFE7E00
3E1FFC3E00
7E0FF83F00
7C0FF81F00
FC0FF81F00
FC0FF81F80
FE0FF83F80
FE1FFC3F80
FFFFFFFF80
FFFFFFFF80
FFFFFFFF80
FFFFFFFF80
FFFFFFFF80
7C00001F00
7C00003F00
3E7FFF3E00
3F3FFE7E00
1F1FFC7C00
1F83E0FC00
0FE003F800
07F80FF000
03FFFFE000
00FFFF8000
003FFE0000
0007F00000
ENDCHAR
STARTCHAR 263C
ENCODING 9788
SWIDTH 990 0
DWIDTH 33 0
BBX 33 33 0 0
BITMAP
0007F00000
003FFE0000
00FFFF8000
03FFFFE000
07FC1FF000
0FE003F800
1F8000FC00
1F00007C00
3E00003E00
3C00001E00
7C00001F00
7800000F00
F800000F00
F100000780
F07F800780
F01FC00780
F007F00780
F001FC0780
F000FF0780
F000004F80
F800000F80
7800000F00
7C00001F00
3C00001E00
3E00003E00
1F00007C00
1F8000FC00
0FE003F800
07FC1FF000
03FFFFE000
00FFFF8000
003FFE0000
0007F00000
ENDCHAR
STARTCHAR 2666
ENCODING 9830
SWIDTH 990 0
DWIDTH 33 0
BBX 33 29 0 2
BITMAP
03FC9FE000
19FC9FCC00
19F9CFCC00
3CF9CF9E00
3CF3E79E00
7E73E73F00
7E67F33F00
FF27F27F80
0000000000
0000000000
FF3FFE7F80
7F9FFCFF00
7F9FFCFE00
3F9FFCFE00
1FCFF9FC00
0FCFF9F800
07CFF9F000
07E7F3E000
03E7F3E000
01E7F3C000
00F3E78000
0073E70000
0073E60000
0039CE0000
0019CC0000
0009C80000
0004900000
0004800000
0000800000
ENDCHAR
STARTCHAR 2713
ENCODING 10003
SWIDTH 990 0
DWIDTH 33 0
BBX 33 27 0 2
BITMAP
0000001800
0000003C00
0000007E00
000000FF00
000001FF80
000003FF80
000007FF00
00000FFE00
00001FFC00
00003FF800
00007FF000
0000FFE000
1E01FFC000
3F03FF8000
7F87FF0000
FFCFFE0000
FFFFFC0000
FFFFF80000
7FFFF00000
3FFFE00000
1FFFC00000
0FFF800000
07FF000000
03FE000000
01FC000000
00F8000000
0070000000
ENDCHAR
STARTCHAR E000
ENCODING 57344
SWIDTH 990 0
DWIDTH 33 0
BBX 33 29 0 2
BITMAP
3FFFFFFE00
7FFFFFFF00
FFFFFFFF80
FFFFFFFF80
FC00000780
F800000780
F07FFFFF80
F1FFFFFF80
F1FFFFFF80
F3FFFFFF80
F3FFFFFF80
F3FFFFFF80
F3FFFFFF80
F3FFFFFF80
F3FFFFFF80
F3E0FFFF80
F3C0FFFF80
F3C0FFFF80
F3C0FFFF80
FBE0FFFF80
FFF1FFFF80
FFFFFFFF80
FFFFFFFF80
7FFFFFFF80
1FFFFFFF80
03FFFFFF80
01FFFFFF80
01FFFFFF00
00FFFFFE00
ENDCHAR
STARTCHAR F000
ENCODING 61440
SWIDTH 990 0
DWIDTH 33 0
BBX 33 33 0 0
BITMAP
00001C0000
00001F8000
00001FE000
00001FF000
001C1FF800
00FC1FFC00
03FC1FFE00
07FC1FFE00
0FFC1FFF00
1FFC1FFF00
3FFC1FFF00
3FFC1FFF80
7FFC1FFF80
7FFC1FFF80
7FFC000000
FFFC000000
FFFC000000
FFFC000000
FFFC000000
FFFFFFF800
FFFFFFF800
FFFFFFF800
7FFFFFF000
7FFFFFF000
7FFFFFF000
3FFFFFE000
3FFFFFE000
1FFFFFC000
0FFFFF8000
07FFFF0000
03FFFE0000
00FFF80000
001FC00000
ENDCHAR
STARTCHAR F001
ENCODING 61441
SWIDTH 990 0
DWIDTH 33 0
BBX 33 33 0 0
BITMAP
000FF00000
003FFE0000
00FFFF8000
03FFFFE000
07F8FFF000
0FE0FFF800
1F80FFFC00
1F00FFFC00
3E00FFFE00
3C00FFFE00
7C00FFFF00
7800FFFF00
F800FFFF80
F000FFFF80
F000FFFF80
F000FFFF80
F000FFFF80
FFFFFFFF80
FFFFFFFF80
F0001FFF80
F8000FFF80
780007FF00
7C0003FF00
7C0001FE00
3E0000FE00
1F00007C00
1F8000FC00
0FE003F800
07F80FF000
03FFFFE000
00FFFF8000
003FFE0000
000FF80000
ENDCHAR
STARTCHAR F002
ENCODING 61442
SWIDTH 990 0
DWIDTH 33 0
BBX 31 31 2 0
BITMAP
03111180
03339980
03339980
03339980
00000000
00000000
71FFFF1E
F3FFFF9E
03FFFF80
03FFFF80
73FFFF9C
F3FFFF9E
03FFFF80
03FFFF80
73FFFF9C
F3FFFF9E
73FFFF9C
03FFFF80
03FFFF80
F3FFFF9E
73FFFF9C
03FFFF80
03FFFF80
F3FFFF9E
F1FFFF1E
00000000
00000000
03339980
03339980
03339980
03111980
ENDCHAR
STARTCHAR F003
ENCODING 61443
SWIDTH 990 0
DWIDTH 33 0
BBX 33 33 0 0
BITMAP
00F1C78000
00F3E78000
00F3E78000
00F3E78000
0000000000
0000000000
01FFFFC000
03FFFFE000
F3FFFFE780
F3FFFFE780
F3FFFFE780
F3FFFFE780
03FFFFE000
03FFFFE000
73FFFFE700
F3FFFFE780
F3FFFFE780
F3FFFFE780
73FFFFE700
03FFFFE000
03FFFFE000
F3FFFFE780
F3FFFFE780
F3FFFFE780
F3FFFFE780
03FFFFE000
01FFFFC000
0000000000
0000000000
00F3E78000
00F3E78000
00F3E78000
00F1C78000
ENDCHAR
STARTCHAR F004
ENCODING 61444
SWIDTH 990 0
DWIDTH 33 0
BBX 33 33 0 0
BITMAP
1FFFFFFF00
3FFFFFFF80
3FFFFFFF80
3FFFFFFF80
FE00000F80
FC00000780
FC7FFFC780
FCFFFFE780
FCFFFFE780
FCFFFFE780
FCFFFFE780
FCFFFFE780
3CFFDFE780
3CFF07E780
3CFE23E780
3CFE71E780
3CFCF9E780
3CFE71E780
3CFE23E780
3CFF07E780
3CFFDFE780
FCFFFFE780
FCFFFFE780
FCFFFFE780
FCFFFFE780
FCFFFFE780
FC7FFFC780
FC00000780
FE00000F80
3FFFFFFF80
3FFFFFFF80
3FFFFFFF80
1FFFFFFF00
ENDCHAR
STARTCHAR F005
ENCODING 61445
SWIDTH 990 0
DWIDTH 33 0
BBX 33 33 0 0
BITMAP
7FFFFFFF00
FFFFFFFF80
FFFFFFFF80
FFFFFFFF80
F800000F80
F000000780
F1FFFFC780
F3FFFFE780
E03FFFE780
C03FFFE780
C73FFFE780
CF3FFFE780
C03FDFE780
C03F07E780
F3FE23E780
F3FE71E780
F3FCF9E780
F3FE71E780
F3FE23E780
C03F07E780
C03FDFE780
CF3FFFE780
C73FFFE780
C03FFFE780
C03FFFE780
F3FFFFE780
F1FFFFC780
F000000780
F800000F80
FFFFFFFF80
FFFFFFFF80
FFFFFFFF80
7FFFFFFF00
ENDCHAR
STARTCHAR F006
ENCODING 61446
SWIDTH 990 0
DWIDTH 33 0
BBX 33 33 0 0
BITMAP
0007F00000
003FFE0000
00FFFF8000
03FFFFE000
07FC1FF000
0FF80FF800
1F9C1CFC00
1F0C187C00
3E0C183E00
3C00001E00
7C00001F00
7E00003F00
FF8004FF00
F38006EF80
F0000C0780
F0001C0780
F000180780
F000380780
F000380780
F38070EF80
FF80F0FF80
7E00F03F00
7C01E01F00
3C3FFE1E00
3EFFFFBE00
1FFE3FFC00
1FFC1FFC00
0FFE3FF800
07FE3FF000
03FFFFE000
00FFFF8000
003FFE0000
0007F00000
ENDCHAR
STARTCHAR F007
ENCODING 61447
SWIDTH 990 0
DWIDTH 33 0
BBX 33 33 0 0
BITMAP
0003E00000
000FF80000
001FFC0000
003FFE0000
007FFF0000
007FFE0000
00FFF80000
00FFF00000
00FFE3C000
00FFCFF000
007FBFF800
047FBFFC00
0E7FFFFC00
1F3FFFFE00
3FDFFFFE00
3FFFFFFE00
3FFFFFFE00
3FFFFFFE00
3FFFFFFC00
1FFFFFFC00
1FFFFFF800
07FFFFF000
01FFFF8000
0000000000
0000000000
3FFFFFFE00
7FFFFFFF00
F8F8000F80
F0F0000780
F0F0000780
F9F8000F80
7FFFFFFF00
3FFFFFFE00
ENDCHAR
STARTCHAR F008
ENCODING 61448
SWIDTH 990 0
DWIDTH 33 0
BBX 33 33 0 0
BITMAP
3FFFFFFE00
7FFFFFFF00
FFFFFFFF80
FFFFFFFF80
F9FE3FCF80
F0FE3F8780
F0FC1F8780
F0FC1F8780
E07C1F8780
C03C1F8780
C73C1F8780
CF3C1F8780
CF3C1F0380
CF3C1E0180
C03C1E3180
C03C1E7980
F0FC1E7980
F0FC1E7980
F0FC1E3180
F0FC1E0180
F0FC1F0380
F0F80F8780
F0F0078780
F0F3E78780
F0F3E78780
F0F3E78780
F0F1C78780
F0F00F8780
F9F80FCF80
FFFFFFFF80
FFFFFFFF80
7FFFFFFF00
3FFFFFFE00
ENDCHAR
STARTCHAR F009
ENCODING 61449
SWIDTH 990 0
DWIDTH 33 0
BBX 33 33 0 0
BITMAP
3FFFFFFE00
7FFFFFFF00
FFFFFFFF80
FFFFFFFF80
FF80FFFF80
FF00FFFF80
F01C000780
F03C000780
FF00FFFF80
FF80FFFF80
FFFFFFFF80
FFFFFFFF80
FFFFFFFF80
FFFFFFFF80
FFFFC1FF80
FFFF80FF80
F8000C7F80
F0001E0780
F8001C0F80
FFFF807F80
FFFFC1FF80
FFFFFFFF80
FFFFFFFF80
FFFFFFFF80
FFFFFFFF80
F00F878780
F00F878780
F00F878780
F00F8F8780
FFFFFFFF80
FFFFFFFF80
7FFFFFFF00
3FFFFFFE00
ENDCHAR
STARTCHAR F00A
ENCODING 61450
SWIDTH 990 0
DWIDTH 33 0
BBX 33 33 0 0
BITMAP
3FFFFFFE00
7FFFFFFF00
E7FFFFF380
C3FFFFE180
C3FC1FE180
E3E003E380
FF8000FF80
FF00007F80
FE300E3F80
FC701F1F80
FCF81F9F80
F8F81F8F80
F8F8BF8F80
F07FF00F80
F00FF00780
F00FF00780
F00FF80780
F00FF80780
F007F00780
F007FF0F80
F8FE8F8F80
F8FC0F8F80
FCFC0F9F80
FC7C0F1F80
FE38063F80
FF00007F80
FF8000FF80
E3E003E380
C3FC1FE180
C3FFFFE180
E7FFFFF380
7FFFFFFF00
3FFFFFFE00
ENDCHAR
STARTCHAR F00B
ENCODING 61451
SWIDTH 990 0
DWIDTH 33 0
BBX 33 33 0 0
BITMAP
007FFF0000
0FFFFFF800
7FFFFFFF00
FFFFFFFF80
FFFFFFFF80
7FFFFFFF00
1FFFFFFC00
01FFFFC000
C000000180
FC00001F80
FFFFFFFF80
FFFFFFFF80
FFFFFFFF80
7FFFFFFF00
3FFFFFFE00
03FFFFE000
8000800080
F800000F80
FFFE3FFF80
FFFFFFFF80
FFFFFFFF80
FFFFFFFF80
3FFFFFFE00
07FFFFF000
801FFC0080
F000000780
FFC001FF80
FFFFFFFF80
FFFFFFFF80
FFFFFFFF80
7FFFFFFF00
0FFFFFF800
007FFF0000
ENDCHAR
STARTCHAR F00C
ENCODING 61452
SWIDTH 990 0
DWIDTH 33 0
BBX 33 33 0 0
BITMAP
007FFF0000
0FFFFFF800
7FFFFFFF00
FFFFFFFF80
FFFFFFFF80
7FFFFFFF00
1FFFFFFC00
01FFFFC000
C000000180
FC00001F80
FFFFFFFF80
FFFFFFFF80
FFFFFFFF80
7FFFFFFF00
3FFF7FFE00
03FE3FE000
800C180080
F80C180F80
FFFC1FFF80
FFFC1FFF80
FFFC1FFF80
FF8000FF80
3F00007E00
0700007000
838000E080
F3FC1FE780
FFFC1FFF80
FFFC1FFF80
FFFC1FFF80
FFFE3FFF80
7FFE3FFF00
0FFFFFF800
007FFF0000
ENDCHAR
STARTCHAR F00D
ENCODING 61453
SWIDTH 990 0
DWIDTH 33 0
BBX 33 33 0 0
BITMAP
007FFF0000
0FFFFFF800
7FFFFFFF00
FFFFFFFF80
FFFFFFFF80
7FFFFFFF00
1FFFFFFC00
01FFFFC000
C000000180
FC00001F80
FFFFFFFF80
FFFFFFFF80
FFFFFFFF80
7FFFFFFF00
3FFFFFFE00
03FFFFE000
80FFFF8080
F9E3E3CF80
FFC1C1FF80
FFE083FF80
FFF007FF80
FFF80FFF80
3FF81FFE00
07F80FF000
8070070080
F0E0038780
FFC181FF80
FFC3C1FF80
FFE7F3FF80
FFFFFFFF80
7FFFFFFF00
0FFFFFF800
007FFF0000
ENDCHAR
STARTCHAR F00E
ENCODING 61454
SWIDTH 990 0
DWIDTH 33 0
BBX 33 33 0 0
BITMAP
3C00001E00
7C00001F00
FFFFFFFF80
FFFFFFFF80
FFFFFFFF80
FFFFFFFF80
3FFFFFFE00
3FFFFFFE00
3BBBEEEE00
3333E66600
3333E66600
3333E66600
3333E66600
3333E66600
3333E66600
3333E66600
3FFFFFFE00
3FFFFFFE00
3FFFFFFE00
3FFFFFFE00
3FFFFFFE00
3870000600
3038000E00
303FFFFE00
303FFFFE00
3830000600
3C78000600
FFFFFFFF80
FFFFFFFF80
FFFFFFFF80
FFFFFFFF80
7C00001F00
3C00001E00
ENDCHAR
STARTCHAR F00F
ENCODING 61455
SWIDTH 990 0
DWIDTH 33 0
BBX 33 33 0 0
BITMAP
0007F00000
0007F00000
0007F80000
000FF80000
000FF80000
181FFC0C00
3F7FFF7E00
3FFFFFFF00
7FFFFFFF00
FFFFFFFF80
FFFF7FFF80
7FF80FFF00
3FF007FE00
1FE003FC00
0FE003F800
0FC001F800
0FC001F800
0FC001F800
0FE003F800
1FE003FC00
3FF007FE00
7FF80FFF00
FFFF3FFF80
FFFFFFFF80
7FFFFFFF00
3FFFFFFF00
3F7FFF7E00
181FFC0C00
000FF80000
000FF80000
000FF00000
0007F00000
0007F00000
ENDCHAR
STARTCHAR F010
ENCODING 61456
SWIDTH 990 0
DWIDTH 33 0
BBX 33 33 0 1
BITMAP
000C180000
001C1C0000
003C1E0000
003C1E0000
00780F0000
00780F0000
00F0078000
00E0078000
01E003C000
01C001E000
03C001E000
038000E000
701FF80700
F81FFC0F80
FFFFFFFF80
FFFFFFFF80
3FFFFFFE00
0000000000
0000000000
3FFFFFFE00
3FFFFFFE00
3FFFFFFC00
1FFFFFFC00
1FFFFFFC00
1FFFFFFC00
1FFFFFFC00
1FFFFFFC00
1FFFFFF800
0FFFFFF800
0FFFFFF800
0FFFFFF800
0FFFFFF800
07FFFFF000
ENDCHAR
STARTCHAR F011
ENCODING 61457
SWIDTH 990 0
DWIDTH 33 0
BBX 33 33 0 0
BITMAP
7FFFFFFF00
FFFFFFFF80
FFF007FF80
FFF007FF80
FFF007FF80
FFF007FF80
FFF007FF80
FFF007FF80
FFF007FF80
FFF007FF80
FFF007FF80
FFF80FFF80
FFFFFFFF80
FFFFFFFF80
FFFFFFFF80
FFFFFFFF80
FFFFFFFF80
FFFFFFFF80
FFFFFFFF80
FFFFFFFF80
FFFFFFFF80
FFFE3E0780
FFFC1E0780
FFF80E0F80
FFF0079F80
FFFC1F9F80
FFFC1F9F80
FFFC1E0780
FFFE3E0780
FFFFFFFF80
FFFFFFFF80
FFFFFFFF80
7FFFFFFF00
ENDCHAR
STARTCHAR F012
ENCODING 61458
SWIDTH 990 0
DWIDTH 33 0
BBX 29 33 2 0
BITMAP
7FFFFFF0
FFFFFFF8
FFFFFFF8
FFFFFFF8
F0000078
F0000078
F0000078
F0000078
F0020078
F0070078
F00F8078
F0070078
F0000078
F0000078
FFFFFFF8
FFFFFFF8
FFFFFFF8
FFFFFFF8
FFFFFFF8
F0000078
F0000078
F0000078
F0000078
F0070078
F00F8078
F0070078
F0070078
F0000078
F0000078
FFFFFFF8
FFFFFFF8
FFFFFFF8
7FFFFFF0
ENDCHAR
STARTCHAR F013
ENCODING 61459
SWIDTH 990 0
DWIDTH 33 0
BBX 33 33 0 0
BITMAP
000FF80000
007FFF0000
01FFFFC000
03FFFFE000
0FFC1FF000
1FE003F800
1FC001FC00
3F8000FE00
7F81C0FE00
7FE7F07F00
7FFFF87F00
FFFFF07F80
FFFF00FF80
FFFE00FF80
FFFC01FF80
FFFC07FF80
FFFC1FFF80
FFFC1FFF80
7FFE3FFF00
7FFFFFFF00
3FFFFFFE00
3FFC1FFE00
1FFC1FFC00
0FFC1FF800
07FE3FF000
03FFFFE000
03FFFFC000
03FFFF0000
03F7F00000
03E0000000
03C0000000
0380000000
0600000000
ENDCHAR
STARTCHAR F014
ENCODING 61460
SWIDTH 990 0
DWIDTH 33 0
BBX 33 33 0 0
BITMAP
000FF00000
003FFE0000
00F80F8000
03F007E000
07F007F000
0FF007F800
1FF007FC00
1FF007FC00
3FF1C7FE00
3FFFFFFE00
7FFF7FFF00
7FF80FFF00
E070070380
C060030180
C0E0030180
C0C0018180
C0C0018180
C0C0018180
C0E0038180
C060030180
E070070380
7FF80FFF00
7FFE3FFF00
7FFFFFFE00
3FF1C7FE00
1FF007FC00
1FF007FC00
0FF007F800
07F007F000
03F007E000
00F80F8000
003FFE0000
000FF80000
ENDCHAR
STARTCHAR F015
ENCODING 61461
SWIDTH 990 0
DWIDTH 33 0
BBX 33 33 0 0
BITMAP
0F87F0F800
3FFFFFFE00
70F80F8700
63F007E300
C7F007F180
CFF007F980
DFF007FD80
DFF007FD80
FFF1C7FF80
7FFFFFFF00
7FFF7FFF00
7FF80FFF00
E070070300
C060030180
C0E0030180
C0C0018180
C0C0018180
C0C0018180
C0E0038180
C060030180
E070070380
7FF80FFF00
7FFE3FFF00
7FFFFFFF00
FFF1C7FF80
DFF007FD80
DFF007FD80
CFF007F980
C7F007F180
63F007E300
70F80F8700
3FFFFFFE00
0F87F0F800
ENDCHAR
STARTCHAR F016
ENCODING 61462
SWIDTH 990 0
DWIDTH 33 0
BBX 33 33 0 0
BITMAP
7FFC000000
FFFC000000
FFF8000000
FFF0000000
FFE0000000
FFC0000000
E784000000
C30C000000
C01C3FFF00
E03C7FFF80
F07C7FFF80
F8FC7FFF80
FFFC000000
FFFC000000
0000000000
0000000000
0000000000
0000000000
0000000000
FFFC000000
FFF8000000
FFF0000000
FFE0000000
FFC0000000
FF80000000
C7047FFF00
C20C7FFF80
C01C7FFF80
E03C7FFF00
F07C000000
F8FC000000
FFFC000000
7FFC000000
ENDCHAR
STARTCHAR F017
ENCODING 61463
SWIDTH 990 0
DWIDTH 33 0
BBX 33 33 0 0
BITMAP
0007F00000
003FFE0000
00FFFF8000
03FFFFE000
07FC1FF000
0FF80FF800
1F9C1CFC00
1F0C187C00
3E0C19BE00
3C00039E00
7C00071F00
7E000E3F00
FF803CFF00
F38078EF80
F000F80780
F001F00780
F003E00780
F001C00780
F000800780
F38000EF80
FF8000FF80
7E00003F00
7C00001F00
3C00001E00
3E0C183E00
1F0C187C00
1F9C1CFC00
0FF80FF800
07FC1FF000
03FFFFE000
00FFFF8000
003FFE0000
0007F00000
ENDCHAR
STARTCHAR F018
ENCODING 61464
SWIDTH 990 0
DWIDTH 33 0
BBX 33 33 0 0
BITMAP
003FFE0000
07FFFFF000
1FFFFFFC00
3FFFFFFE00
3FFFFFFE00
1FFFFFFC00
07FFFFF000
00FFFF8000
3000000600
9F00007C00
87FFFFF800
C0FFFF8000
F000000200
7E00003380
3FFFFFE380
07FFFF0780
0000000F80
1000007F80
23F8FFFE00
307FFFF800
3800FC0000
3F00000600
8FFC07F800
83FFFFE000
E00FF80000
F800000800
7FE007F200
0FFFFF8200
007FF00E00
2000003E00
1F0007FC00
07FFFFF000
003FFE0000
ENDCHAR
STARTCHAR F019
ENCODING 61465
SWIDTH 990 0
DWIDTH 33 0
BBX 33 33 0 0
BITMAP
FFFC1FFF80
FFFC1FFF80
FFFC1FFF80
FFFC1FFF80
FFFC1FFF80
FFFC1FFF80
FFFC1FFF80
FFFC1FFF80
FFFC1FFF80
FFFC1FFF80
FFFC1FFF80
FFFC1FFF80
FFFC1FFF80
FFFC1FFF80
0000000000
0000000000
0000000000
0000000000
0000000000
FFFC1FFF80
FFFC1FFF80
FFFC1FFF80
FFFC1FFF80
FFFC1FFF80
FFFC1FFF80
FFFC1FFF80
FFFC1FFF80
FFFC1FFF80
FFFC1FFF80
FFFC1FFF80
FFFC1FFF80
FFFC1FFF80
FFFC1FFF80
ENDCHAR
STARTCHAR F01A
ENCODING 61466
SWIDTH 990 0
DWIDTH 33 0
BBX 33 33 0 0
BITMAP
3FFFFFFE00
7FFFFFFF00
FFFFFFFF80
FFFFFFFF80
FFFFFFFF80
FFFFFFFF80
FE00003F80
FC00001F80
FC00001F80
FC00001F80
0000001F80
0000001F80
7800001F80
FC00001F80
FC00001F80
FC00001F80
FC00001F80
FC00001F80
FC00001F80
FC00001F80
FC00001F80
FC00001F80
FC00001F80
FC00001F80
FC00001F80
FC00001F80
FE00003F80
FFFC7FFF80
FFFCFFFF80
FFFCFFFF80
FFFCFFFF80
7FFCFFFF00
3FFC7FFE00
ENDCHAR
STARTCHAR F01B
ENCODING 61467
SWIDTH 990 0
DWIDTH 33 0
BBX 33 33 0 0
BITMAP
0007F00000
003FFE0000
00FFFF8000
03FFFFE000
07FD5FF000
0FE047F800
1F8040FC00
1F0001FC00
3F003FFE00
3F803FFE00
7F801FFF00
7C001F7F00
F800793F00
F80079CF80
F800388780
F800000780
F800010780
FC003F0780
FC007F8780
F000FFFF80
F801FFFF80
7801FFFF00
7C03FFFF00
3C03FFFE00
3E03FFFE00
1F01FFFC00
1F81FFFC00
0FE0FFF800
07F81FF000
03FFFFE000
00FFFF8000
003FFE0000
0007F00000
ENDCHAR
STARTCHAR F01C
ENCODING 61468
SWIDTH 990 0
DWIDTH 33 0
BBX 33 33 0 0
BITMAP
0006700000
003E7E0000
00FE7F8000
01FCFFE000
007CFFF000
0C3CFFF800
1F00FFFC00
1E00FFFC00
00003FFC00
03C007F800
7FE080E100
7FE0780300
FFF83F0180
7FF91F8180
3FF38F8080
01F3C78000
80F3E39E00
C0F3F31F00
C0F3F13F80
E071F83F80
F000FC7F80
7F00FC3F00
7FC0180000
3FC0000000
3FE0C00E00
1FF1F83C00
1FF9F83C00
0FFCF91800
07FCF99000
03FCF98000
00FE798000
003E780000
000E780000
ENDCHAR
STARTCHAR F01D
ENCODING 61469
SWIDTH 990 0
DWIDTH 33 0
BBX 33 31 0 1
BITMAP
0004100000
000C180000
031C1C6000
0000000000
0000000000
0000000000
0000000000
387C1F0E00
787C1F0F00
787C1F0F00
707C1F0700
F0FC1F8780
F0FC1F8780
0000000000
0000000000
0000000000
0000000000
0000000000
F0FC1F8780
F0FC1F8780
707C1F0F00
787C1F0F00
787C1F0F00
387C1F0E00
0000000000
0000000000
0000000000
0000000000
031C1C6000
010C180000
0004100000
ENDCHAR
STARTCHAR F01E
ENCODING 61470
SWIDTH 990 0
DWIDTH 33 0
BBX 33 33 0 0
BITMAP
07C001F000
1FE003FC00
3FF007FE00
3FF007FE00
3FF007FE00
3FF007FE00
3FF007FE00
3FF007FE00
1FF007FC00
1FE003FC00
0FC001F800
078000F000
3FF007FE00
7FFC1FFF00
FFFC1FFF80
FFFC1FFF80
0000000000
0000000000
0000000000
0F00007800
0F00007800
0F00007800
0F00007800
0F00007800
0F00007800
0F00007800
0F00007800
0F00007800
0F0000F800
0FFFFFF800
0FFFFFF800
07FFFFF000
03FFFFE000
ENDCHAR
STARTCHAR F01F
ENCODING 61471
SWIDTH 990 0
DWIDTH 33 0
BBX 33 33 0 0
BITMAP
0007180000
000F9F0000
00CF8FC000
03CF01E000
07C000F800
0F00007800
1C00003C00
1800001E00
3007000F00
300F800F00
600F800F00
600F800780
C00F800780
C00F800780
C00F800780
C00F800780
C00F800F80
C00F800F80
C00F801F00
E00F801F00
E00F803E00
600F807E00
700F807C00
7807807800
3803007000
1C00006000
1F00004000
0F80060000
07F03E0000
03FFFE0000
00FFFE0000
003FFE0000
000FF00000
ENDCHAR
STARTCHAR F020
ENCODING 61472
SWIDTH 990 0
DWIDTH 33 0
BBX 33 33 0 0
BITMAP
FFFFFFFF80
7FFFFFFF80
3FFFFFFF80
1FFFFFFF80
0FFFFFFF80
07FFFFFF80
03FFFFFF80
01FFFFFF80
000000FF80
0000007F80
0000007F80
0100007F80
0300007F80
0700007F80
0F00007F80
1F00007F80
3F00007F80
7F00007F80
FF00007F80
FF00007F80
FF00007F80
FF00007F80
FF00007F80
FF00007F80
FF80007F80
FFFFFC7F80
FFFFF83F80
FFFFF01F80
FFFFE00F80
FFFFC00780
FFFF800380
FFFF000180
FFFE000080
ENDCHAR
STARTCHAR F021
ENCODING 61473
SWIDTH 990 0
DWIDTH 33 0
BBX 33 33 0 0
BITMAP
7FFC7FF000
FFFC7FC000
FFFCFF8000
FFFCFE0000
FFFCFC2000
FFFCF8C000
FFFC71C000
FFFC63C000
00000FC000
00001FC000
7E0F3FC000
FF3E7FC000
FF3CFFC000
FF38FFE000
FF31FFE000
FF33FFF000
FF23FDF000
FF23FDF800
FF27F9FC00
FF07F1FE00
7E07E1FF00
000FE1FF00
000FC0FF80
FFCFC0FF80
FFCFC07F80
FFC7C03F80
FFE7C01F80
FFE7C01F00
FFE7C01F00
FFF3C01E00
FFF1E01C00
FFF8E03800
7FFC302000
ENDCHAR
STARTCHAR F022
ENCODING 61474
SWIDTH 990 0
DWIDTH 33 0
BBX 33 33 0 0
BITMAP
01E0000000
03F0000000
07F8000000
0FFC000000
1F3E000000
3E1F000000
7C0F800000
F807C00000
F003C00000
F001E00000
F008400000
781C000000
3C3E000000
1E1F000000
0F1FC10000
078FE3C000
03C7F1E000
01E3F8F000
0041FC7800
0000FC3C00
00007E1E00
00003C0F00
0001080F80
0003C00780
0001E00780
0001F00F80
0000F81F00
00007C3E00
00003E7C00
00001FF800
00000FF000
000007E000
000003C000
ENDCHAR
STARTCHAR F023
ENCODING 61475
SWIDTH 990 0
DWIDTH 33 0
BBX 33 33 0 0
BITMAP
3FFFFFFE00
7FFFFFFF00
FFFFFFFF80
FFFFFFFF80
F800000F80
F000000780
F1FFFFC780
F3FFFFE780
F39FFFE780
F30FFFE780
F30E00E780
F38C006780
F3FFFFE780
F3FFFFC780
F000000780
F000000780
F000000780
F000000780
F000000780
F1FFFFC780
F3FFFFE780
F38FFFE780
F30FFFE780
F30C006780
F39E00E780
F3FFFFE780
F1FFFFC780
F000000780
F800000F80
FFFFFFFF80
FFFFFFFF80
7FFFFFFF00
3FFFFFFE00
ENDCHAR
STARTCHAR F024
ENCODING 61476
SWIDTH 990 0
DWIDTH 33 0
BBX 33 31 0 0
BITMAP
3FFFFFFE00
7FFFFFFF00
FFFFFFFF80
FFFFFFFF80
F800000F80
F000000780
F187FFC780
F3CFFFE780
F3C0000780
F3C0000F80
FFFFFFFF80
FFFFFFFF80
FC00001F80
F000000780
F007FFC780
F3CFFFE780
F3C7FFC780
F3C0000780
FBC0001F80
FFFFFFFF80
FFFFFFFF80
F800000F80
F000000780
F1CFFFE780
F3C7FFE780
F3C0000780
FBC0000F80
FFFFFFFF80
FFFFFFFF80
7FFFFFFF00
3FFFFFFE00
ENDCHAR
STARTCHAR F025
ENCODING 61477
SWIDTH 990 0
DWIDTH 33 0
BBX 33 33 0 0
BITMAP
3FFFFFFE00
7FFFFFFF00
FFFFFFFF80
FFFFFFFF80
F9F8000F80
F0F8000780
F0F0000780
F8F8000F80
FFFFFFFF80
FFFFFFFF80
7FFFFFFF00
3FFFFFFE00
0003E00000
0003E00000
0003E00000
0003E00000
0003FFFE00
FFFFFFFF80
FFFFFFFF80
FFFFFFFF80
7FFFFFFF00
0000000000
0000000000
0000000000
0000000000
007FFF0000
03FFFFE000
07FFFFF000
0FFFFFF800
0FFFFFF800
07FFFFF000
01FFFFC000
001FFC0000
ENDCHAR
STARTCHAR F026
ENCODING 61478
SWIDTH 990 0
DWIDTH 33 0
BBX 21 33 6 0
BITMAP
7FFFF0
FFFFF8
C00018
C00018
C00018
C00018
FFFFF8
FFFFF8
E00038
C00018
C00018
C00018
FFFFF8
FFFFF8
E00038
C00018
C00018
C00018
E00038
FFFFF8
FFFFF8
FFFFF8
FFFFF8
FFFFF8
FFFFF8
FF8FF8
FF07F8
FF8FF8
FF8FF8
FFFFF8
FFFFF8
FFFFF8
7FFFF0
ENDCHAR
STARTCHAR F027
ENCODING 61479
SWIDTH 990 0
DWIDTH 33 0
BBX 33 33 0 0
BITMAP
7FFC1FFF00
FFFC1FFF80
C00C180180
C00C180180
C00C180180
C00C180180
FFFC1FFF80
FFFC1FFF80
E00C180380
C00C180180
C00C180180
C00C180180
FFFC1FFF80
FFFC1FFF80
E01C1C0380
C00C180180
C00C180180
C00C180180
E01C1C0380
FFFC1FFF80
FFFC1FFF80
FFFC1FFF80
FFFC1FFF80
FFFC1FFF80
FFFC1FFF80
E3FC18FF80
C3FC187F80
C3FC187F80
E7FC1CFF80
FFFC1FFF80
FFFC1FFF80
FFFC1FFF80
7FFC1FFF00
ENDCHAR
STARTCHAR F028
ENCODING 61480
SWIDTH 990 0
DWIDTH 33 0
BBX 33 25 0 4
BITMAP
3FFFFFFE00
1FFFFFFC00
8FFFFFF880
C7FFFFF180
E3FFFFE380
F1FFFFC780
F8FFFF8F80
FC7FFF3F80
FE3FFE7F80
FF1FFCFF80
FF8FF9FF80
FFC7F3FF80
FFF3E7FF80
FFE1C1FF80
FFCC88FF80
FF9E1C7F80
FF3F7E3F80
FE7FFF1F80
F8FFFF8F80
F1FFFFC780
E3FFFFE380
C7FFFFF180
8FFFFFF880
1FFFFFFC00
3FFFFFFE00
ENDCHAR
STARTCHAR F029
ENCODING 61481
SWIDTH 990 0
DWIDTH 33 0
BBX 33 33 0 0
BITMAP
3FF8000000
7FFC000000
7FFE0FFE00
FFFE1FFE00
00003FFF00
00003FFF80
7FFFFFFF80
FFFFFFFF80
FFFFFFFF80
FFFFFFFF80
FFBFF83F80
FF1FF81F80
FE0FF81F80
FC07F81F80
F803E00780
F003E00780
FC03F00F80
FC0FF01F80
FC0FF83F80
FC0FFC7F80
FE0FFEFF80
FFFFFFFF80
FFFFFFFF80
7FFFFFFF00
1FFFFFFC00
0003E00000
0003E00000
0003E00000
0003E00000
007FFF0000
00FFFF8000
00FFFF8000
007FFF0000
ENDCHAR
STARTCHAR F02A
ENCODING 61482
SWIDTH 990 0
DWIDTH 33 0
BBX 29 33 2 0
BITMAP
3FFFFFE0
7FFFFFF0
FFFFFFF8
FFFFFFF8
FFF07FF8
FF800FF8
FF0007F8
FE0003F8
FC0001F8
F80000F8
F80200F8
F80F80F8
F01FC078
F03FE078
F03FE078
F03FE078
F01FC078
F80F80F8
F80200F8
F80001F8
FC0001F8
F80000F8
F0000078
F0000078
F0000078
F0000078
F0000078
F80000F8
FC0001F8
FFFFFFF8
FFFFFFF8
7FFFFFF0
3FFFFFE0
ENDCHAR
STARTCHAR F02B
ENCODING 61483
SWIDTH 990 0
DWIDTH 33 0
BBX 33 33 0 1
BITMAP
0001C00000
0003E00000
0007F00000
000FF80000
001FFC0000
003F7E0000
007E3F0000
00FC1F8000
01F80FC000
03F007E000
07E003F000
0FC001F800
1F8000FC00
3F00007E00
7F00007F00
FF00007F80
FF00007F80
FF00007F80
0F00007800
0F00007800
0F00007800
0F00007800
0F00007800
0F00007800
0F00007800
0F00007800
0F00007800
0F00007800
0F00007800
0FFFFFF800
0FFFFFF800
0FFFFFF800
07FFFFF000
ENDCHAR
STARTCHAR F02C
ENCODING 61484
SWIDTH 990 0
DWIDTH 33 0
BBX 31 33 2 0
BITMAP
0CC44660
0CCE6660
0CCE6660
0CCE6660
0CCE6660
0CCE6660
00000000
00000000
1FFFFFF0
7FFFFFFC
FFFFFFFE
FFFFFFFE
E0E0E00E
C0C06006
CCCE6666
CCCE6666
CCCE6666
C3C06666
C1C06666
CCCE6666
FEEEEEFE
FFFFFFFE
FFFFFFFE
7FFFFFFC
1FFFFFF0
00000000
00000000
0CCE6660
0CCE6660
0CCE6660
0CCE6660
0CCE6660
0CC44660
ENDCHAR
STARTCHAR F02D
ENCODING 61485
SWIDTH 990 0
DWIDTH 33 0
BBX 33 33 0 0
BITMAP
00FFFF8000
3FFFFFFE00
FFFFFFFF80
FFFFFFFF80
FFC001FF80
F800000F80
F000000780
F000000780
F000000780
F000000780
F000000780
F000000780
F000000780
F000000780
7800000F00
7800000F00
7800000F00
7800000F00
7C00001F00
3C00001E00
3E00003E00
1E00007C00
1F00007C00
0FC001F800
07E003F000
03F007E000
01FC1FC000
00FF7F8000
007FFF0000
003FFE0000
000FF80000
0003E00000
0001800000
ENDCHAR
STARTCHAR F02E
ENCODING 61486
SWIDTH 990 0
DWIDTH 33 0
BBX 33 33 0 0
BITMAP
0000800000
E003E00380
FFFFFFFF80
FFFFFFFF80
FFFFFFFF80
F7FEFFFF80
F000FFFF80
F000FFFF80
F000FFFF80
F000FFFF80
F000FFFF80
F000FFFF80
F000FFFF80
7800FFFF00
7800FFFF00
7800FFFF00
7800FFFF00
3C00FFFE00
3C00FFFE00
3E00FFFE00
1E00FFFC00
1F00FFFC00
0F80FFF800
07C0FFF000
07E0FFF000
03F0FFE000
01FCFFC000
00FFFF8000
007FFF0000
001FFC0000
000FF80000
0003E00000
0000800000
ENDCHAR
STARTCHAR F02F
ENCODING 61487
SWIDTH 990 0
DWIDTH 33 0
BBX 33 33 0 0
BITMAP
0007F00000
000FF80000
000FF80000
000FF80000
000FF80000
000FF80000
000FF80000
000FF80000
000FF8FC00
000FF9FE00
000FF9FE00
000FF9FE00
000FF9FE00
000FF9FE00
000FF9FE00
000FF9FE00
0F0FF9FE00
3FCFF9FE00
3FCFF9FE00
3FCFF9FE00
3FCFF9FE00
3FCFF9FE00
3FCFF9FE00
3FCFF9FE00
3FCFF9FE00
3FCFF9FE00
3FCFF9FE00
3FCFF9FE00
3FCFF9FE00
7FFFFFFF00
FFFFFFFF80
FFFFFFFF80
7FFFFFFF00
ENDCHAR
STARTCHAR F030
ENCODING 61488
SWIDTH 990 0
DWIDTH 33 0
BBX 33 33 0 1
BITMAP
1FC0000000
3FC0000000
3FC0000000
3FC0000000
3FC7F00000
3FCFF00000
3FCFF80000
3FCFF80000
3FCFF8FC00
3FCFF9FE00
3FCFE1FE00
3FCF007E00
3FCC1C1E00
3FC8FF8E00
3FC1F7C600
3FC380E200
3FC7007200
3FC6003200
3FC6003800
3FCE001800
3FCC001800
3FCC001800
3FC6001800
3FC6003000
3FC7007000
3FC380F800
3FC1E3FC00
3FC8FFFE00
3FCC3E7F00
7FFE003F80
FFFFC01F80
FFFFFE0F00
7FFFFC0600
ENDCHAR
STARTCHAR F031
ENCODING 61489
SWIDTH 990 0
DWIDTH 33 0
BBX 33 27 0 2
BITMAP
0003F00000
001FFC0000
007C1F0000
00E0078000
01C0E1C000
0381F0E000
0301F06000
0603F87000
0601F03000
0E01F03000
0C80003800
0FF001FC00
1FFC03FE00
3FFE07FF00
7FFE07FF80
7FFF07FF80
FFFF07FF80
FFFF07FF80
FFFF07FF80
FFFF07FF00
FFFF03FF00
FFFF07FE00
7FFF1F7800
7FFFFC0000
3FFFF00000
0FF8000000
03E0000000
ENDCHAR
STARTCHAR F032
ENCODING 61490
SWIDTH 990 0
DWIDTH 33 0
BBX 33 33 0 0
BITMAP
7FFC000000
FFFE000000
FFFF000000
FFFF800000
FE3FC00000
F81FE00000
F80FF00000
F00FF80000
F00FFC0000
F00FFE0000
F80FFF0000
FC1FFF8000
FFFFFFC000
FFFFFFE000
7FFFFFF000
3FFFFFF800
1FFFFFFC00
0FFFFFFE00
07FFFFFF00
03FFFFFF80
01FFFFFF80
00FFFFFF80
007FFFFF00
003FFFFE00
001FFFFC00
000FFFF800
0007FFF000
0003FFE000
0001FFC000
0000FF8000
00007F0000
00003E0000
00001C0000
ENDCHAR
STARTCHAR F033
ENCODING 61491
SWIDTH 990 0
DWIDTH 33 0
BBX 33 33 0 0
BITMAP
7FC7FFFF00
FFCFFFFF80
FFCFFFFF80
FFCFFFFF80
FFCFFFFF80
FFCFFFFF80
FFCFFFFF80
FFCFFFFF80
FFCFFFFF80
FFC7FFFF80
FFC0000000
FFC0000000
FFC3FFFF00
FFC7FFFF80
FFCFFFFF80
FFCFFFFF80
FFCFC00F80
FFCF800780
FFCF800780
FFCF800780
FFCF800780
FFCF800780
FFCF800780
FFCF800780
FFCF800780
FFCF800780
FFCF800780
FFCF800780
FFCF800780
FFCFFFFF80
FFCFFFFF80
FFCFFFFF80
7FC7FFFF00
ENDCHAR
STARTCHAR F034
ENCODING 61492
SWIDTH 990 0
DWIDTH 33 0
BBX 33 33 0 0
BITMAP
2000038000
78000F0000
FE001E0000
7F003C0000
7F00780000
3F00780000
3F00780000
1F80780000
01C0F80080
00E0780180
00707C0380
00387E0F00
001C7FFF00
000EFFFE00
0007FFFC00
0003FFF800
000FFE0000
001FFE0000
003FFF8000
00FFFFE000
01FFFFF000
03FFFFF800
0FFFFFFC00
1FFC3FFE00
3FFC3FFF00
7FF81FFF00
FFF01FFF80
E3E00FFF80
C3C007FF80
C3C003FF80
E78001FF00
7F0000FF00
3E00003C00
ENDCHAR
STARTCHAR F035
ENCODING 61493
SWIDTH 990 0
DWIDTH 33 0
BBX 33 33 0 0
BITMAP
0000003F80
0000007F80
0000007F80
0000007F80
000001F800
00003FF800
000FFFF000
03FFFFF000
7FFFFFF000
FFFFFFF000
FFFFFFE000
FFFFFFE000
7FFFFFE000
7FFFFFE000
7FFFFFE000
7FFFFFC000
3FFFFFC000
3FFFFFC000
3FFFFFC000
1FFFFFC000
1FFFFF8000
1FFFFF8000
1FFFFF8000
0FFFFF8000
07FFFF0000
0000000000
0000000000
00E03C0000
01F07E0000
03F87E0000
01F87E0000
01F07E0000
00E03C0000
ENDCHAR
STARTCHAR F036
ENCODING 61494
SWIDTH 990 0
DWIDTH 33 0
BBX 33 33 0 -1
BITMAP
3FF8000000
7FFC000000
7FFE0FFE00
FFFE1FFE00
00003FFF00
00003FFF80
7FFFFFFF80
FFFFFFFF80
FFFFFFFF80
FFFFFFFF80
FFFFFFFF80
FFFBEFFF80
FFE1C3FF80
FFC1C0FF80
FF00007F80
FE1C1C3F80
FF3E3E7F80
FF1E3C7F80
FF9FFCFF80
FF0FF87F80
F01FFC0780
F01FFC0780
F3FE3FE780
73FC1FE700
13FE3FE400
01FF7FC000
001FFC0000
000FF80000
000FF80000
001FFC0000
003E3E0000
003C1E0000
000C180000
ENDCHAR
STARTCHAR F037
ENCODING 61495
SWIDTH 990 0
DWIDTH 33 0
BBX 33 33 0 0
BITMAP
0001C00000
0003C00000
0003E00000
0003E00000
3FFFFFFE00
7FFFFFFF00
FFFFFFFF80
FFFFFFFF80
F9FC000F80
F0F8000780
F0F0000780
F0F8000F80
FFFFFFFF80
FFFFFFFF80
7FFFFFFF00
7FFFFFFF00
0FFFE00000
0003E00000
0003E00000
0003E00000
0003E00000
3FFFFFFE00
7FFFFFFF00
FFFFFFFF80
FFFFFFFF80
F8F8000F80
F0F0000780
F0F0000780
F9F8000F80
FFFFFFFF80
FFFFFFFF80
7FFFFFFF00
3FFFFFFE00
ENDCHAR
STARTCHAR F038
ENCODING 61496
SWIDTH 990 0
DWIDTH 33 0
BBX 33 32 0 0
BITMAP
0001C00000
0001C00000
0003E00000
0063E30000
00FFFF8000
00FFFF8000
007FFF0000
007E3F0000
007C1F0000
03F80FE000
07F007F000
07F007F000
07F80FF000
00780F0000
007C1F0000
007FFF0000
007FFF0000
00FFFF8000
00FFFF8000
0023E20000
0003E00000
0001C00000
0000800000
0000000000
3FFFFFFE00
7FFFFFFF00
F8F8000F80
F0F0000780
F0F0000780
F9F8000F80
7FFFFFFF00
3FFFFFFE00
ENDCHAR
STARTCHAR F039
ENCODING 61497
SWIDTH 990 0
DWIDTH 33 0
BBX 33 31 0 1
BITMAP
C000000000
E000000000
FC00000000
FFF8000000
FFFFE00000
F7FFFC0000
F7FFFF0000
F3FFFF8000
F9FFFFC000
F8FFFFC000
FE3FFFE000
7F0FFFF000
7F83FFF000
7FC0FFF000
7FF03FF800
3FFC0FF800
3FFF83F800
1FFFE0F800
1FFFF83800
0FFFFE1000
0FFFFF0000
07FFFFC000
03FFFFE000
00FFFFF800
007FFFFC00
003FFF7E00
000FFC3F00
0001F03F80
0000001F00
0000001E00
0000000C00
ENDCHAR
STARTCHAR F03A
ENCODING 61498
SWIDTH 990 0
DWIDTH 33 0
BBX 33 33 0 0
BITMAP
0001C00000
0001C00000
0007E00000
001FFC0000
003FFE0000
007FFF0000
007BEF0000
00FBEF8000
00F3E78000
00FBE70000
007FE00000
007FE00000
003FF80000
000FFE0000
0003FF0000
0003EF0000
0073EF8000
00F3E78000
00FBEF8000
007BEF0000
007FFF0000
003FFE0000
000FF80000
0003E00000
0003E00000
3FFFFFFE00
7FFFFFFF00
F8F8000F80
F0F0000780
F0F0000780
F9F8000F80
7FFFFFFF00
3FFFFFFE00
ENDCHAR
STARTCHAR F03B
ENCODING 61499
SWIDTH 990 0
DWIDTH 33 0
BBX 33 33 0 0
BITMAP
007F000000
03FFE00000
0FFFF00000
1FFFFC0000
3FFFFE0000
7FFFFE0000
7FFFFF0000
FFFFFF0000
FFFFFF8000
FFFFFF8000
FFFFFF8000
FFFFFF8000
FFFFFF0000
7FFFFF0800
7FFFF81800
3FFF003800
3FFC007800
1FF83FF800
0FF0FFF800
0FF1FFFE00
0F23FFFE00
0E07FFFF00
0C07FFFF80
0C0FFFFF80
000FFFFF80
000FFFFF80
0007FFFF80
0007FFFF00
0007FFFF00
0003FFFE00
0001FFFC00
00007FF800
00001FC000
ENDCHAR
STARTCHAR F03C
ENCODING 61500
SWIDTH 990 0
DWIDTH 33 0
BBX 33 33 0 0
BITMAP
7000000000
F800001800
FC00001800
7E0000FF00
3F00007E00
1F00003C00
0F00003C00
0700006400
0060000000
00F8000000
00FC000000
007E000000
007F000000
043F800000
0C1FC00000
7F8FE00000
3F07F00000
1E03F80000
1E01FC0000
1B00FE0000
00007F0000
00003F8000
00001FC000
00000FE000
000007F000
000403F800
000401FC00
000E007E00
003F803F00
001F001F00
001F000F80
001F000780
0011000300
ENDCHAR
STARTCHAR F03D
ENCODING 61501
SWIDTH 990 0
DWIDTH 33 0
BBX 33 31 0 0
BITMAP
FC00001F80
FC00001F80
CFFFFFF980
CFFFFFF980
FC00001F80
FC00001F80
CC00001980
CC00001980
FC00001F80
FC00001F80
CC08001980
CC0C001980
FC0F001F80
FC0F801F80
CC0FE01980
CC0FF81980
CC0FE01980
FC0F801F80
FC0F001F80
CC0C001980
CC08001980
FC00001F80
FC00001F80
CC00001980
CC00001980
FC00001F80
FC00001F80
CFFFFFF980
CFFFFFF980
FC00001F80
FC00001F80
ENDCHAR
STARTCHAR F03E
ENCODING 61502
SWIDTH 990 0
DWIDTH 33 0
BBX 33 33 0 0
BITMAP
7FFFFFFF00
FFFFFFFF80
C000000180
C000000180
CC00000180
CC00000180
CC00000180
CC00000180
CC00000180
CC00000180
C000000180
C000000180
FFFFFFFF80
FFFFFFFF80
0000000000
0000000000
0000000000
0000000000
0000000000
FFFFFFFF80
FFFFFFFF80
C000000180
C000000180
C000000180
C000000180
C71C71C180
CF3C79E180
CF3C79E180
C61C70C180
C000000180
C000000180
FFFFFFFF80
7FFFFFFF00
ENDCHAR
STARTCHAR F03F
ENCODING 61503
SWIDTH 990 0
DWIDTH 33 0
BBX 31 29 2 -1
BITMAP
1FFFFFF0
7FFFFFFC
FFFFFFFE
FFFFFFFE
E000000E
C0000006
C71C71C6
CF3E79E6
CF3E79E6
CF3E79E6
CF3E79E6
C0000006
C0000006
CF3E79E6
CF3E79E6
CF3E79E6
CF3E79E6
CF3E79E6
CF3E79E6
C0000006
C0000006
CF3E79E6
CF1C71E6
C0000006
E000000E
FFFFFFFE
FFFFFFFE
7FFFFFFC
3FFFFFF8
ENDCHAR
STARTCHAR F040
ENCODING 61504
SWIDTH 990 0
DWIDTH 33 0
BBX 33 25 0 4
BITMAP
7FFFFFFF00
FFFFFFFF80
FFFFFFFF80
FFFFFFFF80
FE1FF80380
F807F80180
F803FFFF80
F003FFFF80
F003FFFF80
F003FFFF80
F003FC3F80
F003F81F80
F803FC3F80
F807FFFF80
FC07FFFF80
FE1FFFFF80
F803FFFF80
E001F80180
C000F80380
C000FFFF80
F001FFFF80
FFFFFFFF80
FFFFFFFF80
FFFFFFFF80
7FFFFFFF00
ENDCHAR
STARTCHAR F041
ENCODING 61505
SWIDTH 990 0
DWIDTH 33 0
BBX 33 33 0 0
BITMAP
3FFFFFFE00
7FFFFFFF00
F000000780
E000000380
C000000180
C000000180
C070000180
C0F8000180
C1F8000180
C0F8000180
C0F0000180
C0F0000180
C0F8000380
E0F8300F80
FFFFF81F80
FFFFF83F80
FFFFFC7F80
FFFFF83F80
FFFFF81F80
FFFFF81F80
FFFFF81F80
FFFFF83F80
FFFFFE7F80
FFFFFFFF80
FFFFFFFF80
FFFFFFFF80
FFFFFFFF80
FFFFFFFF80
FFFFFFFF80
FFFFFFFF80
FFFFFFFF80
7FFFFFFF00
3FFFFFFE00
ENDCHAR
STARTCHAR F042
ENCODING 61506
SWIDTH 990 0
DWIDTH 33 0
BBX 33 33 0 0
BITMAP
000FF00000
003FFE0000
00FFFF8000
03FFFFE000
87FC1FF000
CFE003F800
FF8000FC00
FF00007C00
FE07F03E00
FC0FFC1E00
FE1C1C1F00
FF380E0F00
0030060F80
0030060780
0030060780
0030060780
F0380E0780
F03FFE0000
F03FFE0000
F030060000
7830060000
7830067F80
7C30063F80
3C30061F80
3E10043F80
1F00007F80
1F8000FF80
0FE003F980
07FC0FF080
03FFFFE000
00FFFF8000
003FFE0000
0007F80000
ENDCHAR
STARTCHAR F043
ENCODING 61507
SWIDTH 990 0
DWIDTH 33 0
BBX 33 33 0 0
BITMAP
3FFFFFFE00
7FFFFFFF00
FFFFFFFF80
FFFFFFFF80
FFE0000F80
FFE0000780
FFF0000780
FFF8000780
FFFC000780
FFFE000780
FFFC000780
FFF0000780
FFE0000780
FFC0000780
FF80000780
FF00000780
FE00000780
FC00000780
FC003F0780
F801FF8780
F807FFC780
F80FFFE780
F01FFFFF80
F03FFFFF80
F07FFFFF80
F07FFFFF80
F0FFFFFF80
F0FFFFFF80
F9FFFFFF80
FFFFFFFF80
FFFFFFFF80
7FFFFFFF00
3FFFFFFE00
ENDCHAR
STARTCHAR F044
ENCODING 61508
SWIDTH 990 0
DWIDTH 33 0
BBX 33 33 0 0
BITMAP
007F000F00
03FFC01F80
07FFF01F80
0FFFF81F80
1FC1FC1F80
3F007E1F80
7E003E1F80
7C001F1F80
78000F1E00
F8000F1E00
F0000F9E00
F000079E00
F000079E00
F000079E00
F000079E00
F000079E00
F000079E00
F000079E00
F000079E00
F000079E00
F000079E00
F1FFC79E00
F3FFE79E00
F3FFC79E00
F1FF879E00
F00007FE00
F00007FE00
F00007FE00
F0000FFE00
FFFFFF9E00
FFFFFF9E00
FFFFFF9E00
7FFFFF0C00
ENDCHAR
STARTCHAR F045
ENCODING 61509
SWIDTH 990 0
DWIDTH 33 0
BBX 33 33 0 0
BITMAP
000FF00000
003FFE0000
00FFFF8000
03FFFFE000
07FFFFF000
0FFFFFF800
0FFFFFF800
07FFFFF000
33FFFFE600
39FFFFCE00
7CFFFF9F00
7E7FFF3F00
FF3FFE7F00
FF9FFCFF80
FFCFF9FF80
FFE7F3FF80
FFF3E7FF80
FFE1C3FF80
FFCC89FF80
FF9E1CFF80
FF3F7E7F80
7E7FFF3F00
7CFFFF9F00
39FFFFCE00
33FFFFE600
07FFFFF000
0FFFFFF800
0FFFFFF800
07FFFFF000
03FFFFE000
00FFFF8000
003FFE0000
000FF80000
ENDCHAR
STARTCHAR F046
ENCODING 61510
SWIDTH 990 0
DWIDTH 33 0
BBX 27 33 4 0
BITMAP
3FFFFF80
7FFFFFC0
FFFFFFE0
FFFFFFE0
FFE0FFE0
FFC07FE0
FFC07FE0
FFC07FE0
FFC07FE0
FFC07FE0
FFC07FE0
FFC07FE0
FC0007E0
F00001E0
F00001E0
F00001E0
F3F9F9E0
F3F9F9E0
F3F9F9E0
F3F9F9E0
F3F9F9E0
F3F9F9E0
F3F9F9E0
F3F9F9E0
F3F9F9E0
F3F9F9E0
F1F9F1E0
F00001E0
F80003E0
FFF9FFE0
FFFBFFE0
7FFFFFC0
3FFFFF80
ENDCHAR
STARTCHAR F047
ENCODING 61511
SWIDTH 990 0
DWIDTH 33 0
BBX 33 33 0 0
BITMAP
007FFF0000
0FFFFFF800
7FFFFFFF00
FFFFFFFF80
FFFFFFFF80
7FFFFFFF00
1FFFFFFC00
01FFFFC000
C000000180
FE00003F80
FFFFFFFF80
FFFFFFFF80
FFFFFFFF80
F1FFFFC780
F000000780
F000000780
F003E00780
F007F00780
F00FF00780
F00C000780
F00E000780
F00FF80780
F007F80780
F000180780
F000380780
F007F80780
F007F00780
FC00001F80
FFE003FF80
FFFFFFFF80
7FFFFFFF00
0FFFFFF800
007FFF0000
ENDCHAR
STARTCHAR F048
ENCODING 61512
SWIDTH 990 0
DWIDTH 33 0
BBX 33 33 0 0
BITMAP
007FFF0000
00FFFF8000
01FFFFC000
03FFFFE000
07FE3FF000
0FFC1FF800
1FFC1FFC00
3FFC1FFE00
7FFC1FFF00
FFFC1FFF80
FFFC1FFF80
FFFC1FFF80
FFFC1FFF80
FFFC1FFF80
FFFC1FFF80
FFFC1FFF80
FFFC1FFF80
FFFC1FFF80
FFFC1FFF80
FFFC1FFF80
FFFE3FFF80
FFFFFFFF80
FFFFFFFF80
FFFFFFFF80
7FFFFFFF00
3FFC1FFE00
1FFC1FFC00
0FFC1FF800
07FE3FF000
03FFFFE000
01FFFFC000
00FFFF8000
007FFF0000
ENDCHAR
STARTCHAR F049
ENCODING 61513
SWIDTH 990 0
DWIDTH 33 0
BBX 33 33 0 -1
BITMAP
3FFFFFFE00
9FFFFFFC80
CFFFFFF980
E7FFFFF380
F3FFFFE780
F9FFFFCF80
FCFFFF9F80
FE7FFF3F80
FF3FFE7F80
FF9FFCFF80
FFCFF9FF80
FFE7F3FF80
FFE3E3FF80
FFC1C1FF80
FF8C98FF80
FF1E3C7F80
FE3F7E3F80
FC7FFF1F80
F8FFFF8F80
F1FFFFC780
E3FFF9E380
C7FFF8F180
8FFFF87880
1FF8003C00
3FF0001E00
0030001E00
0038003C00
003FF87800
001FF9F000
00001BC000
00001F8000
00001F0000
00001E0000
ENDCHAR
STARTCHAR F04A
ENCODING 61514
SWIDTH 990 0
DWIDTH 33 0
BBX 33 33 0 0
BITMAP
000FF00000
003FFE0000
00FFFF8000
03FFFFE000
07FFFFF000
0FFFFFF800
1FFE3FFC00
1FFC1FFC00
3FF80FFE00
3FF007FE00
7FF007FF00
7FF80FFF00
FFF80FFF80
FFF80FFF80
FFF80FFF80
FFFC1FFF80
FFFC1FFF80
FFFC1FFF80
FFFC1FFF80
FFFE3FFF80
FFFF7FFF80
7FFFFFFF00
7FFFFFFF00
7FFE3FFE00
3FFC1FFE00
1FFE3FFC00
1FFE3FFC00
0FFFFFF800
07FFFFF000
03FFFFE000
00FFFF8000
003FFE0000
000FF80000
ENDCHAR
STARTCHAR F04B
ENCODING 61515
SWIDTH 990 0
DWIDTH 33 0
BBX 33 33 0 0
BITMAP
3FFFFFFE00
7FFFFFFF00
FFFFFFFF80
FFFFFFFF80
F800000F80
F000000780
F000000780
F000000780
F000000780
F000000780
F000000780
F000000780
F000400780
F000E00780
F000F00780
F038F80780
F078FC0780
F0ECEE0780
F1CEE70780
FF87E3FF80
FE03E0FF80
F001E00780
F001E00780
F000E00780
F000400780
F000000780
F000000780
F000000780
F800000F80
FFFFFFFF80
FFFFFFFF80
7FFFFFFF00
3FFFFFFE00
ENDCHAR
STARTCHAR F04C
ENCODING 61516
SWIDTH 990 0
DWIDTH 33 0
BBX 33 33 0 0
BITMAP
0000000600
0000000E00
0000000E00
0000001E00
0000003E00
0000007E00
0000007E00
000000FE00
000041FE00
0000E3FE00
0000FBFE00
0001FFFE00
0003FFFE00
0007FFFE00
0007FFFE00
000FFFFE00
00DFFFFE00
01FFFFFE00
03FFFFFE00
03FFFFFE00
07FFFFFE00
07FFFFFE00
0FFFFFFE00
0FFFFFFE00
1FFFFFFE00
1FFFFFFE00
3FFFFFFE00
0000000000
0000000000
7FFFFFFF00
FFFFFFFF80
FFFFFFFF80
7FFFFFFF00
ENDCHAR
STARTCHAR F04D
ENCODING 61517
SWIDTH 990 0
DWIDTH 33 0
BBX 33 29 0 2
BITMAP
3FF8000000
7FFC000000
7FFE0FFC00
FFFE1FFE00
00003FFF00
00003FFF80
7FFFFFFF80
FFFFFFFF80
FFFFFFFF80
FFFFFFFF80
FFFF7FFF80
FFFC1FFF80
FFF80FFF80
FFF00FFF80
FFF007FF80
FFF00FFF80
FFF80FFF80
FFFC1FFF80
FFFE3FFF80
FFFE3FFF80
FFFC1FFF80
FFFC1FFF80
FFF80FFF80
FFF80FFF80
FFF00FFF80
FFFFFFFF80
FFFFFFFF80
7FFFFFFF00
3FFFFFFE00
ENDCHAR
STARTCHAR F04E
ENCODING 61518
SWIDTH 990 0
DWIDTH 33 0
BBX 33 27 0 3
BITMAP
0000700000
0000F80000
0000F80000
0000F80000
0001FC0000
0003FE0000
0007870000
000F878000
600F878000
F00F878000
380F800000
3C0F800000
0E03FC0000
0F03FE0000
0701FE0000
03C0078000
03C0078000
0F0F078000
0F0F878000
3C0F878000
3C07870000
F003FE0000
F001FC0000
0000F87F80
0000F87F80
0000F80000
0000700000
ENDCHAR
STARTCHAR F04F
ENCODING 61519
SWIDTH 990 0
DWIDTH 33 0
BBX 25 33 4 0
BITMAP
007F0000
01FFC000
03FFE000
07FFF000
0FC1F800
1F80FC00
1F007C00
1E003C00
3E1C3E00
3DFFDE00
3FFFFE00
3FFFFE00
3FE3FE00
3F087E00
3E1C3E00
7C1C1F00
783E0F00
783E0F00
F87F0F80
F0FF0780
F0FF8780
F0FF8780
F07F0780
F83E0F80
781C0F00
7C001F00
3E003E00
3F007E00
1FC1FC00
0FFFF800
07FFF000
01FFC000
007F0000
ENDCHAR
STARTCHAR F050
ENCODING 61520
SWIDTH 990 0
DWIDTH 33 0
BBX 33 33 0 1
BITMAP
0070000000
00F8000000
00FC380000
007E7E0000
003FFF0000
001FFF8000
000FC7C000
0007C3E000
000FE1F000
001FC0F800
003E007C00
003C003C00
003E201E00
001F701E00
000FF83E00
0007F1FC00
0003E1F800
0007F1F800
000FFBFC00
03DF7FFE00
07FE3FBF00
0FFC1F1F80
1FF8040F80
3E3C000780
7C3C000300
F83C000000
F07C000000
F0F8000000
79F0000000
3FE0000000
1FC0000000
0F80000000
0700000000
ENDCHAR
STARTCHAR F051
ENCODING 61521
SWIDTH 990 0
DWIDTH 33 0
BBX 33 33 0 1
BITMAP
FC00000000
EE00000000
C700000000
E380000000
F1C0000000
38E0000000
3C70000000
0E38000000
0F1C1C0000
0F8FFFC000
01C7FFF000
01E7FFF800
01FFFFFC00
01FFFFFE00
01FFFFFE00
01FFFFFF00
007FFFFF00
007FFFFF80
00FFFFFF80
00FFF07F80
00FFE03F80
00FFE01F80
00FFE01F80
007FE01F80
007FE03F00
007FF03F00
003FF8FF00
003FFFFE00
001FFFFC00
000FFFF800
0007FFF000
0001FFE000
00007F0000
ENDCHAR
STARTCHAR F052
ENCODING 61522
SWIDTH 990 0
DWIDTH 33 0
BBX 33 33 0 0
BITMAP
001FC00000
00FFF80000
03FFFE0000
07FFFF0000
0FF37F8000
1F830FC000
3F001FC000
3F80FFE000
7F80FFF000
7F00FFF000
7C03CCF000
F801CCF800
F801C77800
F000FFF800
F400FFF800
FC01FFFC00
FC03FFFE00
F803E03F00
7807C01F00
7807800F00
7C07800F80
3E0F800780
3F0F800780
1F8F800780
0FF7800780
07FF800F80
03FFC00F00
00FFE01F00
001FF87E00
0001FFFC00
0000FFF800
00007FF000
00000FC000
ENDCHAR
STARTCHAR F053
ENCODING 61523
SWIDTH 990 0
DWIDTH 33 0
BBX 33 33 0 0
BITMAP
000FF00000
003FFE0000
00FFFF8000
03FFFFE000
07FD5FF000
0FE047F800
1F8040FC00
1F0001FC00
3F003FFE00
3F803FFE00
7F801FFF00
7C001F7F00
F800793F80
F80079CF80
F80038C780
F800000780
F80001E780
FC003FFF80
FC007FFF80
F000FE3F80
F801FE1F80
7801FE1F80
7C03FE1F80
7C03E00380
3E03E00180
1F01E00180
1F81F00380
0FE0FE1F80
07F87E1F00
03FFFE1800
00FFFF3800
003FFFF800
000FF7F000
ENDCHAR
STARTCHAR F054
ENCODING 61524
SWIDTH 990 0
DWIDTH 33 0
BBX 33 33 0 0
BITMAP
000FF00000
003FFE0000
00FFFF8000
03FFFFE000
07FD5FF000
0FE047F800
1F8040FC00
1F0001FC00
3F003FFE00
3F803FFE00
7F801FFF00
7C001F7F00
F800793F80
F80079CF80
F80038C780
F800000780
F800010780
FC003FFF80
FC007FFF80
F000FC0F80
F801F00700
7801F3E300
7C03E7F180
7C0381F980
3E0383F980
1F01C3F980
1F81C7F180
0FE0FFF380
07F87FC300
03FFFE0700
00FFFE1E00
003FFFFC00
000FF3F000
ENDCHAR
STARTCHAR F055
ENCODING 61525
SWIDTH 990 0
DWIDTH 33 0
BBX 29 33 2 0
BITMAP
3FFFFFE0
7FFFFFF0
FFFFFFF8
FFFFFFF8
FF801FF8
FF0007F8
FF0003F8
FF0003F8
FF0F81F8
FF0FC1F8
FF0FE1F8
FF0FC1F8
FF0003F8
FF0003F8
FF0007F8
FF000FF8
FF007FF8
FF0FFFF8
FF0FFFF8
FF8FFFF8
FFDFFFF8
FFFFFFF8
FFFFFFF8
E3838038
C3038018
CF339998
CF339998
C3039998
E383BB98
FFFFFFF8
FFFFFFF8
7FFFFFF0
3FFFFFE0
ENDCHAR
STARTCHAR F056
ENCODING 61526
SWIDTH 990 0
DWIDTH 33 0
BBX 33 33 0 0
BITMAP
C000000000
C000000000
C000000000
C000000000
C000000000
C000000000
E000000000
6000000000
6000000000
7200000000
7300000000
3180000000
39C0000000
38E0000000
38F0000000
3C78000000
1C7C000000
1E3E000000
1E1F000000
0F0F800000
0F87C00000
07C3E00000
07E1F00000
03F0F80000
01FC3E0000
00FE1F0000
007F0F8000
003FC3C000
000FF1E000
0007FC7800
0000FFFE00
00001FFF80
000000FF80
ENDCHAR
STARTCHAR F057
ENCODING 61527
SWIDTH 990 0
DWIDTH 33 0
BBX 31 33 0 -1
BITMAP
1FFFE400
3FFFE600
3FFFE700
3FFFE780
3FFFE7C0
3FFFE7E0
3FFFE7F0
3FFFE7F8
3FFFE7FC
3FFFE7FE
3FFFE000
3EFBE000
3870FFFE
20607FFE
02001FFE
07070FFE
0F8F1FFE
078F1FFE
07FE3FFE
03FE1FFE
07FF01FE
07FF01FE
FF8FF9FE
FF0FF9FE
FF0FF9FE
FF9FF1FE
07FF01FE
07FE03FE
07FE3FFE
07FF3FFE
0F8F1FFE
0F0F1FFE
03061FFC
ENDCHAR
STARTCHAR F058
ENCODING 61528
SWIDTH 990 0
DWIDTH 33 0
BBX 25 33 4 0
BITMAP
00410000
00630000
00F78000
10FF8400
0FFFF800
0FFFF800
0FE3F800
0F80F800
3F007E00
7E003F80
7E003F00
3C001E00
1C001C00
3C001E00
7E003F00
FE003F80
1F007C00
0F80F800
0FF7F800
0FFFF800
0FFFF800
01FFC000
01FFC000
01FFC000
03F7E000
03F7E000
03F7E000
07E7F000
07E3F000
07E3F000
0FE3F800
0DC1D800
00C18000
ENDCHAR
STARTCHAR F059
ENCODING 61529
SWIDTH 990 0
DWIDTH 33 0
BBX 21 33 6 0
BITMAP
01FC00
07FF00
0FFF80
1FFFC0
3FFFE0
7FFFF0
7FFFF0
7FFFF0
FFFFF8
FFFFF8
FFFFF8
FFFFF8
FFFFF8
7FFFF0
7FFFF0
3FFFE0
3FFFE0
1FFFC0
0FFF80
07FF00
07FF00
078F00
0F8F80
0F0780
0F0780
0F0780
1F07C0
1F07C0
1E03C0
1E03E0
3E03E0
1E03C0
040100
ENDCHAR
STARTCHAR F05A
ENCODING 61530
SWIDTH 990 0
DWIDTH 33 0
BBX 33 33 0 0
BITMAP
000FF00000
003FFE0000
00FFFF8000
03FFFFE000
07FC1FF000
0FE003F800
1F81C0FC00
1F07E07C00
3E07F03E00
3C0FF81E00
7C0FF81F00
7807F00F00
F807F00F80
F007F00F80
F007F00780
F003E00780
F003E00780
F003E00780
F003E00780
F001C00F80
F800800F80
7800000F00
7C00001F00
7C01C01E00
3E03E03E00
1F01C07C00
1F81C0FC00
0FE003F800
07FC1FF000
03FFFFE000
00FFFF8000
003FFE0000
000FF80000
ENDCHAR
STARTCHAR F05B
ENCODING 61531
SWIDTH 990 0
DWIDTH 33 0
BBX 33 33 0 0
BITMAP
00E0000000
00F8000000
007C000000
003E000000
001F000000
000F000000
000F000000
000F000000
800F000000
C00F000000
E01F000000
783F000000
7FFF000000
3FFF800000
1FFFC00000
0FFFF00000
0007F80000
0003FC0000
0003FE0000
0001FF8000
0000FFC000
00007FE000
00003FF800
00003FFC00
00001FFE00
00000FFF80
000007FF80
000003E380
000003E180
000001E180
000000F380
0000007F80
0000003F00
ENDCHAR
STARTCHAR F05C
ENCODING 61532
SWIDTH 990 0
DWIDTH 33 0
BBX 33 33 0 0
BITMAP
7FFFFFFF00
FFFFFFFF80
FFFFFFFF80
7FFFFFFF00
7FFFFFFF00
3FFFFFFE00
1FFFFFFC00
0FFFFFF800
0FFFFFF000
07FFFFF000
03FFFFE000
01FFFFC000
00FFFF8000
007FFF0000
007FFE0000
003FFE0000
001FFC0000
000FF80000
000FF80000
000FF00000
0007F00000
0007F00000
0007F00000
0007F00000
0007E00000
0003E00000
0003E00000
0003E00000
0003E00000
0003E00000
0003C00000
0001C00000
0001C00000
ENDCHAR
STARTCHAR F05D
ENCODING 61533
SWIDTH 990 0
DWIDTH 33 0
BBX 33 33 0 0
BITMAP
0003E00000
0007F00000
000FF80000
000FF80000
7FCFF9FF00
FFC7F1FF80
FFC7F1FF80
FFC7F1FF80
7FE3E3FF00
3FE3E3FE00
1FC3E1FC00
0F8FF8F800
0F9FFCF000
073FFE7000
0300006000
018000C000
00FFFF8000
00FFFF0000
007FFF0000
003FFE0000
001FFC0000
000FF80000
0007F00000
0007F00000
0007F00000
0003E00000
0003E00000
0003E00000
0003E00000
0003E00000
0003E00000
0001C00000
0001C00000
ENDCHAR
STARTCHAR F05E
ENCODING 61534
SWIDTH 990 0
DWIDTH 33 0
BBX 33 33 0 0
BITMAP
0007F00000
0023E20000
0031C60000
00388E0000
7F3C1E7F00
FF3E3E7F80
FF3E7E7F80
FF3C7E7F80
7F3E3E7F00
3F3C1E7E00
1F388E7C00
0F31C67800
0F23E27000
0707F07000
038000E000
01C001C000
00F0078000
00FFFF0000
007FFF0000
003FFE0000
001FFC0000
000FF80000
0007F00000
0007F00000
0007F00000
0003E00000
0003E00000
0003E00000
0003E00000
0003E00000
0003E00000
0001C00000
0001C00000
ENDCHAR
STARTCHAR F05F
ENCODING 61535
SWIDTH 990 0
DWIDTH 33 0
BBX 33 33 0 0
BITMAP
7FFFFF0000
FFFFFF8000
FFFFFF8000
FFFFFF8000
F8000F8000
F0000F8000
F1BFC78000
F33FC78000
F007E78000
F00FE78000
F207E78000
F203E78000
F2C1E78000
F3E0E78000
F3F0678000
F3F8278000
F3FC078000
F3FE078000
F0FF078000
F000038000
F800018000
FFFFE08000
FFFFF00000
FFFFF9E000
7FFFFDF000
000001F800
000001FC00
000000FE00
0000007F00
0000001F00
0000000F80
0000000780
0000000300
ENDCHAR
STARTCHAR F060
ENCODING 61536
SWIDTH 990 0
DWIDTH 33 0
BBX 33 32 0 1
BITMAP
8000000000
8000000000
4000000000
6000000000
3000000000
1E00000000
0FF0000000
07FFFFFC00
01FFFFFF00
007FFFFF00
0007FFFF80
0000007F80
0000000F80
0000000F80
0000000700
0000000700
0000000E00
0000000E00
0000000C00
0000001800
0000003000
0000002000
0000004000
0000000000
0000000000
0000000000
01E00F0000
03F01F0000
03F01F8000
03F01F8000
01F01F0000
00E00E0000
ENDCHAR
STARTCHAR F061
ENCODING 61537
SWIDTH 990 0
DWIDTH 33 0
BBX 29 33 2 0
BITMAP
003FE000
013FE400
033FE600
073FE700
0F000780
0F000780
0F000780
0F000780
7FFFFFF0
FFFFFFF8
FFFFFFF8
FFFFFFF8
FFFFFFF8
FFFFFFF8
FFFFFFF8
FFFFFFF8
FFFFFFF8
FFF83FF8
FFF83FF8
FFF19FF8
FFF39FF8
FFF383F8
FFF381F8
FFE3F8F8
FFE3F878
FFCFFE78
FFCFFE78
FFCFFE78
FFCFFE78
FFCFFE78
7FC7FE70
0007FC00
0003F800
ENDCHAR
STARTCHAR F062
ENCODING 61538
SWIDTH 990 0
DWIDTH 33 0
BBX 33 33 0 0
BITMAP
3F84019F80
7FCE039F80
E0CF039800
C0CF879800
C00F8F9800
E00FDD9800
7F0EF99F80
3F8E799F80
01CE319800
00CE019800
00CE019800
00CE019800
00CE019800
C0CE019800
FFCE019800
7F86019800
0C00000000
0000000000
0000000000
0007003F80
000F83FF80
000FFFFF80
001FFFFF00
00F8FFE000
1FF87E0000
7FF8F00000
FFFCF80000
FFFFFC0000
71FFFC0000
03FFFE0000
07FFFF0000
0FFFFF8000
0FFFFF8000
ENDCHAR
STARTCHAR F063
ENCODING 61539
SWIDTH 990 0
DWIDTH 33 0
BBX 33 33 0 0
BITMAP
3FFFFFFE00
7FFFFFFF00
FFFFFFFF80
FFFFFFFF80
FFC3FFFF80
FF80FFFF80
FF007E3F80
FE003C0F80
FC00380F80
FC00380780
FC00180780
FC00380780
FE00380F80
FE003C1F80
FF007F7F80
FF80FC0F80
FFFFF80780
FF80F00380
FE00200380
FC00200380
FC00000180
F800000180
F800000180
F000000380
F0000C1F80
F00007FF80
F00007FF80
F8001FFF80
FF80FFFF80
FFFFFFFF80
FFFFFFFF80
7FFFFFFF00
3FFFFFFE00
ENDCHAR
STARTCHAR F064
ENCODING 61540
SWIDTH 990 0
DWIDTH 33 0
BBX 33 33 0 0
BITMAP
000FF83E00
007FFF7F80
03FFFFFF00
07FFFFFC00
0FFFFFF800
1FFFFFF800
1FFFFFFC00
3FFFFFFE00
3FF3FFFE00
3FE3FFFF00
3FE1FFFF00
1FE3FFFF00
0007FFFF80
001FC7FF80
0FFF01FF80
3FFE00FF80
7FFC007F80
FFF8003F80
FFE0001F80
7FC0001F80
1C00001F80
0000001F00
0000001F00
3E00001F00
3E00001E00
1F00001E00
0F80008F80
0FE0038700
07FC0FC000
01FFFFE000
00FFFF8000
003FFF0000
0007F80000
ENDCHAR
STARTCHAR F065
ENCODING 61541
SWIDTH 990 0
DWIDTH 33 0
BBX 33 33 0 0
BITMAP
00001FC000
00007FF800
0001FFFC00
0003FFFE00
0007FFFF00
0007FFFF00
01FFFFFF80
07FFFFFF80
1FFFFFFF80
3FFFFFFF80
7FFFFFFF80
7FFFFFFF00
FFFFFFFF00
FFFFFFFE00
FFFFFFFE00
FFFFFFFE00
FFFFF87E00
7FFFFFDF00
7FFFFFF080
3FFFFFF800
3FFFFFFC00
3FFFFFFC00
3FFFFFFE00
7C3FFFFE00
E03FFFFE00
001FFFFE00
001FFFFC00
000FFFF800
000FFFF000
000FFFE000
000FFF0000
000F800000
001C000000
ENDCHAR
STARTCHAR F066
ENCODING 61542
SWIDTH 990 0
DWIDTH 33 0
BBX 31 33 0 0
BITMAP
0001C000
0001C000
00C1C180
01E1E380
00F3E780
00FFFF80
00FFFF80
00FFFF84
3FFE3FFE
3FF007FE
1FE003FC
0FC001F8
07800000
0F800000
1F000000
FF000000
FF000000
FF000000
0F000000
0F800000
07800000
0FC001F8
1FE003FC
3FF007FE
3FFC3FFE
10FFFF80
007FFF80
00FFFF80
00F3E780
00E3C3C0
00C1C180
0001C000
0001C000
ENDCHAR
STARTCHAR F067
ENCODING 61543
SWIDTH 990 0
DWIDTH 33 0
BBX 33 33 0 0
BITMAP
0003FFF800
001FFFFE00
0038780700
00E03E0300
01803F8180
03001FE180
06003FF980
0C003FFF80
18003FFF80
10007F0380
3000600380
6000E00380
6001E00780
4003F00780
C007F00F80
C00FF80F80
C01FF81F80
E07FF83F80
FBFFFC3F80
FFC7FC7F80
FFC1FEFF80
DFC03FFF80
DFC00FFF80
CFC007FF80
CF800EFF80
C780187F80
C780303F80
C380E01F80
C383C00F80
618F000780
71FE000380
3FFFFFFF80
0FFFFFFF80
ENDCHAR
STARTCHAR F068
ENCODING 61544
SWIDTH 990 0
DWIDTH 33 0
BBX 33 33 0 1
BITMAP
0000700000
0000780000
0000F80000
0000F00000
0000F00000
0000F00000
0180F0C000
03C0F1E000
03C0F1E000
07C1F1F000
0F81E0F800
1F01E07C00
1E01E07E00
3E01E03E00
7C01E01F00
F801E00F80
F003E00780
F803C00F80
7C03C01F00
3E03C03E00
1F03C07C00
1F03C07C00
0F83C0F800
07C7C1F000
03C781E000
03C781E000
018780C000
0007800000
0007800000
0007800000
000F800000
0007000000
0007000000
ENDCHAR
STARTCHAR F069
ENCODING 61545
SWIDTH 990 0
DWIDTH 33 0
BBX 29 33 2 0
BITMAP
FFFFFFF8
FFFFFFF8
FFFFFFF8
FFFFFFF8
F0000078
F0000070
F0000070
F80000F0
F83FFFF0
F83FFFF0
783FFFF0
783FFFF0
780000F0
780000F0
780000F0
780000F0
7FFFE0F0
7FFFE0E0
7FFFE0E0
7C3FE0E0
7C3FE1E0
7C3FE1E0
3C3FE1E0
3C0201E0
3C0001E0
3C0001E0
3C0001E0
3F800FE0
3FF8FFC0
0FFFFF80
01FFFC00
003FE000
00070000
ENDCHAR
STARTCHAR F06A
ENCODING 61546
SWIDTH 990 0
DWIDTH 33 0
BBX 29 33 2 0
BITMAP
FFFFFFF8
FFFFFFF8
FFFFFFF8
FFFFFFF8
F0000078
F0000070
F0000070
F8000070
FFFFE070
FFFFE070
7FFFE0F0
7FFFE0F0
780000F0
780000F0
780000F0
780000F0
7FFFE0F0
7FFFE0E0
7FFFE0E0
7C3FE0E0
7C3FE1E0
7C3FE1E0
3C3FE1E0
3C0201E0
3C0001E0
3C0001E0
3C0001E0
3F800FE0
3FF8FFC0
0FFFFF80
01FFFC00
003FE000
00070000
ENDCHAR
STARTCHAR F06B
ENCODING 61547
SWIDTH 990 0
DWIDTH 33 0
BBX 32 32 0 1
BITMAP
00000800
00081800
00183000
00183000
08383000
18303000
38303000
30703000
70703000
70703800
70781C00
F0780E03
F03807FE
F03C03FC
F03C0000
F01E0000
F01F0000
F80F8000
F807E000
F803FE3E
7C01FFFC
7E007FF0
7E000780
3F000000
1F800000
1FE00000
0FF00000
07FE0070
03FFFFE0
00FFFFC0
003FFF00
000FF800
ENDCHAR
STARTCHAR F06C
ENCODING 61548
SWIDTH 990 0
DWIDTH 33 0
BBX 33 29 0 2
BITMAP
3FFFFFFE00
7FFFFFFF00
FFFFFFFF80
FFFFFFFF80
FFFFFFBF80
FFFFFF0780
F03FFF0180
F03FFF0180
F03FFE0380
F03FFE0380
F03FFE0380
F03FFFC780
F03FFFFF80
F01FFFFF80
F01FFE0780
F01FFC0780
F80FFC0F80
F807F80F80
7800C00F00
7C00001F00
7C00001F00
3E00003E00
3F00007E00
1FC001FC00
0FF80FF800
07FFFFF000
03FFFFE000
00FFFF8000
000FF80000
ENDCHAR
STARTCHAR F06D
ENCODING 61549
SWIDTH 990 0
DWIDTH 33 0
BBX 33 33 0 0
BITMAP
000FF00000
003FFE0000
00FFFF8000
03FFFFE000
07FC1FF000
0FE003F800
1F8000FC00
1F00007C00
3E00003E00
3C00001E00
7C00001F00
7800000F00
F800000F80
F000000F80
F000000780
F000000780
F000000780
F000000780
F000000780
F000000F80
F800000F80
7800000F00
7C00001F00
7C00001E00
3E00001E00
1F00001C00
1F80001C00
0FE003F800
07FC1FF000
03FFFFE000
00FFFF8000
003FFE0000
000FF80000
ENDCHAR
STARTCHAR F06E
ENCODING 61550
SWIDTH 990 0
DWIDTH 33 0
BBX 29 33 2 0
BITMAP
00020000
000F8000
003FE000
00FFF800
01FFFC00
07FDFF00
1FF07FC0
7FC01FF0
FF0007F8
FC0001F8
F0000078
F0104078
F0707078
F0F07878
F0F07878
F0F07878
F0F07878
F0F07878
F0F07878
F0F07878
F0F07878
F0F07878
F0F07878
F0F07878
F0F07878
70F07870
10F07840
00F07800
00FDF800
00FFF800
003FE000
000F8000
00020000
ENDCHAR
STARTCHAR F06F
ENCODING 61551
SWIDTH 990 0
DWIDTH 33 0
BBX 25 33 4 0
BITMAP
00FF8000
03FFE000
07FFE000
07FFF000
0F80F800
0F80F800
0F000000
0F000000
0F002000
0F007800
0F00FC00
0F01FE00
0F03FF00
0F07FF80
0F07FF80
0F077F00
0F007A00
7F707800
FFF07800
FFF07800
7FE07800
3FC07800
1F807800
0F007800
02007800
00007800
00007800
0F00F800
0F80F800
07FFF000
07FFF000
03FFE000
00FF8000
ENDCHAR
STARTCHAR F070
ENCODING 61552
SWIDTH 990 0
DWIDTH 33 0
BBX 29 33 2 0
BITMAP
000000F8
000007F8
00001FF8
00003FF8
00007FF8
00007FF8
0000FF80
0001FE00
0001FC00
0003F800
0003F000
0007F000
0007E000
000FE000
000FFF00
000FFF80
001FFF80
001FFF80
001FFF80
003FFF80
003FFF00
007F0000
007E0000
00FE0000
01FE0000
03FC0000
0FFC0000
FFF80000
FFF00000
FFF00000
FFC00000
FF800000
FC000000
ENDCHAR
STARTCHAR F071
ENCODING 61553
SWIDTH 990 0
DWIDTH 33 0
BBX 33 33 0 0
BITMAP
003FFE0000
007FFF0000
0073FF0000
00F3FF8000
00FFFF8000
00FFFF8000
0000FF8000
0000FF8000
07FFFF9C00
1FFFFF9F00
3FFFFF9F80
7FFFFF9F80
FFFFFF9F80
FFFFFF9F80
FFFFFF1F80
FFFFFE3F80
FFF0007F80
FFC000FF80
FF8003FF80
FF1FFFFF80
FF3FFFFF80
FF3FFFFF00
FF3FFFFE00
7F3FFFFC00
1F3FFFF000
003F800000
003F800000
003FFF8000
003FFF8000
003FE78000
001FE70000
001FFF0000
000FFE0000
ENDCHAR
STARTCHAR F072
ENCODING 61554
SWIDTH 990 0
DWIDTH 33 0
BBX 33 33 0 0
BITMAP
000FF00000
003FFE0000
00FFFF8000
03FFFFE000
07FFFFF000
0FE3E3F800
1F83E0FC00
1F03E07C00
3E03E03E00
3C03E01E00
7C03E01F00
7803E00F00
F803E00F80
F003E00F80
F003FFFF80
F003FFFF80
F003FFFF80
F003FFFF80
F003FFFE00
F003E00000
F803E00000
7803E00000
7C03E00000
7C03E00000
3E03E00000
1F03E00000
1F83E00000
0FE3E00000
07FFE00000
03FFE00000
00FFE00000
003FC00000
000FC00000
ENDCHAR
STARTCHAR F073
ENCODING 61555
SWIDTH 990 0
DWIDTH 33 0
BBX 33 33 0 0
BITMAP
7800000F00
FC00001F80
FC00001F80
FC00001F80
FCF8071F80
79FC1FCF00
03FC7FE000
07F8FFF000
0F01F07800
0F03E07800
0F07C07800
0F0F807800
0F0F047800
07860E3000
03C01F0000
03E00F8000
01F007C000
00F803E000
007C01E000
063820F000
0F10707800
0F00F87800
0F01F07800
0F03E07800
0F07C07800
07FF8FF000
07FF1FF000
7BFC1FEF00
FCF80F9F80
FC00001F80
FC00001F80
FC00001F80
7800000F00
ENDCHAR
STARTCHAR F074
ENCODING 61556
SWIDTH 990 0
DWIDTH 33 0
BBX 33 33 0 0
BITMAP
000FF00000
003FFE0000
00FFFF8000
03FFFFE000
07FFFFC000
0FFFFF8000
0030038000
0078078000
007C0F8000
207C0FC000
607E0FE100
703E07E100
F03E07F380
F03E07F380
F81E03E780
F81E03E780
FC1E83E780
FC0C81CF80
FC0C81CF80
FE05C0DF80
FE05C09F80
7F01E01F00
7F03E03F00
3F03F03E00
3F83F07E00
1F87F07C00
1F87F87C00
0FC7F8F800
07CFFCF000
03FFFFE000
00FFFF8000
003FFE0000
0007F80000
ENDCHAR
STARTCHAR F075
ENCODING 61557
SWIDTH 990 0
DWIDTH 33 0
BBX 29 32 2 0
BITMAP
00040000
000E0000
000F0000
001FC000
007FE000
00FFF800
03FFFE00
07FFFF00
0FFFFF80
1FFFFFC0
3FFFFFE0
3FFFFFE0
7FFFFFF0
7FFFFFF0
FFFFFFF0
FFFFFFF8
FC03F838
F8004018
F8000018
F0000018
F001F018
7003F838
780E0C30
7C3E06F0
3FFEEFE0
3FFFFFE0
1FFFFFC0
0FE38780
07F00F00
03F83E00
00FFF800
001FE000
ENDCHAR
STARTCHAR F076
ENCODING 61558
SWIDTH 990 0
DWIDTH 33 0
BBX 33 33 0 0
BITMAP
6000000000
F000000000
F7C0000000
7FE0000000
7FF8000000
3FFC000000
1FFE000000
1FFF000000
0FFF800000
07FFF00000
07FFFC0000
03FFFE0000
03FFFF0000
07FFFF8000
07FFF80000
0FFFF80000
0FFFFC0000
0FFFFC0000
0FBFFC0000
0F1FFE0000
070FFE0000
0307FF0000
0103FF8000
0001FFC000
00007FE000
00001FF000
000007F800
000003FC00
000001FF00
000001CF00
000000E180
0000006000
0000006000
ENDCHAR
STARTCHAR F077
ENCODING 61559
SWIDTH 990 0
DWIDTH 33 0
BBX 29 33 2 0
BITMAP
00030000
00038000
0003C000
0003C000
0007E000
000FE000
001FC000
003FC000
007FC000
00FF8000
01FF8000
03FF8000
07FF8000
0FFF8300
0FFFFF80
1FE7FFC0
3FE7FFE0
3FC3FFE0
7FE1FFF0
7FF0FFF0
FFF83FF8
FFFC1FF8
FFFC0FF8
FEFC07F8
FE7C03F8
FC7C03F8
FC3801F0
7C0001F0
7C0001F0
3C0001E0
1E0003C0
0E000380
03000700
ENDCHAR
STARTCHAR F078
ENCODING 61560
SWIDTH 990 0
DWIDTH 33 0
BBX 33 33 0 0
BITMAP
C007F80000
E03FFE0000
F0FFFF8000
FBFFFFE000
FFFC1FF000
FFE003F800
FF8000FC00
FF80007C00
FFC0003E00
FFE0001E00
FFF0001F00
FFF0000800
0000000000
0000000000
0000000000
0000000000
0000000000
0000000000
0000000000
0000000000
0000000000
080007FF80
3C0007FF80
3C0003FF80
3E0001FF80
1F0000FF80
1F8000FF80
0FE003FF80
07FC0FFF80
03FFFFEF80
00FFFF8780
003FFE0380
000FF80180
ENDCHAR
STARTCHAR F079
ENCODING 61561
SWIDTH 990 0
DWIDTH 33 0
BBX 33 33 0 0
BITMAP
0FFFFFFE00
1FFFFFFF00
3FFFFFFF80
3FFFFFFF80
3000000180
3000000180
31FE0C3180
33FF1E7980
33FF1E7980
31FF1C7180
3000000180
3000000180
3000000180
3000000180
3FFFFE0180
FFFFFF0180
E000038180
C000018180
C000018180
CF1C718180
CF3CF98180
CF3C718180
C608218180
C000018180
C000038180
FFFFFF8180
7FFFFF0180
3000000180
3000000180
3FFFFFFF80
3FFFFFFF80
1FFFFFFF00
0FFFFFFE00
ENDCHAR
STARTCHAR F07A
ENCODING 61562
SWIDTH 990 0
DWIDTH 33 0
BBX 33 33 0 0
BITMAP
7FFFFFFF00
FFFFFFFF80
FFFFFFFF80
FFFFFFFF80
F9F8000F80
F0F8000780
F0F0000780
F8F8000F80
FFFFFFFF80
FFFFFFFF80
FFFFFFFF80
FFFFFFFF80
0000000000
0000000000
03FE3FE000
03FE7FE000
03FCFFE000
03F9FFE000
03F3FFE000
03F9FFE000
03F8FFE000
03FC7FE000
03FE3FE000
03FC1FE000
03F88FE000
03F1C7E000
03E3E3E000
03C7F1E000
038FF8E000
031FFC6000
023FFF2000
007FFF8000
00FFFFC000
ENDCHAR
STARTCHAR F07B
ENCODING 61563
SWIDTH 990 0
DWIDTH 33 0
BBX 33 33 0 0
BITMAP
3FF8000000
7FFC000000
7FFE0FFE00
FFFE1FFE00
00003FFF00
00003FFF80
7FFFFFFF80
FFFFFFFF80
FFFE3FFF80
FFF80FFF80
FFF80FFF80
FFF007FF80
FFF007FF80
FFF80FFF80
FFF80FFF80
FFF80FFF80
FFFC1FFF80
FFFC1FFF80
FFFC1FFF80
FFF007FF80
FFE003FF80
FFC001FF80
FFF80FFF80
7FFFFFFF00
1FFFFFFC00
0003E00000
0003E00000
0003E00000
0003E00000
007FFF0000
00FFFF8000
00FFFF8000
007FFF0000
ENDCHAR
STARTCHAR F07C
ENCODING 61564
SWIDTH 990 0
DWIDTH 33 0
BBX 33 33 0 0
BITMAP
3FF8000000
7FFC000000
7FFE0FFE00
FFFE1FFE00
00003FFF00
00003FFF80
7FFFFFFF80
FFFFFFFF80
FFFE3FFF80
FFF007FF80
FFC1C1FF80
FF8FF8FF80
FF0FFC7F80
FF07FE7F80
FE63E73F80
FE70C73F80
FCF80F1F80
FCF81F9F80
FCFC1F9F80
FCFE3F9F80
FCFF7F9F80
FFFFFFFF80
FFFFFFFF80
7FFFFFFF00
1FFFFFFC00
0003E00000
0003E00000
0003E00000
0003E00000
007FFF0000
00FFFF8000
00FFFF8000
007FFF0000
ENDCHAR
STARTCHAR F07D
ENCODING 61565
SWIDTH 990 0
DWIDTH 33 0
BBX 33 33 0 0
BITMAP
7E00000F00
FF00001F80
FF00001F80
FF00001F80
F000001F80
F000001F80
F000001F80
F000001F80
FE000F1F80
FF001F9F80
FF001F9F80
FF001F9F80
F0001F9F80
F0001F9F80
F0001F9F80
F0001F9F80
FC0C1F9F80
FF1F1F9F80
FF3F1F9F80
FF3F9F9F80
FE3F9F9F80
F03F9F9F80
F03F9F9F80
F03F9F9F80
F03F9F9F80
FF3F9F9F80
FF3F9F9F80
FF3F9F9F80
FE3F9F9F80
F03F9F9F80
F03F9F9F80
F03F1F9F80
601F1F0F00
ENDCHAR
STARTCHAR F07E
ENCODING 61566
SWIDTH 990 0
DWIDTH 33 0
BBX 33 29 0 2
BITMAP
0FFFFFFE00
1FFFFFFF00
3FFFFFFF80
3FFFFFFF80
3800000380
3000000180
31C71C7180
33CF9E7980
7FFFFFFF80
FFFFFFFF80
E000000380
C000000180
C082082180
C3C71C7980
C3CF9E7980
C3C71C7980
C082082180
C000000180
E000000380
FFFFFFFF80
7FFFFFFF80
33CF9E7980
31C71C7180
3000000180
3800000380
3FFFFFFF80
3FFFFFFF80
1FFFFFFF00
0FFFFFFE00
ENDCHAR
STARTCHAR F07F
ENCODING 61567
SWIDTH 990 0
DWIDTH 33 0
BBX 33 33 0 0
BITMAP
0007F00000
003FFE0000
00FFFF8000
03FFFFE000
07FC1FF000
0FE003F800
1F8000FC00
1F00007C00
3E60003E00
3CF0001E00
7CF0801F00
78F1C00F00
F8F3F00F00
F0F3F80F80
F0F3FE0780
F0F3FF0780
F0F3FF8780
F0F3FF0780
F0F3FE0780
F0F3F80F80
F8F3F00F80
78F1C00F00
7CF0801F00
3CF0001E00
3EF0003E00
1FF0007C00
1FF000FC00
0FF003F800
07F81FF000
03FFFFE000
00FFFF8000
003FFE0000
0007F00000
ENDCHAR
STARTCHAR F080
ENCODING 61568
SWIDTH 990 0
DWIDTH 33 0
BBX 33 33 0 0
BITMAP
0FFFFFF800
3FFFFFFE00
7FFFFFFF00
7FFFFFFF00
FF0E3FFF80
FF0C1FFF80
FE0C1FFF80
FE1C1FFF80
FC1C1FFF80
FC3C1FFF80
F83C1FFF80
F87C1FFF80
F07C1FFF80
F07C1FFF80
F87FFFFF80
F83FFFFF80
FC1E3C0F80
FE1C180780
FE0C180780
FF0C180780
FF8E380F80
7FFFFFFF00
7FFFFFFF00
3FFFFFFE00
0FFFFFF800
000FF00000
000FE00000
000FC00000
000F800000
000F000000
000E000000
000C000000
0008000000
ENDCHAR
STARTCHAR F081
ENCODING 61569
SWIDTH 990 0
DWIDTH 33 0
BBX 33 27 0 3
BITMAP
3000000C00
3E00007C00
3F1FFCFC00
3FFFFFFC00
3FFFFFFC00
3FFFFFFC00
3FFFFFFE00
7FFFFFFF00
7FC001FF00
7E00003F00
FC00001F80
F800000F80
F800000F80
F070070780
F0F0078780
F0F0078780
F0F0078780
F070070780
7020020700
7800000F00
7800000F00
3C03E01E00
3E01C03E00
1F8000FC00
07F007F000
01FFFFC000
001FFC0000
ENDCHAR
STARTCHAR F082
ENCODING 61570
SWIDTH 990 0
DWIDTH 33 0
BBX 33 33 0 0
BITMAP
7F3FFE7F00
FF3FFE7F80
FF3FFE7F80
FF3FFE7F80
FC0FF81F80
FC0FF81F80
FC0FF81F80
FC0FF81F80
FFFFFFFF80
FFFFFFFF80
FFFFFFFF80
FFFFFFFF80
FFFFFFFF80
FFFFFFFF80
FFFFFFFF80
FFFFFFFF80
FFFFFFFF80
FFFFFFFF80
FFFFFFFF80
FFFFFFFF80
7FFFFFFF00
0F00007800
0F00007800
0F00007800
0F00007800
0F00007800
0F00007800
0F00007800
0F00007800
7FE003FF00
FFF007FF80
FFF007FF80
FFF007FF80
ENDCHAR
STARTCHAR F083
ENCODING 61571
SWIDTH 990 0
DWIDTH 33 0
BBX 33 33 0 0
BITMAP
0001000000
0000C00000
0000C00000
0000C00000
0000E10000
0000C40000
0001D80000
0007B00000
000E600000
0018600000
0038E00000
0030600000
0030600000
0018700000
0018300000
000C180000
0600000000
0F80003F00
07FF1FFF80
01FFFFC380
0003F00180
0000000180
03F80FE780
01FFFFCF00
000FF80600
0000000000
10F0078400
707FFF0700
F80FF80F80
FE00003F80
7FE003FF00
0FFFFFF800
007FFF0000
ENDCHAR
STARTCHAR F084
ENCODING 61572
SWIDTH 990 0
DWIDTH 33 0
BBX 29 33 2 0
BITMAP
00078000
001FC000
003FF000
00FFF800
01FFFE00
07FFFF00
1FFFFFC0
3FFFFFE0
7FFFFFF8
FFFDFFF8
FFF87FF8
FFE03FF8
FF820FF8
FF0F87F8
FF3FE7F0
FF3FE7E0
FF3FE780
FF3FE700
FF3FE000
FF0F8000
FF820000
FFE00000
FFF80000
FFFC0000
7FFF0000
3FFFC000
1FFFE000
07FFF800
03FFFE00
00FFF800
007FF000
001FC000
00078000
ENDCHAR
STARTCHAR F085
ENCODING 61573
SWIDTH 990 0
DWIDTH 33 0
BBX 33 33 0 0
BITMAP
0007F00000
003FFE0000
00FFFF8000
03FFFFE000
07FFFFF000
0FFFFFF800
1FFFFFFC00
1FFFFFFC00
3FFFFFFE00
3FFFFFFE00
7F00007F00
7F00007F00
C18000C100
C18000C180
C0C0018180
E0F0078380
F03C1E0780
F03C1E0780
FCFC1F9F80
FCFC1F9F80
FCFC1F9F80
7CFC1F9F00
7CFC1F9F00
303C1E0600
387C1F0E00
1FF80FFC00
1FF007FC00
0FF80FF800
07FC1FF000
03FFFFE000
00FFFF8000
003FFE0000
0007F00000
ENDCHAR
STARTCHAR F086
ENCODING 61574
SWIDTH 990 0
DWIDTH 33 0
BBX 33 27 0 3
BITMAP
0001C00000
0001E00000
0003FFFF80
0007FFFF80
001F7E0000
003E3FF000
00FE3FFF80
03FC1FCF80
07F80FF000
1FF80F7C00
7FF0070F80
FF60038380
FCE0038000
F1C001C000
018001E000
038000E000
0700007000
0700007800
0E00003800
0C00001C00
1C00001E00
3800000E00
3000000700
7000000780
E000000380
FFFFFFFF80
7FFFFFFF00
ENDCHAR
STARTCHAR F087
ENCODING 61575
SWIDTH 990 0
DWIDTH 33 0
BBX 33 25 0 4
BITMAP
7E007FFF00
FF007FFF80
FF00FFFF80
FF00FFFF80
0F00F80780
0F00F80780
0F00F80780
0F00F80780
0F00F80780
0F00F80780
0F00F80780
0F00F80780
0F00F80780
0F00F80780
0F00F80780
0F00F80780
0F00F80780
0F1CF80780
0F3CF80780
0F3CF80780
0F3CF80780
FFFCFFFF80
FFFCFFFF80
FFFC7FFF80
7FFC7FFF00
ENDCHAR
STARTCHAR F088
ENCODING 61576
SWIDTH 990 0
DWIDTH 33 0
BBX 27 33 4 0
BITMAP
7FFE4000
FFFE6000
FFFE7000
FFFE7800
FFFE7C00
FFFE7E00
FFFE7F00
FFFE7F80
FFFE7FC0
FFFE7FE0
FFFE0000
FFFE0000
FFFFFFE0
FFFFFFE0
FFFBFFE0
FFF1FFE0
FFE0FFE0
FFC07FE0
FF803FE0
FF001FE0
FE000FE0
FC0007E0
FE000FE0
FFC07FE0
FFC07FE0
FFC07FE0
FFC07FE0
FFC07FE0
FFE0FFE0
FFFFFFE0
FFFFFFE0
FFFFFFE0
7FFFFFC0
ENDCHAR
STARTCHAR F089
ENCODING 61577
SWIDTH 990 0
DWIDTH 33 0
BBX 27 33 4 0
BITMAP
7FFE4000
FFFE6000
FFFE7000
FFFE7800
FFFE7C00
FFFE7E00
FFFE7F00
FFFE7F80
FFFE7FC0
FFFE7FE0
FFFE0000
FFFE0000
FFFFFFE0
FFFFFFE0
FFE0FFE0
FFC07FE0
FFC07FE0
FFC07FE0
FFC07FE0
FFC07FE0
FFC07FE0
FE0007E0
FC0007E0
FE000FE0
FF001FE0
FF803FE0
FFC07FE0
FFE0FFE0
FFF3FFE0
FFFFFFE0
FFFFFFE0
FFFFFFE0
7FFFFFC0
ENDCHAR
STARTCHAR F08A
ENCODING 61578
SWIDTH 990 0
DWIDTH 33 0
BBX 33 33 0 1
BITMAP
01FFF90000
03FFF98000
03FFF9C000
03FFF9E000
03FFF9F000
03FFF9F800
03FFF9FC00
03FFF9FE00
03FFF9FF00
01FFF9FF80
003FF80000
0003F80000
0181FFFF80
1FF8FFFF80
7FFC7FFF80
FFFE3FFF80
FF7F3FFF80
F80F3FFF80
F00F1FFF80
600F3FFF80
007F3FFF80
01FF3FFF80
03FE7FFF80
03F87FFF80
03C0FFFF80
03C1FFFF80
03C7FFFF80
000FFFFF80
000FFFFF80
03CFFFFF80
03CFFFFF80
03CFFFFF80
03C7FFFF00
ENDCHAR
STARTCHAR F08B
ENCODING 61579
SWIDTH 990 0
DWIDTH 33 0
BBX 33 33 0 0
BITMAP
3E00007E00
7F00007F00
FF00007F80
FF00007F80
F000000780
F000000780
F000000780
F000000780
0180FC0000
03C1FF0000
03C3FF8000
03C3FFC000
03C3E7E000
03C3E3E000
03C3E1E000
03C3E3E000
03C3E7C000
03C3FFC000
03C3FF8000
03C3FF0000
03C3F80000
03C3E00000
03C3E00000
03C1C00000
0180800000
F000000780
F000000780
F000000780
F000000780
FF00007F80
FF00007F80
7F00007F00
3E00003E00
ENDCHAR
STARTCHAR F08C
ENCODING 61580
SWIDTH 990 0
DWIDTH 33 0
BBX 33 33 0 0
BITMAP
3FFFFFFE00
7FFFFFFF00
FFFFFFFF80
FFFFFFFF80
F800000F80
F000000780
F000000780
F000000780
F000000780
F000000780
F000000780
F000000F80
FFFFFFFF80
FFFFFFFF80
FFFFFFFF80
FFFFFFFF80
FC00001F80
F000000780
F000000780
F000000780
F800000F80
FFFFFFFF80
FFFFFFFF80
7FFFFFFF00
1FFFFFFC00
0000000000
0000000000
0000000000
0000000000
01FF1FFC00
03FF1FFE00
03FF1FFE00
01FF1FFC00
ENDCHAR
STARTCHAR F08D
ENCODING 61581
SWIDTH 990 0
DWIDTH 33 0
BBX 33 33 0 0
BITMAP
07FFFF1C00
1FFFFE3E00
3FFFFC7F00
7FFFF8FF00
FFFFF9FF80
FFFFF9FF80
FFFFF9FF80
FFFFF9FF80
FFFFF9FF80
FFFFF3FF00
000003FF00
000007FF00
01FFFFFE00
03FFFFFE00
07FFFFFC00
07FFFFF800
0FFFFFF800
0FFFFFF000
1FFFFFF000
3FFFFFE000
3FFFFFC000
7FFFFFC000
7FFFFFC000
7FFFFF9F80
FFFFFF9F80
FFFFFF9F80
FFFFFF9F80
FFFFFF9F80
FFFFFF9F80
7FFFFF9F00
7FFFFF9F00
3FFFFF9E00
0FFFFFCC00
ENDCHAR
STARTCHAR F08E
ENCODING 61582
SWIDTH 990 0
DWIDTH 33 0
BBX 33 33 0 0
BITMAP
0FFFFFF800
3FFFFFFE00
7FFFFFFF00
7FFFFFFF00
FFBC1FFF80
FF1007FF80
FF01C3FF80
FF07F1FF80
FF03F8FF80
FF03FCFF80
FFFFFC7F80
FFFFFE7F80
FFFFFE7F80
FFFFFE7F80
FFFFFCFF80
FFDFFCFF80
FF8FF8FF80
FFC7F1FF80
FFE083FF80
FFF007FF80
FFFF3FFF80
7FFFFFFF00
7FFFFFFF00
3FFFFFFE00
0FFFFFF800
0000FF0000
0000FE0000
0000FC0000
0000F80000
0000F00000
0000E00000
0000C00000
0000800000
ENDCHAR
STARTCHAR F08F
ENCODING 61583
SWIDTH 990 0
DWIDTH 33 0
BBX 33 25 0 4
BITMAP
7FFFFFFF00
FFFFFFFF80
FFFFFFFF80
FFFFFFFF80
FFFFF80F80
FFFFF80780
FFFFF80780
FFFFF80780
FFFFF80780
FFFFF80780
F800F80780
F000F80780
F801FC0F80
FFFFFFFF80
FFFFFFFF80
F000FFFF80
F800FFFF80
FFFFFFFF80
FFFFFFFF80
F003FFFF80
F803FFFF80
FFFFFFFF80
FFFFFFFF80
FFFFFFFF80
7FFFFFFF00
ENDCHAR
STARTCHAR F090
ENCODING 61584
SWIDTH 990 0
DWIDTH 33 0
BBX 29 33 2 0
BITMAP
7FFF9000
FFFF9800
FFFF9C00
FFFF9E00
FFFF9F00
FFFF9F80
FFFF9FC0
FFFF9FE0
F8001FF0
F0001FF8
F0000000
F0000000
FFFFFFF8
FFFFFFF8
FFFFFFF8
FFFFFFF8
F8000078
F0000038
F0000038
F0000038
F8000078
FFFFFFF8
FFFFFFF8
FFFFFFF8
FFFFFFF8
F0000038
F0000038
F0000038
F0000038
FFFFFFF8
FFFFFFF8
FFFFFFF8
7FFFFFF0
ENDCHAR
STARTCHAR F091
ENCODING 61585
SWIDTH 990 0
DWIDTH 33 0
BBX 33 33 0 0
BITMAP
1FFFFFFC00
8FFFFFF880
C7FFFFF180
E3FFFFE380
F1FFFFC780
F8FFFF8F80
FC7FFF1F80
FE3FFE3F80
FF1FFC7F80
FF8FF8FF80
FFC7E1FF80
FFE3007F80
FFE01C1F80
FFC0FF8F80
FF81FFC780
FF13FFE380
FE27FFF380
FC67C1F380
F8E780F980
F1CF807980
E3CF807980
C7CF807980
8FC780F880
1FE7C0F000
3FE7E3F000
0003FFF000
0001FFF800
0000FFFC00
00003E3E00
0000001F00
0000000F80
0000000780
0000000300
ENDCHAR
STARTCHAR F092
ENCODING 61586
SWIDTH 990 0
DWIDTH 33 0
BBX 33 33 0 0
BITMAP
0007F00000
000FF80000
000E380000
000C180000
000C180000
000C180000
007C1F0000
00FC1F8000
7FC001FF00
FFC001FF80
FFF003FF80
FFF80FFF80
FF3C1FFF80
F81E3FFF80
F80FFC0380
F007F80180
F003FC0380
F003FFFF80
F003FFFF80
F003FFFF80
F803FFFF80
F807F81F80
FC07F83F80
FE1FFFFF80
F807FFFF80
E001FFFF80
C000FFFF80
C000F80180
E001F80180
FFFFFFFF80
FFFFFFFF80
FFFFFFFF80
7FFFFFFF00
ENDCHAR
STARTCHAR F093
ENCODING 61587
SWIDTH 990 0
DWIDTH 33 0
BBX 33 33 0 1
BITMAP
1C00000000
3E00000000
3F00000000
1F80000000
1FC0000000
3FE0000000
7FF0000000
FDF8000000
F8FC000000
707E000000
007F000000
00FF800000
01FFC00000
03F7E00000
03E3F04000
01C1FBF800
0000FFFE00
00007FFE00
00003FFF00
00007E0F80
0000FC0F80
0001F80780
0001F00780
0001E00780
0003E00F80
0003E01F00
0001E03F00
0001E07E00
0001F8FC00
0000FFF800
0000FFF000
00003FE000
00001F8000
ENDCHAR
STARTCHAR F094
ENCODING 61588
SWIDTH 990 0
DWIDTH 33 0
BBX 33 29 0 2
BITMAP
3FF8000000
7FFC000000
7FFE0FFC00
FFFE1FFE00
00003FFF00
00003FFF80
7FFFFFFF80
FFFFFFFF80
FFFFFFFF80
FFFFFFFF80
FFFFFFFF80
FFFFFFFF80
FFFFFFFF80
FFFFFFFF80
FFFFFFFF80
FFFFFFFF80
FFFFFFFF80
FFFFFFFF80
FFFFFFFF80
FFFFFFFF80
FFFFFFFF80
FFFFFFFF80
FFFFFFFF80
FFFFFFFF80
FFFFFFFF80
FFFFFFFF80
FFFFFFFF80
7FFFFFFF00
3FFFFFFE00
ENDCHAR
STARTCHAR F095
ENCODING 61589
SWIDTH 990 0
DWIDTH 33 0
BBX 33 29 0 2
BITMAP
3FF8000000
7FFC000000
7FFE0FFC00
FFFE1FFE00
00003FFF00
00003FFF80
7FFFFC0F80
FFFFF80780
FFFFF80780
FFFFF00780
F800000780
F000000780
F000000780
F000000780
F000000780
F000000780
F000000780
F000000780
F000000780
F000000780
F000000780
F000000780
F000000780
F000000780
F000000780
FFFFFFFF80
FFFFFFFF80
7FFFFFFF00
3FFFFFFE00
ENDCHAR
STARTCHAR F096
ENCODING 61590
SWIDTH 990 0
DWIDTH 33 0
BBX 29 33 2 0
BITMAP
3FFFFFE0
7FFFFFF0
FFFFFFF8
FFFFFFF8
FFF07FF8
FF800FF8
FF0387F8
FE03E3F8
FC03F1F8
F803F8F8
F803FCF8
F803FCF8
F003FE78
F007FE78
F00FFE78
F007FE78
F0007E78
F8003CF8
F8001CF8
F80009F8
FC0001F8
F80000F8
F0000078
F0000078
F0000078
F0000078
F0000078
F80000F8
FC0001F8
FFFFFFF8
FFFFFFF8
7FFFFFF0
3FFFFFE0
ENDCHAR
STARTCHAR F097
ENCODING 61591
SWIDTH 990 0
DWIDTH 33 0
BBX 33 33 0 0
BITMAP
0007F00000
000FF80000
000FF80000
0007F00000
0003E00000
0003E00000
0003E00000
0003E00000
7FF3E7FF00
FFF3E7FF80
FFF3E7FF80
FFF1CFFF80
FFF80FFF80
FFFC1FFF80
FFBFFFFF80
FC07FFFF80
F803FFFF80
F003FFFF80
F003FFFF80
F003E00780
F003E00F80
F003FFFF80
F803FFFF80
F807E07F80
FC07E0FF80
FE1FFFFF80
F807FFFF80
E001E00780
C000E00780
C000FFFF80
E000FFFF80
FFFFFFFF80
7FFFFFFF00
ENDCHAR
STARTCHAR F098
ENCODING 61592
SWIDTH 990 0
DWIDTH 33 0
BBX 33 33 0 1
BITMAP
01FFF90000
03FFF98000
03FFF9C000
03FFF9E000
03FFF9F000
03FFF9F800
03FFF9FC00
03FFF9FE00
03FFF9FF00
03FFF9FF80
03FFF80000
03FFF80000
03FFFFFF80
03FFFFFF80
00003FFF80
00000FFF80
3FF80FFF80
FFFC07FF80
FFFC07FF80
FCFC07FF80
FC3C07FF80
C01C07FF80
C00C07FF80
C00C07FF80
E03C07FF80
FC7C07FF80
FDFC07FF80
FFFC07FF80
7FF807FF80
00000FFF80
00001FFF80
03FFFFFF80
01FFFFFF00
ENDCHAR
STARTCHAR F099
ENCODING 61593
SWIDTH 990 0
DWIDTH 33 0
BBX 29 33 2 0
BITMAP
3FFFFFF0
7FFFFFF8
FFFFFFF8
FFFFFFF0
F0000000
F0000000
FFFFFFF0
FFFFFFF8
FFFFFFF8
FFFFFFF8
FFF8FFF8
FF801FF8
FF0007F8
FE0003F8
FC0203F8
FC1FC1F8
FC3FE1F8
FE7FC1F8
FFFE03F8
FFF803F8
FFF007F8
FFF01FF8
FFF07FF8
FFF07FF8
FFF8FFF8
FFFFFFF8
FFFFFFF8
FFF8FFF8
FFF07FF8
FFF07FF8
FFF8FFF0
7FFFFFE0
3FFFFF80
ENDCHAR
STARTCHAR F09A
ENCODING 61594
SWIDTH 990 0
DWIDTH 33 0
BBX 33 33 0 1
BITMAP
01FFFFC000
03FFFFE000
73FFFFE300
F3FFFFE780
FBFFFFE780
7FFFFFEF80
7C00001F00
3E00001E00
1FFFFFFE00
1FFFFFFC00
0FFFFFFC00
0FFFFFF800
0FFFFFF800
0FFBEFF800
0FF1C3F800
0FF003F800
0FF003F800
0FE003F800
0FE003F800
0F81C07800
0F01E07800
0F81E07800
0FC0C0F800
0FE003F800
0FF007F800
0FF003F800
0FF003F800
0FF1E7F800
0FFFFFF800
0FFFFFF800
0FFFFFF800
0FFFFFF800
07FFFFF000
ENDCHAR
STARTCHAR F09B
ENCODING 61595
SWIDTH 990 0
DWIDTH 33 0
BBX 33 33 0 1
BITMAP
01FFFFC000
03FFFFE000
73FFFFE300
F3FFFFE780
FBFFFFE780
7FFFFFEF80
7C00001F00
3E00001E00
1FFFFFFE00
1FFFFFFC00
0FFFFFFC00
0FFFFFF800
0FFFFEF800
0FFFFC7800
0FFFD8F800
0FFF01F800
0FFE03F800
0FE001F800
0FC001F800
0F8001F800
0F8003F800
0F8003F800
0F0007F800
0F8007F800
0F8007F800
0F800FF800
0FC00FF800
0FE01FF800
0FF87FF800
0FFFFFF800
0FFFFFF800
0FFFFFF800
07FFFFF000
ENDCHAR
STARTCHAR F09C
ENCODING 61596
SWIDTH 990 0
DWIDTH 33 0
BBX 33 25 0 4
BITMAP
0007F00000
007FFF0000
01FFFFC000
07FFFFF000
0FFFFFF800
1FFFFFFC00
3FFF7FFE00
7FFE7FFF00
7C3E3E3F00
FC0E0E0F80
FC8C8CC780
F9CCCCE780
F98CCCC780
F80CC80F80
F87DD83F80
F3FFF9FF80
73FFFBFF00
7FFFFFFF00
3FFFFFFE00
1FFFFFFC00
0FFFFFF800
07FFFFF000
01FFFFC000
007FFF0000
0007F00000
ENDCHAR
STARTCHAR F09D
ENCODING 61597
SWIDTH 990 0
DWIDTH 33 0
BBX 33 33 0 0
BITMAP
0007F00000
003FFE0000
00FFFF8000
03FFFFE000
07FFFFF000
0FFFFFF800
1FFFFFFC00
1FFFFFFC00
3FFFFFFE00
3FFFFFFE00
7FFFFFFF00
7FFFFFFF00
FFBC1EFF00
F3380E6780
F333E66780
F333E66780
F333E66780
F033E60780
F833E60780
FF33E7E780
FF33E7E780
7F380FE700
7FBC1FEF00
3FFFFFFE00
3FFFFFFE00
1FFFFFFC00
1FFFFFFC00
0FFFFFF800
07FFFFF000
03FFFFE000
00FFFF8000
003FFE0000
0007F00000
ENDCHAR
STARTCHAR F09E
ENCODING 61598
SWIDTH 990 0
DWIDTH 33 0
BBX 33 33 0 0
BITMAP
7FFFFFFF00
FFFFFFFF80
E000000380
C000000180
CFC7F00180
CFC7F00180
C00FFFF980
C00FFFF980
CFC0000180
DFE0000180
DFFFFFF180
FFFFFFF980
C000000180
C000000180
C7FFE1F180
CFFFF3FD80
C7FFE3FD80
C00007FD80
C00007FF80
CFC7F00180
C7CFF80180
C00FFFF980
C01FFFF180
CFE0000180
DFE0000180
DFFFFFFF80
FFFFFFFF80
FFFFFFFF80
FFFFFFFF80
FFFFFFFF80
FFFFFFFF80
FFFFFFFF80
7FFFFFFF00
ENDCHAR
STARTCHAR F09F
ENCODING 61599
SWIDTH 990 0
DWIDTH 33 0
BBX 33 33 0 0
BITMAP
FFFFFFF800
FFFFFFF800
C000000000
C000000000
CFFFFFFF80
CFFFFFFF80
CC00000180
CC00000180
CC1C000180
CC7E000180
CC7F000180
CCFF000180
CCFF800180
CCFF000180
CC7F010180
CC3E03C180
CC0007E180
CC000FF180
CC001FF980
CC3C3FF980
CC7E3FF980
CCFF1FF980
CCFF8FF980
CCFFC7F980
CCFFE3F980
CC00000180
CC00000180
CFFFFFFF80
CFFFFFFF80
0FFFFFFF80
0FFFFFFF80
0FFFFFFF80
0FFFFFFF80
ENDCHAR
STARTCHAR F0A0
ENCODING 61600
SWIDTH 990 0
DWIDTH 33 0
BBX 33 33 0 0
BITMAP
003C000000
007F000000
007F000000
00FF000000
00FF000000
00FF000000
007F000000
003E000000
7FFFFF0000
FFFFFF8000
FFFFFF8000
FFFFFF8000
FFFFFF8000
FFFFFF8000
FFFFFF8000
FFFFFF8000
FFFFFF8000
81FFFFBF00
80FFFFFF00
00FFFFFF80
00FFFFFF80
00FFFFFF80
00FFFFFF80
81FFFFBF00
E7FFFF8C00
FFC1FF8000
FF80FF8000
FF00FF8000
FF00FF8000
FF00FF8000
FF80FF8000
FF80FF8000
7FC3FF0000
ENDCHAR
STARTCHAR F0A1
ENCODING 61601
SWIDTH 990 0
DWIDTH 33 0
BBX 33 33 0 0
BITMAP
1871C70C00
3CF3C79E00
3CF3E79E00
3CF3E79E00
3CF3E79E00
1C71C71C00
0000000000
0000000000
7FFFFFFF00
FFFFFFFF80
FFFFFFFF80
FFFFFFFF80
E7FE38F380
C3FC186180
C3FC186180
C3FC186180
E7FE3CF380
FFFFFFFF80
FFFFFFFF80
C30C187F80
C30C187F80
C30C187F80
E38E38FF80
FFFFFFFF80
FFFFFFFF80
FF0FF86180
FF0FF86180
FF0FF86180
FF0FF8E180
FFFFFFFF80
FFFFFFFF80
FFFFFFFF80
7FFFFFFF00
ENDCHAR
STARTCHAR F0A2
ENCODING 61602
SWIDTH 990 0
DWIDTH 33 0
BBX 33 33 0 0
BITMAP
003FFE0000
007FFF0000
007FFF0000
00FFFF8000
00F80F8000
00F80F8000
7FFFFFFF00
FFFFFFFF80
FFFFFFFF80
FFFFFFFF80
F81FFC0F80
F00FF80780
0000000000
0000000000
FC3FFE1F80
FC3FFE1F80
F03FF81F80
F00FF80780
FC1FFC1F80
FFFFFFFF80
FFFFFFFF80
FFFFFFFF80
FFFFFFFF80
FFFFFFFF80
FFFFFFFF80
FFFFFFFF80
FFFFFFFF80
FFFFFFFF80
FFFFFFFF80
FFFFFFFF80
FFFFFFFF80
FFFFFFFF80
7FFFFFFF00
ENDCHAR
STARTCHAR F0A3
ENCODING 61603
SWIDTH 990 0
DWIDTH 33 0
BBX 33 33 0 0
BITMAP
0007F00000
003FFE0000
00FFFF8000
03FFFFE000
07FC1FF000
0FF007F800
1FE003FC00
1FC001FC00
3F81C0FE00
3F83E0FE00
7F07F07F00
7F0FF87F00
FF0FF87F00
FF8FF07F80
FFFFF0FF80
FFFFE0FF80
FFFF80FF80
FFFE01FF80
FFFE03FF80
FFFE07FF80
FFFC1FFF80
7FFE3FFF00
7FFF7FFF00
3FFFFFFE00
3FFFFFFE00
1FFE3FFC00
1FFC1FFC00
0FFE3FF800
07FE3FF000
03FFFFE000
00FFFF8000
003FFE0000
0007F00000
ENDCHAR
STARTCHAR F0A4
ENCODING 61604
SWIDTH 990 0
DWIDTH 33 0
BBX 33 25 0 4
BITMAP
03FFFFE000
0FFFFFF800
3FFFFFFE00
3FFFFFFE00
7FFFFFFF00
FFFFFFFF00
FF383E0F80
FC30180780
F87380FF80
F9F3C3FF80
F3F3E7FF80
F3F3C7FF80
F3F3870F80
F3F0060780
F1F0670780
F9F3E3E780
FC33F0E780
FE03F80780
FF83FF0F80
FFFFFFFF80
7FFFFFFF00
3FFFFFFE00
3FFFFFFE00
0FFFFFF800
03FFFFE000
ENDCHAR
STARTCHAR F0A5
ENCODING 61605
SWIDTH 990 0
DWIDTH 33 0
BBX 33 33 0 0
BITMAP
3FFFFFFE00
7FFFFFFF00
FFFFFFFF80
FFFFE00780
FFFFE00780
FFFFF00F80
FFFFF01F80
FFFFF83F80
FFFFFC7F80
FFFFFE7F80
7FFFFFFF80
3FFFFFFF80
0F00000780
0F00000780
0F00000780
0F00000780
0F00000780
0FFFFFFF80
0FFFFFFF80
0F00000780
0F00000780
0F00000780
0F00000780
0FFFFFFF80
0FFFFFFF80
0F00000780
0F00000780
0F00000780
0F00000780
0FFFFFFF80
0FFFFFFF80
07FFFFFF00
03FFFFFE00
ENDCHAR
STARTCHAR F0A6
ENCODING 61606
SWIDTH 990 0
DWIDTH 33 0
BBX 33 33 0 0
BITMAP
0007FC0000
000FFE0000
000FFE0000
000FFE0000
000FFE0000
000FFE0000
000FFE0000
0007FC0000
0000E00000
0000E00000
0000E00000
0000E00000
0000E00000
0000E00000
7FFFFFFF00
FFFFFFFF80
7FC0006000
00C0006000
00C0006000
00C0006000
00C0006000
00C0006000
00C0006000
00C0006000
00C0006000
07FC07FC00
0FFC07FE00
0FFC07FE00
0FFC07FE00
0FFC07FE00
0FFC07FE00
0FFC07FE00
07FC07FC00
ENDCHAR
STARTCHAR F0A7
ENCODING 61607
SWIDTH 990 0
DWIDTH 33 0
BBX 33 33 0 0
BITMAP
0003F00000
001FFC0000
203FFE0200
307FFF0700
70FE1F8700
71F80FC700
71F003C700
FFE001FF80
FFC001FF80
7F8000FF80
1F8000FC00
0780007000
0700007800
0F80007800
3FFFFFFE00
FFFFFFFF80
FFFFFFFF80
FF8FF87F80
3F0FF87E00
0F8FF87800
07DFFDF800
07FFFFF000
1FFFFFFC00
7FFFFFFF80
FFFFFFFF80
FFE3E3FF80
71C3E1C780
71E3E1C700
70E3F38700
307FFF0700
203FFE0200
001FFC0000
0003F00000
ENDCHAR
STARTCHAR F0A8
ENCODING 61608
SWIDTH 990 0
DWIDTH 33 0
BBX 33 33 0 0
BITMAP
0001C00000
0001C00000
0003E00000
0003E00000
0603E03000
0F1FFCF800
0FFFFFF800
07FFFFF000
03FFFFE000
03FFFFE000
03FFFFE000
07FFFFF000
07FFFFF000
0F3FFE7000
3F1FFC7E00
FF87F0FF80
FF83E0FF80
FF83E0FF80
3FDFFDFE00
0FFFFFF000
07FFFFF000
07FFFFF000
03FFFFE000
03F007E000
03F80FE000
07FFFFF000
0FFFFFF800
0F1FFC7800
0603E03000
0003E00000
0003E00000
0001C00000
0001C00000
ENDCHAR
STARTCHAR F0A9
ENCODING 61609
SWIDTH 990 0
DWIDTH 33 0
BBX 33 33 0 0
BITMAP
0600000000
0F00000000
1F00000000
3F00000000
7E00000000
FE00000000
FF00000000
7380000000
01C6000000
00EF000000
007F800000
003FC00000
007FE00000
00FFF00000
00FFF80000
007FFC0000
003FFE0000
001FFF0000
000FFF8000
0007FFC000
0003FFE000
0001FFF000
0000FFF800
00007FF800
00003FF000
00001FE000
00000FF000
000007B800
0000031C00
0000000E00
0000000700
0000000380
0000000180
ENDCHAR
STARTCHAR F0AA
ENCODING 61610
SWIDTH 990 0
DWIDTH 33 0
BBX 33 33 0 0
BITMAP
01F8000000
07FE000000
1FFF000000
3FFF800000
3FFFC00000
7FFFE00000
7FFFF00000
FFFFF80000
FFFFFC0000
FFFFFE0000
FFFFFF0000
FFFFFF8000
FFFFE7C000
7FFFC3E000
7FFF81F000
3FFF00F800
1FFE007C00
0FFC003E00
07F8001F00
03F0000F00
01F0000F80
00F8000780
007C000780
003E000780
001F000780
000F800F80
0007C00F00
0003E01F00
0001F87E00
0000FFFE00
00007FFC00
00003FF000
00000FC000
ENDCHAR
STARTCHAR F0AB
ENCODING 61611
SWIDTH 990 0
DWIDTH 33 0
BBX 33 33 0 0
BITMAP
007FFF0000
00FFFF8000
01FFFFC000
03FFFFE000
07E003F000
0FC001F800
1F8000FC00
3F00007E00
7E00003F00
FC00001F80
F800000F80
F000000780
F000000780
F000000780
F000000780
F000000780
F000000780
F000000780
F000000780
F000000780
F000000780
F000000780
F800000F80
FC00001F80
7E00003F00
3F00007E00
1F8000FC00
0FC001F800
07E003F000
03FFFFE000
01FFFFC000
00FFFF8000
007FFF0000
ENDCHAR
STARTCHAR F0AC
ENCODING 61612
SWIDTH 990 0
DWIDTH 33 0
BBX 33 33 0 0
BITMAP
000000C000
000001E000
07FF01E000
0FFFE1E000
0FFFFCF000
07FFFFF000
00FEFFF000
00F71FF000
01F307F800
03E300F800
07C381F800
07C187F800
0F800F7800
1F000C7800
1FF0007800
3FF8007800
3FF0007800
3F00007F80
7F800C7F80
7F830F7F80
7FC607FF00
7BE603FC00
F1E63FF800
F1FFFFE000
60FFFF8000
007FFC0000
003FC00000
001F800000
000FE00000
0007F00000
0001F80000
0000F80000
0000300000
ENDCHAR
STARTCHAR F0AD
ENCODING 61613
SWIDTH 990 0
DWIDTH 33 0
BBX 33 23 0 5
BITMAP
0001FFF000
0001FFF800
7FFFC07F00
FFFFC03F80
FFFFFFFF80
FFFFFFFF80
FFDFFFFF80
FE03FFFF80
FC21FFFF80
F8F8FFFF80
F1FCFFFF80
F3FCFFFF80
F3FCFFFF80
F3FCFFFF80
F1FCFFFF80
F9F8FFFF80
FC61FFFF80
FE03FFFF80
FF9FFFFF80
FFFFFFFF80
FFFFFFFF80
FFFFFFFF80
7FFFFFFF00
ENDCHAR
STARTCHAR F0AE
ENCODING 61614
SWIDTH 990 0
DWIDTH 33 0
BBX 33 33 0 0
BITMAP
000FF00000
003FFE0000
00FFFF8000
03FFFFE000
07FFFFF000
0FFFFFF800
1FFFFFFC00
1FFFFFFC00
3FFFE7FE00
3FFFE3FE00
7FBFE3FF00
7F1FE1FF00
FF0FE1FF80
FF0FF3FF80
FF8FFFFF80
FF8FFFFF80
FFFFFFFF80
FFFFFFFF80
FFFFFFFF80
FFFFFFF780
FFFFFFCF80
7FFFFF8F00
7FFFFE1F00
7FFFF87E00
3FFE00FE00
1E0003FC00
1FC03FFC00
0FFFFFF800
07FFFFF000
03FFFFE000
00FFFF8000
003FFE0000
000FF80000
ENDCHAR
STARTCHAR F0AF
ENCODING 61615
SWIDTH 990 0
DWIDTH 33 0
BBX 29 33 2 0
BITMAP
00038000
0003C000
0183C300
03C3C780
01E3C780
01E3C780
61E3C780
F1E3C700
F1E3C700
79E3C700
79E38700
78E38700
38E38600
18E18600
1CE00600
0C000000
00000000
00FFF000
03FFF800
07FFFC00
0FFFFC00
1FC0F878
1F8030F8
3F8001F8
3F0003F8
3F8007F0
1F800FF0
1FC03FE0
1FF0FFC0
0FFFFF00
07FFFE00
01FFF800
003FC000
ENDCHAR
STARTCHAR F0B0
ENCODING 61616
SWIDTH 990 0
DWIDTH 33 0
BBX 33 33 0 0
BITMAP
000FF00000
003FFE0000
00FFFF8000
03FFFFE000
07FFC3F000
0FFF01F800
1FCE00FC00
1F021E7C00
3E0007FE00
3E0001FE00
7C0000FF00
7C80007F00
FD84007F80
FD0C387F80
FF0C3CFF80
FF1C3DFF80
FFFC1FFF80
FFFC1FFF80
FFFC1FFF80
FFFC181F80
FFCE380F80
7F07700700
7E03E00700
7C01C00600
3C00001E00
1E00007C00
1FC00FFC00
0FFFFFF800
07FFFFF000
03FFFFE000
00FFFF8000
003FFE0000
000FF80000
ENDCHAR
STARTCHAR F0B1
ENCODING 61617
SWIDTH 990 0
DWIDTH 33 0
BBX 33 33 0 0
BITMAP
07F0000000
1FFC000000
3FFE000000
7FFF000000
7E0F000000
F80F000000
F80F000000
F007000000
F000000000
F000000000
F000000000
F000000000
F001000000
F003801800
F003801800
F003801800
F003F01F00
F03FF9FF80
F01FF0FF00
F003801800
F003801800
F003801800
F001001000
F000000000
F000000000
F007000000
F00F000000
F80F000000
7E0F000000
7FFF000000
3FFE000000
1FFC000000
07F0000000
ENDCHAR
STARTCHAR F0B2
ENCODING 61618
SWIDTH 990 0
DWIDTH 33 0
BBX 33 33 0 0
BITMAP
07F0000000
1FFC000000
3FFE000000
7FFF000000
7E0F000000
F80F000000
F80F000000
F007000000
F000000000
F000000000
F000010400
F000018600
F00007FF00
F00007FF80
F000018600
F000018600
F000018600
F000018600
F000018600
F00007FF80
F00007FF00
F000018600
F000010400
F000000000
F000000000
F007000000
F00F000000
F80F000000
7E0F000000
7FFF000000
3FFE000000
1FFC000000
07F0000000
ENDCHAR
STARTCHAR F0B3
ENCODING 61619
SWIDTH 990 0
DWIDTH 33 0
BBX 33 33 0 0
BITMAP
3FC001FE00
7FC001FF00
FFC001FF80
FFC001FF80
F000000780
F000000780
F000000780
F000000780
F000000780
F000000780
F000000780
F000000780
F000000780
F000000780
F000000780
F000000780
F000000780
F000000780
F000000780
F000000780
F000000780
F000000780
F000000780
F000000780
F000000780
F000000780
F000000780
F000000780
F000000780
FFC001FF80
FFC001FF80
7FC001FF00
3FC001FE00
ENDCHAR
STARTCHAR F0B4
ENCODING 61620
SWIDTH 990 0
DWIDTH 33 0
BBX 33 33 0 0
BITMAP
03F007E000
07F007F000
0FF007F800
0FF007F800
0F8000F800
0F00007800
0F00007800
0F00007800
0F00007800
0F00007800
0F00007800
0F00007800
0F00007800
1F00007C00
3F00007E00
FE00003F80
F000000780
FE00003F80
3F00007E00
1F00007C00
0F00007800
0F00007800
0F00007800
0F00007800
0F00007800
0F00007800
0F00007800
0F00007800
0F0000F800
0FF007F800
0FF007F800
07F007F000
03F007E000
ENDCHAR
STARTCHAR F0B5
ENCODING 61621
SWIDTH 990 0
DWIDTH 33 0
BBX 33 33 0 0
BITMAP
007C1F0000
00FC1F8000
00F80F8000
01F007C000
01F007C000
03E003E000
03E003E000
07C001F000
0FC001F800
0F8000F800
1F8000FC00
1F00007C00
3E00003E00
3E00003E00
7C00001F00
7C00001F00
F800000F80
7C00001F00
7C00001F00
3E00003E00
3E00003E00
1F00007C00
1F8000FC00
0F8000F800
0FC001F800
07C001F000
03E003E000
03E003E000
01F007C000
01F007C000
00F80F8000
00FC1F8000
007C1F0000
ENDCHAR
STARTCHAR F0B6
ENCODING 61622
SWIDTH 990 0
DWIDTH 33 0
BBX 33 31 0 1
BITMAP
0000078000
00003FC000
03807FE000
07C07FE000
FFC0FFF000
FFE3FFF000
1FC7FFF800
3FCFFFFC00
3FDFFFFC00
3FBFFFFE00
3FBFFFFE00
3FFFFFFF00
3FFFFFFF80
1FFFFFFD80
1FFFFFFD80
0FFFFFFD80
03FFFFB980
009FF79980
003CF71980
003CF71D00
003DE30C00
0039E30800
0039830C00
0018860C00
00184C0800
0010380800
0010180800
00202C0800
0020E41800
0060001800
01E0003800
ENDCHAR
STARTCHAR F0B7
ENCODING 61623
SWIDTH 990 0
DWIDTH 33 0
BBX 33 33 0 0
BITMAP
000FF00000
003FFE0000
00FEFF8000
03FEFFE000
07FC3FF000
0FFC3FF800
1FFC1FFC00
1FFC1FFC00
3FF80FFE00
3FF007FE00
7FC001FF00
7F8108FF00
FE13043F80
FC26021F80
F866031F80
F866030F80
F0C6030F80
F0CC018780
F0CC018780
F0CC018780
F0CC018780
7866030F00
7866030F00
7C66031E00
3C26021E00
1E12043C00
1F8908FC00
0FC001F800
07F80FF000
03FE3FE000
00FE3F8000
003FFE0000
000FF80000
ENDCHAR
STARTCHAR F0B8
ENCODING 61624
SWIDTH 990 0
DWIDTH 33 0
BBX 33 33 0 0
BITMAP
03F8000000
0FFE000000
1FFF000000
3FFF000000
3FFF000000
3FFF000000
1FFE000000
07F8000000
00C0000000
00C0000000
00C0000000
00C0000000
7FFF801000
FFFFC03800
FFFFE07C00
FFFFE0FE00
FFFFE1FF00
FFFFFFFF80
FFFFFFFF00
FFFFC0FE00
7FFF807C00
00C0003800
00C0001800
00C0001800
00C0001800
07F8001800
1FFE001800
3FFF001800
3FFF001800
3FFFFFF800
1FFFFFF800
0FFE000000
03F8000000
ENDCHAR
STARTCHAR F0B9
ENCODING 61625
SWIDTH 990 0
DWIDTH 33 0
BBX 33 25 0 4
BITMAP
0007C00000
001FF00000
007FFC0000
00FFFE0000
00FFFE0000
01FFFF0000
01FFFC0000
03FFF80000
03FFF0C000
03FFE7F800
03FFFFFC00
03FFFFFE00
31FFFFFF00
71FFFFFF00
78FFFFFF80
FCFFFFFF80
FF7FFFFF80
FFFFFFFF80
FFFFFFFF80
FFFFFFFF80
7FFFFFFF00
7FFFFFFE00
3FFFFFFE00
1FFFFFF800
07FFFFE000
ENDCHAR
STARTCHAR F0BA
ENCODING 61626
SWIDTH 990 0
DWIDTH 33 0
BBX 33 31 0 0
BITMAP
0007C00000
003FF00000
007FFC0000
00FFFE0000
00FFFE0000
01FFFF0000
01FFFC0000
03FFF80000
03FFF1C000
03FFEFF800
03FFDFFC00
03FFFFFE00
31FFFFFF00
71FFFFFF00
78FFFFFF80
FEFF1FFF80
FF3E0FFF80
FFFC07FF80
FFF803FF80
FFF001FF00
7FE000FF00
7FE0007E00
3FE0007C00
1FFC07F800
07FC07E000
000C060000
000C060000
000E060000
00060C0000
0007FC0000
0001F80000
ENDCHAR
STARTCHAR F0BB
ENCODING 61627
SWIDTH 990 0
DWIDTH 33 0
BBX 33 33 0 0
BITMAP
000FC00000
003FF80000
007FFC0000
00FFFE0000
01FFFE0000
01FFFF0000
01FFFC0000
03FFF80000
03FFF1E000
03FFEFF800
03FFDFFC00
03FFFFFE00
31FFFFFF00
71FFFFFF00
78FFFFFF80
FE7FFFFF80
FF3F9FFF80
FFFE0FFF80
FFFC07FF80
FFFC07FF00
7FFC07FF00
7FFC07FE00
3FFC07FC00
1FC0007800
07E000E000
007001C000
0038038000
001C070000
000E0E0000
00071C0000
0003B80000
0001F00000
0000E00000
ENDCHAR
STARTCHAR F0BC
ENCODING 61628
SWIDTH 990 0
DWIDTH 33 0
BBX 33 33 0 0
BITMAP
000FC00000
003FF80000
007FFC0000
00FFFE0000
01FFFE0000
01FFFF0000
01FFFC0000
03FFF80000
03FFF1E000
03FFEFF800
03FFDFFC00
03FFFFFE00
31FFFFFF00
71FFFFFF00
78FFFFFF80
FE7FFFFF80
FF3FFFFF80
FFFFFFFF80
FFFFFFFF80
FFFE0FFF00
7FFC1FFF00
7FF8FFFE00
3FF9FEFC00
1FC0FC7800
07E0F83000
00E1F81800
0071F81800
003FFCF800
001FF1F000
000F818000
0007870000
0003FE0000
0000F80000
ENDCHAR
STARTCHAR F0BD
ENCODING 61629
SWIDTH 990 0
DWIDTH 33 0
BBX 33 33 0 0
BITMAP
7FFF000000
FFFF000000
FFFF800000
FFFF800000
F00F9C3000
F00F9E7800
F00F9E7800
F00F9C7000
F00F800000
F00F800000
FFFF803000
FFFF807800
FFFF807800
FFFF007800
0F00000000
0F00000000
0000000000
0000007800
0000007800
0F007FFF80
0F00FFFF80
0F00FFFF80
0600FFFF80
0000F80780
0000F80780
071CF80780
0F3CF80780
0F3CF80780
061CF80780
0000FFFF80
0000FFFF80
00007FFF80
00007FFF00
ENDCHAR
STARTCHAR F0BE
ENCODING 61630
SWIDTH 990 0
DWIDTH 33 0
BBX 29 33 2 0
BITMAP
001FC000
007FF000
00FFF800
01FFFC00
03F8FE00
07E03F00
07C01F00
07800F00
0F800F80
0F000780
0F000780
0F000780
0F000780
0F000780
3FFFFFE0
FFFFFFF8
FFFFFFF8
FFF07FF8
FFE03FF8
FFE03FF8
FFC01FF8
FFC01FF8
FFE03FF8
FFF07FF8
FFF8FFF8
FFF8FFF8
FFF07FF8
FFF07FF8
FFE03FF8
FFE03FF8
FFC03FF8
FFFFFFF8
7FFFFFF0
ENDCHAR
STARTCHAR F0BF
ENCODING 61631
SWIDTH 990 0
DWIDTH 33 0
BBX 29 33 2 0
BITMAP
001FC000
007FF000
00FFF800
01FFFC00
03F8FE00
07E03F00
07C01F00
07800F00
0F800F80
0F000780
00000780
00000780
00000780
00000780
3FFFFFE0
FFFFFFF8
FFFFFFF8
FFF07FF8
FFE03FF8
FFE03FF8
FFC01FF8
FFC01FF8
FFE03FF8
FFF07FF8
FFF8FFF8
FFF8FFF8
FFF07FF8
FFF07FF8
FFE03FF8
FFE03FF8
FFC03FF8
FFFFFFF8
7FFFFFF0
ENDCHAR
STARTCHAR F0C0
ENCODING 61632
SWIDTH 990 0
DWIDTH 33 0
BBX 33 33 0 0
BITMAP
0100000380
0380000780
03FFFFFF80
07FFFFFF00
07F0003E00
07F8007E00
0FFC00FE00
0FFE01F600
0FFF03E600
0FFF87C600
0FFFCF8600
0FFFFF0600
0FFFFE0600
0FFFFC0600
07FFFC0600
07FFFE0600
07FFFF0600
03FFFF8600
03FFFFC600
01FFFFE600
01FFFFF600
00FFFFFE00
007FFFFE00
003FFFFE00
001FFFFF00
07FFFFFF80
1FFFFFFF00
3FFCFFFC00
7FFE1FE000
7FFF000000
FFFF000000
FFFF000000
FFFF000000
ENDCHAR
STARTCHAR F0C1
ENCODING 61633
SWIDTH 990 0
DWIDTH 33 0
BBX 29 33 2 0
BITMAP
7FFFFFF0
FFFFFFF8
FFFFFFF8
FFFFFFF8
C0000018
C0000018
FFFFFFF8
FFFFFFF8
E0000038
C0000018
FFFFFFF8
FFFFFFF8
E0000038
C0000018
FFFFFFF8
FFFFFFF8
E0000038
C0000018
E0000038
FFFFFFF8
FFFFFFF8
C0000000
E0000000
FFFF9FF8
FFFF9FF0
C0001FE0
C0001FC0
FFFF9F80
FFFF9F00
FFFF9E00
FFFF9C00
FFFF9800
7FFF9000
ENDCHAR
STARTCHAR F0C2
ENCODING 61634
SWIDTH 990 0
DWIDTH 33 0
BBX 29 33 2 0
BITMAP
7FFFFFF0
FFFFFFF8
FFFFFFF8
FFFFFFF8
FFFFFFF8
FFFFFFF8
F00380F8
F0038078
FFFFFFF8
FFFFFFF8
FFFFFFF8
FFFFFFF8
F83800F8
F0300078
FFFFFFF8
FFFFFFF8
FFFFFFF8
FFFFFFF8
FFFFFFF8
F0006078
F800E0F8
FFFFFFF8
FFFFFFF8
FFFFFFF8
FFFFFFF8
F0306078
F038E0F8
FFFFFFF8
FFFFFFF8
FFFFFFF8
FFFFFFF8
FFFFFFF8
7FFFFFF0
ENDCHAR
STARTCHAR F0C3
ENCODING 61635
SWIDTH 990 0
DWIDTH 33 0
BBX 33 33 0 0
BITMAP
3FFFFFFE00
7FFFFFFF00
FFFFFFFF80
FFFFFFFF80
FF8C186180
FF0C186180
FFFFFFFF80
FFFFFFFF80
FF0C186180
FF0C186180
FFFFFFFF80
FFFFFFFF80
FF0C186180
FF0C186180
FFFFFFFF80
FFFFFFFF80
FF0C186180
FF0C186180
FF0C186180
FFFFFFFF80
FFFFFFFF80
FF0C186180
FF0C186180
FFFFFFFF80
FFFFFFFF80
FF0C186180
FF0C186180
FFFFFFFF80
FFFFFFFF80
FF0C186180
FF0C186180
7FFFFFFF00
3FFFFFFE00
ENDCHAR
STARTCHAR F0C4
ENCODING 61636
SWIDTH 990 0
DWIDTH 33 0
BBX 33 33 0 -1
BITMAP
FFFFFFFF80
FFFFFFFF80
0000000000
0000000000
7FFFFFFF00
FFFFFFFF80
FFFFFFFF80
FFFFFFFF80
FFFFFFFF80
FFFFFFFF80
FFFFFFFF80
FFFFFFFF80
FFFFFFFF80
FFFFFFFF80
FFFFFFFF80
FFFFFFFF80
FFFFFFFF80
FFFFFFFF80
FFFFFFFF80
FFFFFFFF80
3FFFFFFE00
0000000000
0000000000
FFFFFFFF80
FFFFFFFF80
001E3C0000
001C3C0000
003C1E0000
00780F0000
00780F0000
00F0078000
00F0078000
0060030000
ENDCHAR
STARTCHAR F0C5
ENCODING 61637
SWIDTH 990 0
DWIDTH 33 0
BBX 33 33 0 0
BITMAP
001FC00000
00FFF80000
03FFFE0000
07FFFF0000
0FF07F8000
1F800FC000
3F0007C000
3E0003E000
7C0001F000
780001F000
780000F000
F80000F800
F000007800
F000007800
F000007800
F000007800
F000007800
F80000F800
780000F000
780001F000
7C0001F000
3E0003E000
3F0007C000
1F801FC000
0FF0FFE000
07FFFFF000
03FFFDF800
00FFF87C00
001FC03E00
0000001F00
0000000F80
0000000780
0000000300
ENDCHAR
STARTCHAR F0C6
ENCODING 61638
SWIDTH 990 0
DWIDTH 33 0
BBX 29 33 2 0
BITMAP
7FFF9000
FFFF9800
FFFF9C00
FFFF9E00
FFFF9F00
FFFF9F80
FFFF9FC0
FFFF9FE0
FFFF9FF0
FFFF9FF8
FFFF8000
FFFF8000
FFFFFFF8
FFFFFFF8
FFF7FFF8
FFE3FFF8
FFC3FFF8
FFC3FFF8
FFC3FFF8
FFC3FFF8
FFC3FFF8
F8000FF8
F00007F8
F0000FF8
F8000FF8
FFC3FFF8
FFC3FFF8
FFC3FFF8
FFC3FFF8
FFC3FFF8
FFE3FFF8
FFFFFFF8
7FFFFFF0
ENDCHAR
STARTCHAR F0C7
ENCODING 61639
SWIDTH 990 0
DWIDTH 33 0
BBX 29 33 2 0
BITMAP
7FFF9000
FFFF9800
FFFF9C00
FFFF9E00
FFFF9F00
FFFF9F80
FFFF9FC0
FFFF9FE0
FFFF9FF0
FFFF9FF8
FFFF8000
FFFF8000
FFFFFFF8
FFFFFFF8
FFFFFFF8
FFFFFFF8
F87F1FF8
F83E0FF8
F81C1FF8
FC083FF8
FE007FF8
FF00FFF8
FF81FFF8
FF80FFF8
FF007FF8
FE003FF8
FC181FF8
F83C0FF8
F87E0FF8
FCFF1FF8
FFFFFFF8
FFFFFFF8
7FFFFFF0
ENDCHAR
STARTCHAR F0C8
ENCODING 61640
SWIDTH 990 0
DWIDTH 33 0
BBX 33 33 0 0
BITMAP
7FFFFFF800
FFFFFFFC00
F000007E00
F000007F00
F000F87F80
F000F87F80
F000F87F80
F000F87F80
F000F87F80
F000F87F80
F000007F80
F00000FF80
FFFFFFFF80
FFFFFFFF80
FFFFFFFF80
FFFFFFFF80
FC00001F80
F000000780
F000000780
F3FFFFE780
F1FFFFC780
F000000780
F000000780
F000000780
F000000780
F3FFFFE780
F3FFFFE780
F000000780
F000000780
F000000780
F000000780
F3FFFFE780
73FFFFE700
ENDCHAR
STARTCHAR F0C9
ENCODING 61641
SWIDTH 990 0
DWIDTH 33 0
BBX 33 33 0 0
BITMAP
7FFFF00000
FFFFF80000
FFFFF80000
FFFFF80000
F000F80000
F000F80000
FFFFF80000
FFFFF80000
FFFFF80000
FFFFF80000
F800F9FF00
F000F9FF80
FFFFF9FF80
FFFFF9FF80
FFFFF80F80
FFFFF80780
F801F80F80
F000F9FF80
F800F9FF80
FFFFF9FF80
FFFFF9FF80
FFFFF00780
7FFFE00F80
000003FF80
000007FF80
000FFFFF80
000FFFFF80
000F800780
000F800780
000FFFFF80
000FFFFF80
000FFFFF80
0007FFFF00
ENDCHAR
STARTCHAR F0CA
ENCODING 61642
SWIDTH 990 0
DWIDTH 33 0
BBX 33 33 1 1
BITMAP
00C0000000
0060000000
0070000000
0030000000
0038000000
001C000000
001C000000
000E000000
000F000000
C007000000
7007800000
3C03800000
1F03C00000
0FC1E00000
03F1E00000
01FCF00000
007FF00000
001FF80000
000FF80000
0003FE3E00
0000FFFF00
00003FE380
00001FE180
00000FE180
00000F7300
00000FBF00
00001FDC00
000018C000
000030E000
000030E000
000018C000
00001FC000
00000F0000
ENDCHAR
STARTCHAR F0CB
ENCODING 61643
SWIDTH 990 0
DWIDTH 33 0
BBX 29 33 2 0
BITMAP
001FC000
003FE000
7C7FF1F0
FCFFF9F8
FCFFF9F8
FC7FF1F8
FC0001F8
FE0003F8
FFFFFFF8
FFFFFFF8
FFFFFFF8
FFFFFFF8
FFFFFFF8
FFFFFFF8
FFFFFFF8
FFFFFFF8
FFFFFFF8
FFFFFFF8
FFFFFFF8
FFFFFFF8
FFFFFFF8
FFFFFFF8
FFFFFFF8
FFFFFFF8
FFFFFFF8
FFFFFFF8
FFFFFFF8
FFFFFFF8
FFFFFFF8
FFFFFFF8
FFFFFFF8
FFFFFFF8
7FFFFFF0
ENDCHAR
STARTCHAR F0CC
ENCODING 61644
SWIDTH 990 0
DWIDTH 33 0
BBX 33 33 0 0
BITMAP
0007F00000
003FFE0000
00FFFF8000
03FFFFE000
07FFFFF000
0FFFFFF800
1FFFFFFC00
1FFFFFFC00
3FFFFFFE00
3FFFFFFE00
7FFF7FFF00
7FF80FFF00
FFF087FF00
FFE3E3FF80
FFE773FF80
FFCE31FF80
FFCC19FF80
FFCE39FF80
FFE773FF80
FFE3E3FF80
FFF087FF80
7FF80FFF00
7FFE7FFF00
3FFFFFFE00
3FFFFFFE00
1FFFFFFC00
1FFFFFFC00
0FFFFFF800
07FFFFF000
03FFFFE000
00FFFF8000
003FFE0000
0007F00000
ENDCHAR
STARTCHAR F0CD
ENCODING 61645
SWIDTH 990 0
DWIDTH 33 0
BBX 33 33 0 0
BITMAP
0007F00000
003FFE0000
00FFFF8000
03FFFFE000
07FC1FF000
0FF003F800
1FF000FC00
1FF800FC00
3FF801FE00
3FFC039E00
7FFC071F00
7FFC060F00
F9FE880F00
F87FF00F80
F00F700780
F00E300780
F00C180780
F00E380780
F007780780
F007FF0F80
F808BFCF80
78301FFF00
7C701FFF00
3CE01FFE00
3FC00FFE00
1F800FFC00
1F8007FC00
0FE007F800
07F81FF000
03FFFFE000
00FFFF8000
003FFE0000
0007F00000
ENDCHAR
STARTCHAR F0CE
ENCODING 61646
SWIDTH 990 0
DWIDTH 33 0
BBX 33 33 0 0
BITMAP
0007F00000
000FF80000
7FFFFFFF00
FFFFFFFF80
FFFFFFFF80
7FFFFFFF00
0000000000
0000000000
3FFFFFFE00
3FFFFFFE00
3FFFFFFE00
3FFFFFFE00
3F7F7F7E00
3C3E3E1E00
3C3C1E1E00
3C3C1E1E00
3C3C1E1E00
3C3C1E1E00
3C3C1E1E00
3C3C1E1E00
3C3C1E1E00
3C3C1E1E00
3C3C1E1E00
3C3C1E1E00
3C3C1E1E00
3C3C1E1E00
3C3C1E1E00
3C3E3E1E00
3E7E3F3E00
3FFFFFFE00
3FFFFFFE00
1FFFFFFC00
0FFFFFF800
ENDCHAR
STARTCHAR F0CF
ENCODING 61647
SWIDTH 990 0
DWIDTH 33 0
BBX 33 33 0 0
BITMAP
0007F00000
000FF80000
7FFFFFFF00
FFFFFFFF80
FFFFFFFF80
7FFFFFFF00
0000000000
0000000000
1800000C00
3C00001E00
3C00001E00
3C00001E00
3C00001E00
3C00001E00
3C00001E00
3C00001E00
3C00001E00
3C00001E00
3C00001E00
3C00001E00
3C00001E00
3C00001E00
3C00001E00
3C00001E00
3C00001E00
3C00001E00
3C00001E00
3C00001E00
3E00003E00
3FFFFFFE00
3FFFFFFE00
1FFFFFFC00
0FFFFFF800
ENDCHAR
STARTCHAR F0D0
ENCODING 61648
SWIDTH 990 0
DWIDTH 33 0
BBX 33 33 0 0
BITMAP
0007F00000
000FF80000
7FFFFFFF00
FFFFFFFF80
FFFFFFFF80
7FFFFFFF00
0000000000
0000000000
1FFFFFFC00
3FFFFFFE00
3FFFFFFE00
3FFFFFFE00
3FFFFFFE00
3FFFFFFE00
3FFFFFFE00
3FFFFFFE00
3FFFFFFE00
3FFFFFFE00
3FFFFFFE00
3FFFFFFE00
3FFFFFFE00
3FFFFFFE00
3FFFFFFE00
3FFFFFFE00
3FFFFFFE00
3FFFFFFE00
3FFFFFFE00
3FFFFFFE00
3FFFFFFE00
3FFFFFFE00
3FFFFFFE00
1FFFFFFC00
0FFFFFF800
ENDCHAR
STARTCHAR F0D1
ENCODING 61649
SWIDTH 990 0
DWIDTH 33 0
BBX 33 33 0 0
BITMAP
0007F00000
003FFE0000
00FFFF8000
03FFFFE000
07FFFFF000
0FFFFFF800
1FFE3FFC00
1FFE3FFC00
3FFC1FFE00
3FFC1FFE00
7FFC1FFF00
7FFC1FFF00
FFFC1FFF00
FFFC1FFF80
FF00007F80
FC00001F80
FC00001F80
FC00001F80
FF00007F80
FFFC1FFF80
FFFC1FFF80
7FFC1FFF00
7FFC1FFF00
3FFC1FFE00
3FFC1FFE00
1FFE3FFC00
1FFE3FFC00
0FFFFFF800
07FFFFF000
03FFFFE000
00FFFF8000
003FFE0000
0007F00000
ENDCHAR
STARTCHAR F0D2
ENCODING 61650
SWIDTH 990 0
DWIDTH 33 0
BBX 33 33 0 0
BITMAP
0007F00000
003FFE0000
00FFFF8000
03FFFFE000
07FFFFF000
0FFFFFF800
1FFFFFFC00
1FFFFFFC00
3F9FFCFE00
3F07F07E00
7F03E07F00
7F81C0FF00
FF8080FF00
FFC001FF80
FFE003FF80
FFF007FF80
FFF80FFF80
FFF007FF80
FFE003FF80
FFC001FF80
FF8180FF80
7F83C0FF00
7F07E07F00
3F0FF07E00
3F9FFCFE00
1FFFFFFC00
1FFFFFFC00
0FFFFFF800
07FFFFF000
03FFFFE000
00FFFF8000
003FFE0000
0007F00000
ENDCHAR
STARTCHAR F0D3
ENCODING 61651
SWIDTH 990 0
DWIDTH 33 0
BBX 33 33 0 0
BITMAP
0007F00000
003FFE0000
00FFFF8000
03FFFFE000
07FFFFF000
0FFFFFF800
1FFFFFFC00
1FFFFFFC00
3FFFFFFE00
3FFFFFFE00
7FFFFF3F00
7FFFFE1F00
FFFFFC1F00
FFFFF81F80
FF7FF03F80
FC3FE07F80
FC1FC0FF80
FC0F81FF80
FE0703FF80
FF0207FF80
FF800FFF80
7FC01FFF00
7FE03FFF00
3FF07FFE00
3FF9FFFE00
1FFFFFFC00
1FFFFFFC00
0FFFFFF800
07FFFFF000
03FFFFE000
00FFFF8000
003FFE0000
0007F00000
ENDCHAR
STARTCHAR F0D4
ENCODING 61652
SWIDTH 990 0
DWIDTH 33 0
BBX 23 33 6 0
BITMAP
00E600
03E780
07C7C0
0F83E0
1F91F0
3F19F8
7F19FC
7F19FC
7F19FC
FF19FE
FF83FE
7F83FC
1FE7F0
83E782
E0000E
F8003E
FFFFFE
FFFFFE
FFFFFE
FFFFFE
FFFFFE
FFFFFE
FFFFFE
FFFFFE
7FFFFC
7FFFFC
3FFFFC
3FFFF8
1FFFF0
0FFFE0
07FFC0
03FF80
00FE00
ENDCHAR
STARTCHAR F0D5
ENCODING 61653
SWIDTH 990 0
DWIDTH 33 0
BBX 33 33 0 0
BITMAP
7FFFFFFF00
FFFFFFFF80
FFFFFFFF80
FFFFFFFF80
F000000780
F000000780
F3FFFC0780
F3FFF80780
F3FFF00780
F3FFC00780
F3FF800780
F3FF000780
F3FC000780
F3F8000780
F3F0000780
F3C0000780
F380000780
F300000780
F000000780
F000000780
F000000780
FFFFFFFF80
FFFFFFFF80
FFFFFFFF80
7FFFFFFF00
0003E00000
0003E00000
0003E00000
0003E00000
003FFE0000
007FFF0000
007FFF0000
00FFFF8000
ENDCHAR
STARTCHAR F0D6
ENCODING 61654
SWIDTH 990 0
DWIDTH 33 0
BBX 29 33 2 0
BITMAP
7FFF9000
FFFF9800
FFFF9C00
FFFF9E00
FFFF9F00
FFFF9F80
FFFF9FC0
FFFF9FE0
FFFF9FF0
FFFF9FF8
FFFF8000
FFFF8000
FFFFFFF8
FFFFFFF8
FFFFFFF8
FFFFFFF8
FFFFFFF8
FFFFFFF8
FFFFFFF8
FFFFFFF8
FFFFFFF8
FFFFFFF8
FFFFFFF8
FFFFFFF8
FFFFFFF8
FFFFFFF8
FFFFFFF8
FFFFFFF8
FFFFFFF8
FFFFFFF8
FFFFFFF8
FFFFFFF8
7FFFFFF0
ENDCHAR
STARTCHAR F0D7
ENCODING 61655
SWIDTH 990 0
DWIDTH 33 0
BBX 31 33 2 0
BITMAP
03000180
03000180
333FF998
733FF99C
F33FF99E
F33FF99E
F03FF81E
F83FF83E
FFFFFFFE
FFFFFFFE
FFFFFFFE
FFFFFFFE
F800003E
F000001E
FFFFFFFE
FFFFFFFE
FFFFFFFE
FFFFFFFE
FFFFFFFE
F000001E
F800003E
FFFFFFFE
FFFFFFFE
FFFFFFFE
FFFFFFFE
F000001E
F000001E
FFFFFFFE
FFFFFFFE
FFFFFFFE
FFFFFFFE
7FFFFFFC
3FFFFFF8
ENDCHAR
STARTCHAR F0D8
ENCODING 61656
SWIDTH 990 0
DWIDTH 33 0
BBX 33 27 0 2
BITMAP
1FFFFFFC00
3FFFFFFE00
3000000600
3000000600
33FFC00600
33FF800600
33FF000600
33FE000600
33F8000600
33F0000600
33E0000600
33C0000600
3380000600
3200000600
3000000600
3000000600
3800000E00
3FFFFFFE00
3FFFFFFE00
3FFFFFFE00
1FFFFFFC00
0000000000
0000000000
7FFFFFFF00
FFFFFFFF80
FFFFFFFF80
7FFFFFFF00
ENDCHAR
STARTCHAR F0D9
ENCODING 61657
SWIDTH 990 0
DWIDTH 33 0
BBX 33 33 0 0
BITMAP
3FFFFFFE00
7FFFFFFF00
FFFFFFFF80
FFFFFFFF80
FFFFFFFF80
FFFFFFFF80
F803800F80
F003800780
F1F3800780
F3F3800780
F003800780
F003800780
F1F3800780
F3F3800780
F003800780
F003800780
F1E3800780
F3F3800780
F1F3800780
F003800780
F003800780
F3F3800780
F1F3800780
F003800780
F003800780
F3F3800780
F3F3800780
F003800780
F803800F80
FFFFFFFF80
FFFFFFFF80
7FFFFFFF00
3FFFFFFE00
ENDCHAR
STARTCHAR F0DA
ENCODING 61658
SWIDTH 990 0
DWIDTH 33 0
BBX 33 33 0 0
BITMAP
3FF8000000
7FFC000000
7FFE0FFE00
FFFE1FFE00
00003FFF00
00003FFF80
7FFFFFFF80
FFFFFFFF80
FFFFFFFF80
FFFFFFFF80
FFFFFFFF80
FFFFFFFF80
FFFFFFFF80
FFFFFFFF80
FFFFFDFF80
FFFFF8FF80
FFFFF87F80
FFFFF87F80
FFFFF87F80
FFFFF87F80
FFFFF87F80
FFFE000180
FFFC000180
FFFE000180
FFFF000380
FFFFF87F80
FFFFF87F80
7FFFF87F00
3FFFF87E00
0000186000
000018E000
00001FE000
00001FC000
ENDCHAR
STARTCHAR F0DB
ENCODING 61659
SWIDTH 990 0
DWIDTH 33 0
BBX 33 33 0 -1
BITMAP
3FF8000000
7FFC000000
7FFE0FFC00
FFFE1FFE00
00003FFF00
00003FFF80
7FFFFFFF80
FFFFFFFF80
FFFFFFFF80
FFFFFFFF80
FFFFFFFF80
FFFFFFFF80
FFFFFFFF80
FFFFFFFF80
FFFFFFFF80
FFFFFFFF80
FFFFFFFF80
FFFE3F8780
FFFC1F0780
FFFE0E0780
FFFF040F80
FFFF801F80
FFFFC03F80
FFFFE07F80
FFFFC07F80
FFFF803F80
FFFF001F80
7FFE060F00
3FFC0F0700
000C1F8600
000639CC00
0003F0F800
0001E07000
ENDCHAR
STARTCHAR F0DC
ENCODING 61660
SWIDTH 990 0
DWIDTH 33 0
BBX 21 33 6 0
BITMAP
E00000
F00000
F80000
FC0000
FE0000
FF0000
FF8000
FFC000
FFE000
FFF000
FFF800
FFFC00
FFFE00
FFFF00
FFFF80
FFFFC0
FFFFE0
FFFFF0
FFFFF8
FFFFF8
FFFFF0
FFF800
FFF800
FF7C00
FE7C00
FC3C00
F83E00
F01E00
601F00
000F00
000F80
000780
000700
ENDCHAR
STARTCHAR F0DD
ENCODING 61661
SWIDTH 990 0
DWIDTH 33 0
BBX 23 33 6 0
BITMAP
030000
070000
070000
070000
070000
070000
0F0000
0F0000
0F0000
0F0000
0F8800
0F9C00
2FFC80
FFFFE0
FFFFE8
FFFFFE
FFFFFE
FFFFFE
FFFFFE
7FFFFE
7FFFFE
7FFFFE
7FFFFE
3FFFFE
3FFFFE
3FFFFE
3FFFFE
3FFFFE
1FFFFE
1FFFFC
0FFFFC
0FFFF8
07FFF0
ENDCHAR
STARTCHAR F0DE
ENCODING 61662
SWIDTH 990 0
DWIDTH 33 0
BBX 29 33 2 0
BITMAP
00070000
00070000
018F8C00
03CF9E00
03CF9E00
03CF9E00
01CF9C30
01EFBC78
01EFBC78
01EFBC78
01EFBC70
01EFBCF0
60FFBCF0
F0FFFCF0
F8FFFDE0
F8FFFDE0
7CFFFFE0
3EFFFFE0
3FFFFFE0
1FFFFFE0
0FFFFFE0
0FFFFFE0
07FFFFE0
07FFFFE0
03FFFFE0
03FFFFC0
03FFFFC0
03FFFFC0
01FFFF80
01FFFF80
00FFFF00
007FFF00
003FFE00
ENDCHAR
STARTCHAR F0DF
ENCODING 61663
SWIDTH 990 0
DWIDTH 33 0
BBX 21 33 6 1
BITMAP
183800
3C3C00
3C3C00
3C7800
3E7800
3E7800
1E7800
1E7800
1E7800
1E7800
1E7800
1E7800
1E7A00
1FFF00
1FFFA0
FFFFF8
FFFFF8
FFFFF8
FFFFF8
FFFFF8
FFFFF8
FFFFF8
FFFFF8
FFFFF8
FFFFF8
FFFFF8
FFFFF8
7FFFF0
7FFFF0
7FFFF0
3FFFE0
3FFFC0
1FFF80
ENDCHAR
STARTCHAR F0E0
ENCODING 61664
SWIDTH 990 0
DWIDTH 33 0
BBX 33 33 0 0
BITMAP
3FFFFFFE00
7FFFFFFF00
FFFFFF8380
FFFFFF8180
FFFFFF8180
FFFFFF8380
7FFFFFFF00
3FFFFFFE00
0000000000
0000000000
0000000000
0000000000
1FFFFFFC00
7FFFFFFF00
7FF8000700
FFF0000180
FFF0000180
FFF0000180
FFF8000700
7FFFFFFF00
1FFFFFFC00
0000000000
0000000000
0000000000
0000000000
3FFFFFFE00
7FFFFFFF00
FFFFE00380
FFFFE00180
FFFFE00180
FFFFE00380
7FFFFFFF00
3FFFFFFE00
ENDCHAR
STARTCHAR F0E1
ENCODING 61665
SWIDTH 990 0
DWIDTH 33 0
BBX 29 33 2 0
BITMAP
3F1FC7E0
7F3FE7F0
FF3FE7F8
FF3FE7F8
FF3FE7F8
FF3FE7F8
FF3FE7F8
7F1FC7F0
00000000
00000000
7E0F83F0
FF1FC7F8
FF3FE7F8
FF3FE7F8
FF3FE7F8
FF3FE7F8
FF3FE7F8
FF3FE7F8
FF3FE7F8
FF3FE7F8
FF3FE7F8
FF1FC7F8
7E0F83F0
00000000
00000000
7F1FC7F0
FF3FE7F8
FF3FE7F8
FF3FE7F8
FF3FE7F8
FF3FE7F8
7F3FE7F0
3F1FC7E0
ENDCHAR
STARTCHAR F0E2
ENCODING 61666
SWIDTH 990 0
DWIDTH 33 0
BBX 33 33 0 0
BITMAP
0000300000
0000780000
0000F80000
0001F80000
0003F80000
0007F80800
000FF81C00
001FF80C00
7F3FF80600
FF3FF88600
FF3FF8C300
FF3FF8E300
FF3FF86300
FF3FF86180
FF3FF83180
FF3FF83180
FF3FF83180
FF3FF83180
FF3FF83180
FF3FF86180
FF3FF86380
FF3FF8E300
FF3FF8C300
FF3FF98600
7F3FF88600
001FF80C00
000FF81C00
0007F81800
0003F80000
0001F80000
0000F80000
0000780000
0000300000
ENDCHAR
STARTCHAR F0E3
ENCODING 61667
SWIDTH 990 0
DWIDTH 33 0
BBX 29 33 0 0
BITMAP
00003000
00007800
0000F800
0001F800
0003F800
0007F800
000FF800
001FF800
7F3FF800
FF3FF840
FF3FF860
FF3FF870
FF3FF830
FF3FF830
FF3FF818
FF3FF818
FF3FF818
FF3FF818
FF3FF818
FF3FF830
FF3FF830
FF3FF870
FF3FF860
FF3FF8C0
7F3FF840
001FF800
000FF800
0007F800
0003F800
0001F800
0000F800
00007800
00003000
ENDCHAR
STARTCHAR F0E4
ENCODING 61668
SWIDTH 990 0
DWIDTH 33 0
BBX 33 33 0 0
BITMAP
0000300000
0000780000
0000F80000
0001F80000
0003F80000
0007F80000
000FF80000
001FF80000
7F3FF80000
FF3FF80000
FF3FF80000
FF3FF88000
FF3FF9C300
FF3FF9E780
FF3FF8FF00
FF3FF87E00
FF3FF83C00
FF3FF87E00
FF3FF8FF00
FF3FF9E780
FF3FF9C300
FF3FF80000
FF3FF80000
FF3FF80000
7F3FF80000
001FF80000
000FF80000
0007F80000
0003F80000
0001F80000
0000F80000
0000780000
0000300000
ENDCHAR
STARTCHAR F0E5
ENCODING 61669
SWIDTH 990 0
DWIDTH 33 0
BBX 33 33 0 0
BITMAP
0000030180
0000078380
00000F8700
00001F0E00
00003E1C00
00007C3800
0000F87000
0001F0E000
07F3E1C000
0FF3C38000
0FF3870000
0FF30E0000
0FF21C0000
0FF0380000
0FF0708000
0FF0E18000
0FE1C38000
0FC3878000
0F870F8000
0F0E1F8000
0E1C3F8000
0C387F8000
0870FF8000
00E1FF8000
01C3FF8000
0381FF8000
0700FF8000
0E007F8000
1C003F8000
38001F8000
70000F8000
E000078000
C000030000
ENDCHAR
STARTCHAR F0E6
ENCODING 61670
SWIDTH 990 0
DWIDTH 33 0
BBX 25 33 4 0
BITMAP
3FFFFE00
7FFFFF00
FFFFFF80
FFFFFF80
C0000180
C0000180
CFFF0180
CFFF0180
CFFE0180
CFFC0180
CFF80180
CFF80180
CFF00180
CFE00180
CFC00180
CFC00180
CF800180
CF000180
CE000180
CC000180
CC000180
C8000180
C0000180
C0000180
C0000180
FFFFFF80
FFFFFF80
FFE3FF80
FFC1FF80
FFE3FF80
FFE3FF80
7FFFFF00
3FFFFE00
ENDCHAR
STARTCHAR F0E7
ENCODING 61671
SWIDTH 990 0
DWIDTH 33 0
BBX 25 33 4 0
BITMAP
07FFF000
3FFFFE00
7FFFFF00
FFFFFF80
C0000180
C0000180
CFFF0180
CFFF0180
CFFE0180
CFFE0180
CFFC0180
CFF80180
CFF80180
CFF00180
CFF00180
CFE00180
CFC00180
CFC00180
CF800180
CF800180
CF000180
CE000180
CE000180
CC000180
CC000180
C8000180
C0000180
C0000180
C0000180
FFFFFF80
7FFFFF00
3FFFFE00
0FFFF800
ENDCHAR
STARTCHAR F0E8
ENCODING 61672
SWIDTH 990 0
DWIDTH 33 0
BBX 19 33 8 0
BITMAP
1C0000
3C0000
3C0000
3C0000
3C0000
3C0000
7FFFC0
FFFFE0
FFFFE0
FFFFE0
F803E0
F001E0
F001E0
F001E0
F001E0
F001E0
F803E0
FFFFE0
FFFFE0
F399E0
FBBBE0
FFFFE0
FFFFE0
F399E0
F3B9E0
FFFFE0
FFFFE0
F399E0
F3B9E0
FFFFE0
FFFFE0
FFFFE0
7FFFC0
ENDCHAR
STARTCHAR F0E9
ENCODING 61673
SWIDTH 990 0
DWIDTH 33 0
BBX 33 33 0 0
BITMAP
01F8000000
07FE000000
0FFF800000
3FFFC00000
7F0FE00000
7C03F00000
F871F00000
F1F8F80000
F1FC780000
F3FC700000
03FC000000
03FC000000
01FC000000
00F8000000
00F0000000
00F0000000
00F0000000
00F0000000
00F0000000
00F0000000
00F0000000
3FFFFFFE00
7FFFFFFF00
FFFFFFFF80
FFFFFFFF80
F8F8F80F80
F0F0F80780
F0F0F80780
F9F8FC0F80
FFFFFFFF80
FFFFFFFF80
7FFFFFFF00
3FFFFFFE00
ENDCHAR
STARTCHAR F0EA
ENCODING 61674
SWIDTH 990 0
DWIDTH 33 0
BBX 33 33 0 -1
BITMAP
6000000000
F000000000
F87E000000
7DFF800000
3FFFC00000
1FFFE00000
0FFFC00000
1FFF800000
1FFFC00000
3FFFE00000
3FFFF00000
3FF9F00000
3FF0F80000
3FE0700000
3FE0001000
1FF0003800
1FF8007C00
0EFC00FC00
047C01FE00
003C03FE00
000807FE00
00000FFE00
00001FFE00
00003FFE00
00007FFC00
0000FFFC00
0001FFF800
0003FFFC00
0001FFFF00
0000FFDF00
00003F0F80
0000000780
0000000300
ENDCHAR
STARTCHAR F0EB
ENCODING 61675
SWIDTH 990 0
DWIDTH 33 0
BBX 17 33 8 0
BITMAP
03E000
0FF800
1FFC00
3FFE00
7FFF00
7FFF00
FFFF80
FFFF80
FFFF80
FFFF80
7FFF00
7FFF00
7FFF00
3FFE00
1FFC00
07F000
07F000
0FF800
0FF800
0FF800
0FF800
1FFC00
1FFC00
1FFC00
3FFE00
3FFE00
3FFE00
7FFF00
7FFF00
7FFF00
FFFF80
FFFF80
7FFF00
ENDCHAR
STARTCHAR F0EC
ENCODING 61676
SWIDTH 990 0
DWIDTH 33 0
BBX 31 33 2 0
BITMAP
001FF000
003FF800
003FF800
003FF800
003FF800
003FF800
003FF800
003FF800
003FF800
001FF000
00038000
00038000
00038000
00038000
00038000
00038000
0003FFF0
3FFFFFF8
3FFFFFF8
30038018
30038018
30038018
30038018
30038018
30038018
30038018
30038018
7C07C07C
FC0FE07E
FC0FE07E
FC0FE07E
FC07E07E
7C07C03C
ENDCHAR
STARTCHAR F0ED
ENCODING 61677
SWIDTH 990 0
DWIDTH 33 0
BBX 29 33 2 0
BITMAP
07000700
0F000780
0F000780
0F000780
0F000780
0F000780
0F000780
0F000780
00000000
00000000
7FFFFFF0
FFFFFFF8
FFFFFFF8
FFFFFFF8
FFFFFFF8
FFFFFFF8
7FFFFFF0
7FFFFFF0
7FFFFFF0
3FFFFFE0
1FFFFFC0
1FFFFFC0
0FFFFF80
07FFFF00
01FFFC00
00FFF800
000F8000
000F8000
000F8000
000F8000
000F8000
00070000
00070000
ENDCHAR
STARTCHAR F0EE
ENCODING 61678
SWIDTH 990 0
DWIDTH 33 0
BBX 31 33 2 0
BITMAP
7FFFFFFC
FFFFFFFE
FFFFFFFE
FFFFFFFE
C3339986
C3339986
C3339986
C3319986
C0000006
C0000006
C0000006
C0000006
C0000006
C0000006
C0000006
C0000006
C0000006
C0000006
C0000006
C0000006
E000000E
FC00007E
FC00007E
FC00007E
7E0000FC
0FC007E0
0FC007E0
0FC007E0
07E00FC0
00FFFE00
00FFFE00
00FFFE00
007FFC00
ENDCHAR
STARTCHAR F0EF
ENCODING 61679
SWIDTH 990 0
DWIDTH 33 0
BBX 33 33 0 1
BITMAP
01FF900000
03FF980000
03FF9C0000
03FF9E0000
03FF9F0000
03FF9F8000
03FF9FC000
03FF9FE000
03FF800000
03FF800000
03FFFFE000
03FFFFE000
03FFFFE000
03FFFFE000
03FFFFE000
03FFFFE000
03FFFFE000
03FFFFE000
03FFFFE000
03FFFFE000
03FFFFE000
03FFFFE000
03FFFFE000
03FFFFE000
01FFFFC000
0003E00000
0003E00000
0003E00000
0003E00000
7FFFFFFF00
FFFFFFFF80
FFFFFFFF80
7FFFFFFF00
ENDCHAR
STARTCHAR F0F0
ENCODING 61680
SWIDTH 990 0
DWIDTH 33 0
BBX 33 33 0 0
BITMAP
FF00000000
FF00000000
FFFC000000
FFFC000000
FFFC000000
FFFC000000
FFFC000000
FFFC000000
FFFC000000
FFFC000000
FFFC07C000
FFFC07E000
030007FF00
030007FF80
030007FF80
030007FF80
030007FF80
03FFFFFF80
03FFFFFF80
030007FF80
030007FF00
0300000000
0300000000
030007E000
030007E000
030007FF80
030007FF80
030007FF80
030007FF80
03FFFFFF80
03FFFFFF80
000007FF80
000007FF80
ENDCHAR
STARTCHAR F0F1
ENCODING 61681
SWIDTH 990 0
DWIDTH 33 0
BBX 33 33 0 0
BITMAP
0007F00000
003FFE0000
00FFFF8000
03FFFFE000
07FC1FF000
0FE003F800
1F81C0FC00
1F1FF87C00
3E3FFE3E00
3C7FFF1E00
7CFF7F9F00
79F80F8F00
F9F087CF00
F1E3E3CF80
F3E7F3C780
F3CFF3E780
F3CFF9E780
F3CFF9E780
F3E7F3E780
F3E3E3CF80
F9E3E3CF80
79E3E38F00
7CC3E19F00
3C03E01E00
3E03E03E00
1F03E07C00
1F03E07C00
0F03E07800
0603E03000
0003E00000
0003E00000
0001C00000
0001C00000
ENDCHAR
STARTCHAR F0F2
ENCODING 61682
SWIDTH 990 0
DWIDTH 33 0
BBX 33 33 0 0
BITMAP
07FFF90000
0FFFF98000
0FFFF9C000
0FFFF9E000
0FFFF9F000
0FFFF9F800
07FFF9FC00
03FFF9FE00
31FFF9FF00
78FFF9FF80
FC7FF80000
F83FF80000
701FFFFF80
218FFFFF80
03C7FFFF80
07E3FFFF80
07F1FFFF80
03F8FFFF80
01FC7FFF80
00FE3FFF80
087F1FFF80
0C3F8FFF80
0E1FC7FF80
0F0FE7FF80
0F87E7FF80
0FC3E7FF80
0FE1C7FF80
0FF00FFF80
0FF80FFF80
0FFFFFFF80
0FFFFFFF80
0FFFFFFF80
07FFFFFF00
ENDCHAR
STARTCHAR F0F3
ENCODING 61683
SWIDTH 990 0
DWIDTH 33 0
BBX 33 25 0 4
BITMAP
3FFFFFC000
7FFFFFF000
FFFFFFF000
FFFFFFF800
F80000F800
F000007800
F000007800
F000007800
F000807F00
F003807F80
F01F807F80
F07F807F80
F3FFFE7F80
F00FF07F80
F00FC07F80
F00E007F80
F008007F00
F000007800
F000007800
F000007800
F80000F800
FFFFFFF800
FFFFFFF000
7FFFFFF000
3FFFFFC000
ENDCHAR
STARTCHAR F0F4
ENCODING 61684
SWIDTH 990 0
DWIDTH 33 0
BBX 33 25 0 4
BITMAP
3FFFFFC000
7FFFFFF000
FFFFFFF000
FFFFFFF800
FFFFFFF800
FFFFFFF800
FFFFFFF800
FFFFFFF800
FFFFFFFF00
FFFCFFFF80
FFE0FFFF80
FF80FFFF80
FFF0FFFF80
FFF00FFF80
FFF03FFF80
FFF1FFFF80
FFF7FFFF00
FFFFFFF800
FFFFFFF800
FFFFFFF800
FFFFFFF800
FFFFFFF800
FFFFFFF000
7FFFFFF000
3FFFFFC000
ENDCHAR
STARTCHAR F0F5
ENCODING 61685
SWIDTH 990 0
DWIDTH 33 0
BBX 33 25 0 4
BITMAP
3FFFFFC000
7FFFFFF000
FFFFFFF000
FFFFFFF800
F80000F800
F000007800
F000007800
F000007800
F000007F00
F000007F80
F000007F80
F000007F80
F000007F80
F000007F80
F000007F80
F000007F80
F000007F00
F000007800
F000007800
F000007800
F80000F800
FFFFFFF800
FFFFFFF000
7FFFFFF000
3FFFFFC000
ENDCHAR
STARTCHAR F0F6
ENCODING 61686
SWIDTH 990 0
DWIDTH 33 0
BBX 33 25 0 4
BITMAP
3FFFFFC000
7FFFFFF000
FFFFFFF000
FFFFFFF800
FF8000F800
FF00007800
FF00007800
FF00007800
FF00007F00
FF00007F80
FF00007F80
FF00007F80
FF00007F80
FF00007F80
FF00007F80
FF00007F80
FF00007F00
FF00007800
FF00007800
FF00007800
FF8000F800
FFFFFFF800
FFFFFFF000
7FFFFFF000
3FFFFFC000
ENDCHAR
STARTCHAR F0F7
ENCODING 61687
SWIDTH 990 0
DWIDTH 33 0
BBX 33 25 0 4
BITMAP
3FFFFFC000
7FFFFFF000
FFFFFFF000
FFFFFFF800
FFF800F800
FFF0007800
FFF0007800
FFF0007800
FFF0007F00
FFF0007F80
FFF0007F80
FFF0007F80
FFF0007F80
FFF0007F80
FFF0007F80
FFF0007F80
FFF0007F00
FFF0007800
FFF0007800
FFF0007800
FFF800F800
FFFFFFF800
FFFFFFF000
7FFFFFF000
3FFFFFC000
ENDCHAR
STARTCHAR F0F8
ENCODING 61688
SWIDTH 990 0
DWIDTH 33 0
BBX 33 25 0 4
BITMAP
3FFFFFC000
7FFFFFF000
FFFFFFF000
FFFFFFF800
FFFFC0F800
FFFF807800
FFFF807800
FFFF807800
FFFF807F00
FFFF807F80
FFFF807F80
FFFF807F80
FFFF807F80
FFFF807F80
FFFF807F80
FFFF807F80
FFFF807F00
FFFF807800
FFFF807800
FFFF807800
FFFF80F800
FFFFFFF800
FFFFFFF000
7FFFFFF000
3FFFFFC000
ENDCHAR
STARTCHAR F0F9
ENCODING 61689
SWIDTH 990 0
DWIDTH 33 0
BBX 33 25 0 4
BITMAP
3FFFFFC000
7FFFFFF000
FFFFFFF000
FFFFFFF800
FFFFFCF800
FFFFF87800
FFFFF87800
FFFFF87800
FFFFF87F00
FFFFF87F80
FFFFF87F80
FFFFF87F80
FFFFF87F80
FFFFF87F80
FFFFF87F80
FFFFF87F80
FFFFF87F00
FFFFF87800
FFFFF87800
FFFFF87800
FFFFFCF800
FFFFFFF800
FFFFFFF000
7FFFFFF000
3FFFFFC000
ENDCHAR
STARTCHAR F0FA
ENCODING 61690
SWIDTH 990 0
DWIDTH 33 0
BBX 33 25 0 4
BITMAP
3FFFFFC000
7FFFFFF000
FFFFFFF000
FFFFFFF800
FFFFFFF800
FFFFFFF800
FFFFFFF800
FFFFFFF800
FFFFFFFF00
FFFFFFFF80
FFFFFFFF80
FFFFFFFF80
FFFFFFFF80
FFFFFFFF80
FFFFFFFF80
FFFFFFFF80
FFFFFFFF00
FFFFFFF800
FFFFFFF800
FFFFFFF800
FFFFFFF800
FFFFFFF800
FFFFFFF000
7FFFFFF000
3FFFFFC000
ENDCHAR
STARTCHAR F0FB
ENCODING 61691
SWIDTH 990 0
DWIDTH 33 0
BBX 33 33 0 0
BITMAP
7FFFFFFF00
FFFFFFFF80
C000000180
C000000180
CFFFFF0180
CFFFFE0180
CFFFF80180
CFFFF00180
CFFFE00180
CFFF800180
CFFF000180
CFFC000180
CFF8000180
CFE0000180
CFC0000180
CF80000180
CE00000180
CC00000180
C000000180
C000000180
C000000180
FFFFFFFF80
FFFFFFFF80
FFFFFFFF80
FFFFFFFF80
FFFFFFFF80
7FFFFFFF00
0003E00000
0003E00000
0003E00000
0003E00000
003FFE0000
003FFE0000
ENDCHAR
STARTCHAR F0FC
ENCODING 61692
SWIDTH 990 0
DWIDTH 33 0
BBX 33 33 0 0
BITMAP
0400003000
0E00007800
1F0000FC00
3E0001FE00
7C0003FF00
F8E007FF80
71F007FF80
23F007FF00
07E1C3FE00
0FC7F1FC00
078FF8F800
031FFC7000
001F7C0000
003E3E0000
003C1E0000
003E3E0000
001FFC0000
001FFC0000
000FF80000
0007F00000
0000800000
0000000000
0000000000
000FF80000
000FF80000
000FF80000
0007F00000
0000000000
0000000000
000FF80000
000FF80000
000FF80000
0007F00000
ENDCHAR
STARTCHAR F0FD
ENCODING 61693
SWIDTH 990 0
DWIDTH 33 0
BBX 31 27 2 4
BITMAP
3FFFFFF8
7FFFFFFC
FFFFFFFE
FFFFFFFE
FFC007FE
FF8003FE
FF0001FE
FE0000FE
FC01007E
F803803E
F003801E
F001801E
F000001E
F000001E
F000001E
F0C0061E
F0C0061E
F0C0061E
F040041E
F000001E
F000001E
F000001E
F800003E
FFFFFFFE
FFFFFFFE
7FFFFFFC
3FFFFFF8
ENDCHAR
STARTCHAR F0FE
ENCODING 61694
SWIDTH 990 0
DWIDTH 33 0
BBX 25 33 4 0
BITMAP
007F0000
01FFC000
07FFF000
0FFFF800
1FC1FC00
3F007E00
3E1C3E00
7C7F1F00
78FF0F00
F8FF8F80
F07F0780
F03E0780
F0000780
F0000780
F0000F80
78000F00
78000F00
7C001F00
3E003E00
3F007E00
1FE3FC00
0FFFF800
07FFF000
01FFC000
001C0000
00000000
00000000
01FFC000
03FFE000
07FFF000
07FFF000
0FFFF800
0FFFF800
ENDCHAR
STARTCHAR F0FF
ENCODING 61695
SWIDTH 990 0
DWIDTH 33 0
BBX 33 33 0 0
BITMAP
001FFC0000
01FFFFC000
07FFFFF000
1FFFFFFC00
7FF80FFF00
FF8000FF80
FE00003F80
F000000780
0007F00000
007FFF0000
01FFFFC000
07FFFFF000
0FFE3FF800
0FE003F800
0F8000F800
0000000000
0000800000
000FF80000
001FFC0000
003FFE0000
007FFF0000
007C1F0000
0030060000
0000000000
0000000000
0003E00000
0007F00000
0007F00000
000FF80000
000FF80000
0007F00000
0007F00000
0001C00000
ENDCHAR
STARTCHAR F100
ENCODING 61696
SWIDTH 990 0
DWIDTH 33 0
BBX 29 33 2 0
BITMAP
00000030
00000078
00000078
00000078
00000078
00000078
00000078
00000078
00003078
00007878
00007878
00007878
00007878
00007878
00007878
00007878
00007878
00707878
00F07878
00F07878
00F07878
00F07878
00F07878
00F07878
00F07878
70F07878
F0F07878
F0F07878
F0F07878
F0F07878
F0F07878
F0F07878
60707030
ENDCHAR
STARTCHAR F101
ENCODING 61697
SWIDTH 990 0
DWIDTH 33 0
BBX 29 33 2 0
BITMAP
001FC000
003FE000
003FE000
003FE000
3FFFFFC0
7FFFFFF0
FFFFFFF8
FFFFFFF8
F80000F8
F0000078
F1FFFC78
F3FFFE78
F3FFFE78
F3FFFE78
F0000078
F0000078
F1FFFC78
F3FFFE78
F3FFFE78
F3FFFE78
F1FFFC78
F0000078
F0000078
F3FFFE78
F3FFFE78
F3FFFE78
F1FFFC78
F0000078
F80000F8
FFFFFFF8
FFFFFFF8
7FFFFFF0
3FFFFFE0
ENDCHAR
STARTCHAR F102
ENCODING 61698
SWIDTH 990 0
DWIDTH 33 0
BBX 29 33 2 0
BITMAP
001FC000
003FE000
003FE000
003FE000
3FFFFFC0
7FFFFFF0
FFFFFFF8
FFFFFFF8
F80000F8
F0000078
F0000078
F0000078
F0000078
F0000078
F0000078
F0000078
F1FFFC78
F3FFFE78
F3FFFE78
F3FFFE78
F1FFFC78
F0000078
F0000078
F3FFFE78
F3FFFE78
F3FFFE78
F1FFFC78
F0000078
F80000F8
FFFFFFF8
FFFFFFF8
7FFFFFF0
3FFFFFE0
ENDCHAR
STARTCHAR F103
ENCODING 61699
SWIDTH 990 0
DWIDTH 33 0
BBX 29 33 2 0
BITMAP
001FC000
003FE000
003FE000
003FE000
3FFFFFC0
7FFFFFF0
FFFFFFF8
FFFFFFF8
F80000F8
F0000078
F0000078
F0000078
F0000078
F0000078
F0000078
F0000078
F0000078
F0000078
F0000078
F0000078
F0000078
F0000078
F0000078
F3FFFE78
F3FFFE78
F3FFFE78
F1FFFC78
F0000078
F80000F8
FFFFFFF8
FFFFFFF8
7FFFFFF0
3FFFFFE0
ENDCHAR
STARTCHAR F104
ENCODING 61700
SWIDTH 990 0
DWIDTH 33 0
BBX 29 33 2 0
BITMAP
001FC000
003FE000
003FE000
003FE000
3FFFFFC0
7FFFFFF0
FFFFFFF8
FFFFFFF8
F80000F8
F0000078
F0020078
F0020078
F0020078
F0030078
F0030078
F0038078
F0038078
F01F8078
F01FC078
F01FC078
F00FE078
F00E0078
F0060078
F0060078
F0020078
F0020078
F0020078
F0000078
F80000F8
FFFFFFF8
FFFFFFF8
7FFFFFF0
3FFFFFE0
ENDCHAR
STARTCHAR F105
ENCODING 61701
SWIDTH 990 0
DWIDTH 33 0
BBX 33 33 0 0
BITMAP
0FF07F8000
0FF0FF8000
0FF0FF8000
0FF0FF8000
0FF0FF8000
0FF0FF8000
0FF0FF8000
0FF07F8000
0000000000
0000000000
0000000000
0000000000
7F07F07F00
FF0FF87F80
FF0FF87F80
FF0FF87F80
FF0FF87F80
FF0FF87F80
FF0FF87F80
FF0FF87F80
7F07F07F00
0000000000
0000000000
0000000000
0000000000
03FC1FE000
03FC1FE000
03FC1FE000
03FC1FE000
03FC1FE000
03FC1FE000
03FC1FE000
03FC1FE000
ENDCHAR
STARTCHAR F106
ENCODING 61702
SWIDTH 990 0
DWIDTH 33 0
BBX 29 33 2 1
BITMAP
01FFFFF0
03FFFFF8
07FFFFF8
0FFFFFF8
1FBBBB98
3F339998
73339998
F3339998
F3339998
F3339998
F3FFFFF8
F3FFFFF8
FFFFFFF8
FFFFFFF8
FFFFFFF8
FFFFFFF8
FFFFFFF8
3FFFFFE0
3FFFFFE0
3FFFFFE0
7FFFFFF0
FFFFFFF8
FFFFFFF8
FFFFFFF8
FFFFFFF8
FFFFFFF8
FFFFFFF8
FFFFFFF8
FFFFFFF8
FFFFFFF8
FFFFFFF8
7FFFFFF0
3FFFFFE0
ENDCHAR
STARTCHAR F107
ENCODING 61703
SWIDTH 990 0
DWIDTH 33 0
BBX 29 33 2 0
BITMAP
01FFFFF0
03FFFFF8
03BBB998
03339998
03339998
03339998
03339998
03339998
07FFFFF8
0FFFFFF8
1FFFFFF8
3FFFFFF8
7FFFFFF8
FFFFFFF8
FFFFFFF8
FFFFFFF8
FFFFFFF8
3FFFFFF8
3FFFFFF8
3FFFFFF8
3FFFFFF8
3FFFFFF8
7FFFFFF8
FFFFFFF8
FFFFFFF8
FFFFFFF8
FFFFFFF8
FFFFFFF8
FFFFFFF8
FFFFFFF8
FFFFFFF8
7FFFFFF0
3FFFFFE0
ENDCHAR
STARTCHAR F108
ENCODING 61704
SWIDTH 990 0
DWIDTH 33 0
BBX 33 33 0 0
BITMAP
F000000000
F000000000
3000000000
3000000000
3000000000
3000000000
33FFFFFF80
33FFFFFF80
33FC000380
33F8000180
33F1FFF180
33F3FFF980
33F3FDF980
33F3F07980
33F3E23980
33F3E71980
33F3E79980
33F3E79980
33F3E23980
33F3F07980
33F3FDF980
33F3FFF980
33F1FFF180
33F8000180
33F8000380
33FFFFFF80
33FFFFFF80
33FFFFFF80
33FFFFFF80
30CCE66600
30CCE66600
30CCE66600
30C4466600
ENDCHAR
STARTCHAR F109
ENCODING 61705
SWIDTH 990 0
DWIDTH 33 0
BBX 33 33 0 0
BITMAP
3CF1C78000
7CF3E7C000
FCF3E7C000
FCF3C7E000
F00003E000
F00001E000
0000000000
0000000000
F00001C000
F00001E000
F00001E000
F00001E000
0000000000
0000000000
6000000000
F000000000
F000000000
F00001C000
600001E000
000001E000
000001E000
F00001E000
F80001E000
FCF07FFF80
FCF07FFF80
7CF07FFF80
1C703FFF00
000001E000
000001E000
000001E000
000001E000
000001E000
000001C000
ENDCHAR
STARTCHAR F10A
ENCODING 61706
SWIDTH 990 0
DWIDTH 33 0
BBX 33 33 0 0
BITMAP
0001C00000
0001C00000
0003E00000
0001C00000
0600003000
0F00007800
0F03E07800
071FFC7000
003FFE0000
007FFF0000
00FF7F8000
01F80FC000
01F007C000
01E003C000
03E003E000
F3C001E780
F3C001E780
F3C001E780
03E003E000
01E003C000
01F007C000
01F80FC000
00FE3F8000
007FFF0000
003FFE0000
071FFC7000
0F03E07800
0F00007800
0600003000
0001C00000
0003C00000
0001C00000
0001C00000
ENDCHAR
STARTCHAR F10B
ENCODING 61707
SWIDTH 990 0
DWIDTH 33 0
BBX 33 33 0 0
BITMAP
0001C00000
0001C00000
0003E00000
0001C00000
0600003000
0F00007800
0F03E07800
071FFC7000
003FFE0000
007FFF0000
00FFFF8000
01FFFFC000
01FFFFC000
01FFFFC000
03FFFFE000
F3FFFFE780
F3FFFFE780
F3FFFFE780
03FFFFE000
01FFFFC000
01FFFFC000
01FFFFC000
00FFFF8000
007FFF0000
003FFE0000
071FFC7000
0F03E07800
0F00007800
0600003000
0001C00000
0003C00000
0001C00000
0001C00000
ENDCHAR
STARTCHAR F10C
ENCODING 61708
SWIDTH 990 0
DWIDTH 33 0
BBX 33 33 0 0
BITMAP
0001C00000
0001C00000
0003E00000
0001C00000
0600003000
0F00007800
0F03E07800
071FFC7000
003FFE0000
007FFF0000
00FFFF8000
01FF8FC000
01FF87C000
01FF83C000
03FF83E000
F3FF81E780
F3FF81E780
F3FF81E780
03FF83E000
01FF83C000
01FF87C000
01FF8FC000
00FFBF8000
007FFF0000
003FFE0000
071FFC7000
0F03E07800
0F00007800
0600003000
0001C00000
0003C00000
0001C00000
0001C00000
ENDCHAR
STARTCHAR F10D
ENCODING 61709
SWIDTH 990 0
DWIDTH 33 0
BBX 23 33 6 0
BITMAP
001000
003800
003800
007C00
007C00
00FE00
003800
003800
00387C
00387E
00387E
00387E
10387E
7C387E
FC3818
FC3818
FC3830
7C3870
3039E0
303FC0
183E00
1C3800
0E3800
07F800
01F800
003800
003800
003800
007C00
00FE00
00FE00
007C00
003800
ENDCHAR
STARTCHAR F10E
ENCODING 61710
SWIDTH 990 0
DWIDTH 33 0
BBX 31 33 2 0
BITMAP
3FFFFFF8
7FFFFFFC
FFFEFFFE
FFFC7FFE
FFFC7FFE
FFF83FFE
FFF83FFE
FFF01FFE
FFFE783E
FFFE781E
FCFE781E
F83E781E
F03E781E
F03E781E
F03E7E7E
F83E7E7E
FCFE7CFE
FCFE78FE
FE7E61FE
FE3E03FE
FF0E1FFE
FF807FFE
FFF07FFE
FFFE7FFE
FFFE7FFE
FFFC7FFE
FFF83FFE
FFF01FFE
FFF01FFE
FFF83FFE
FFFC7FFE
7FFFFFFC
3FFFFFF8
ENDCHAR
STARTCHAR F10F
ENCODING 61711
SWIDTH 990 0
DWIDTH 33 0
BBX 25 33 4 0
BITMAP
3FFFFE00
3FFFFE00
30FF8600
30FF8600
30FF8600
30FF8600
3FFFFE00
3FFFFE00
00000000
00000000
7FFFFF00
FFFFFF80
FFFFFF80
FFFFFF80
FFFFFF80
FFFFFF80
FFFFFF80
FFFFFF80
FFFFFF80
FFFFFF80
FFFFFF80
FFFFFF80
FFFFFF80
FFFFFF80
7FFFFF00
3FFFFE00
1FFFFC00
0FFFF800
07FFF000
00FF8000
00FF8000
00FF8000
007F0000
ENDCHAR
STARTCHAR F110
ENCODING 61712
SWIDTH 990 0
DWIDTH 33 0
BBX 33 33 0 0
BITMAP
7E07F07F00
FF0FF87F80
FF0FF87F80
FF0FF87F80
FF0FF87F80
FF0FF87F80
FF0FF87F80
FF07F07F80
0000000000
0000000000
0000000000
0000000000
7E03E03F00
FF07F07F80
FF0FF87F80
FF0FF87F80
FF0FF87F80
FF0FF87F80
FF0FF87F80
FF07F07F80
7E03E03F00
0000000000
0000000000
0000000000
0000000000
FF07F07F00
FF0FF87F80
FF0FF87F80
FF0FF87F80
FF0FF87F80
FF0FF87F80
FF0FF87F80
7F07F03F00
ENDCHAR
STARTCHAR F111
ENCODING 61713
SWIDTH 990 0
DWIDTH 33 0
BBX 33 33 0 0
BITMAP
7E07FFFF00
FF0FFFFF80
FF0FFFFF80
FF0FFFFF80
FF0FFFFF80
FF0FFFFF80
FF0FFFFF80
FF07FFFF80
0000000000
0000000000
0000000000
0000000000
7E03FFFF00
FF07FFFF80
FF0FFFFF80
FF0FFFFF80
FF0FFFFF80
FF0FFFFF80
FF0FFFFF80
FF07FFFF80
7E03FFFF00
0000000000
0000000000
0000000000
0000000000
FF07FFFF00
FF0FFFFF80
FF0FFFFF80
FF0FFFFF80
FF0FFFFF80
FF0FFFFF80
FF0FFFFF80
7F07FFFF00
ENDCHAR
STARTCHAR F112
ENCODING 61714
SWIDTH 990 0
DWIDTH 33 0
BBX 33 33 0 0
BITMAP
7FFC1FFF00
FFFC1FFF80
FFFC1FFF80
FFFC1FFF80
F03C1E0780
F03C1E0780
F03C1E0780
F03C1E0780
F03C1E0780
F03C1E0780
FFFC1FFF80
FFFC1FFF80
FFFC1FFF80
FFFC1FFF80
0000000000
0000000000
0000000000
0000000000
0000000000
FFFC1FFF80
FFFC1FFF80
FFFC1FFF80
FFFC1FFF80
F03C1E0780
F03C1E0780
F03C1E0780
F03C1E0780
F03C1E0780
F03C1E0780
FFFC1FFF80
FFFC1FFF80
FFFC1FFF80
7FFC1FFF00
ENDCHAR
STARTCHAR F113
ENCODING 61715
SWIDTH 990 0
DWIDTH 33 0
BBX 33 33 0 0
BITMAP
7E00000000
FF00000000
FF07FFFF00
FF0FFFFF80
FF0FFFFF80
FF07FFFF00
FF00000000
FF00000000
0000000000
0000000000
0000000000
0000000000
7E00000000
FF00000000
FF03FFFE00
FF07FFFF80
FF0FFFFF80
FF07FFFF80
FF03FFFE00
FF00000000
7E00000000
0000000000
0000000000
0000000000
0000000000
FF00000000
FF00000000
FF07FFFF00
FF0FFFFF80
FF0FFFFF80
FF07FFFF00
FF00000000
7F00000000
ENDCHAR
STARTCHAR F114
ENCODING 61716
SWIDTH 990 0
DWIDTH 33 0
BBX 33 33 0 0
BITMAP
3FFFFFFE00
7FFFFFFF00
FFF8E3CF80
FFF0E18780
FFF0E18780
FFF8E38F80
FFFFFFFF80
FFFFFFFF80
F800000F80
F000000780
F000000780
F000000780
F040000780
F0E0000780
F070000780
F038000780
F01C000780
F00C000780
F01C000780
F038000780
F070000780
F0E07F8780
F0407F0780
F000000780
F000000780
F000000780
F000000780
F000000780
F800000F80
FFFFFFFF80
FFFFFFFF80
7FFFFFFF00
3FFFFFFE00
ENDCHAR
STARTCHAR F115
ENCODING 61717
SWIDTH 990 0
DWIDTH 33 0
BBX 31 29 2 2
BITMAP
3FFFFFF8
7FFFFFFC
FFFFFFFE
FFFFFFFE
F800003E
F000001E
F000001E
F000001E
F000001E
F000001E
F000001E
F000001E
F000001E
F000001E
F000001E
F000001E
F000001E
F000001E
F000001E
F000001E
F800003E
FFFE7FFE
FFFE7FFE
FFFE7FFE
FFFE7FFE
FFFE7FFE
FFFE7FFE
7FFE7FFC
3FFE7FF8
ENDCHAR
STARTCHAR F116
ENCODING 61718
SWIDTH 990 0
DWIDTH 33 0
BBX 33 33 0 0
BITMAP
3FFC0FFE00
7FFC0FFF00
FFF81FFF80
FFF01FFF80
FFFC0FFF80
FFFC07FF80
FFF81FFF80
FFF01FFF80
FFFC0FFF80
FFFC07FF80
FFF81FFF80
FFF01FFF80
FFFC0FFF80
FFFC07FF80
FFF81FFF80
FFF01FFF80
FFFC1FFF80
FFFC07FF80
FFFC0FFF80
FFF80FFF80
FFF007FF80
FFF007FF80
FFF007FF80
FFF1C7FF80
FFF3E7FF80
FFF1C7FF80
FFF1C7FF80
FFF00FFF80
FFF80FFF80
FFFFFFFF80
FFFFFFFF80
7FFFFFFF00
3FFFFFFE00
ENDCHAR
STARTCHAR F117
ENCODING 61719
SWIDTH 990 0
DWIDTH 33 0
BBX 33 33 0 0
BITMAP
0007F00000
000FF80000
7FCFF9FF00
FFCFF9FF80
FFCFF9FF80
FFCFF9FF80
FFCFF9FF80
FF8FF8FF80
FF9FFCFF80
FF3FFE7F80
003FFE0000
003BEE0000
7F33E67F00
FF33E67F80
FF33E67F80
FF31C67F80
FF30867F80
FF30067F80
FF30067F80
FF30067F80
7F30067F00
00380E0000
003C1E0000
FF3FFE7F80
FF9FFCFF80
FF8FF8FF80
FFCFF9FF80
FFCFF9FF80
FFCFF9FF80
FFCFF9FF80
7FCFF9FF00
000FF80000
0007F00000
ENDCHAR
STARTCHAR F118
ENCODING 61720
SWIDTH 990 0
DWIDTH 33 0
BBX 33 25 0 4
BITMAP
3FFFFFFE00
7FFFFFFF00
FFFFFFFF80
FFFFFFFF80
F000000780
F000000780
F3FFFC0780
F3FFF80780
F3FFF00780
F3FFC00780
F3FF800780
F3FF000780
F3FC000780
F3F8000780
F3F0000780
F3C0000780
F380000780
F300000780
F000000780
F000000780
F000000780
FFFFFFFF80
FFFFFFFF80
7FFFFFFF00
3FFFFFFE00
ENDCHAR
STARTCHAR F119
ENCODING 61721
SWIDTH 990 0
DWIDTH 33 0
BBX 33 29 0 2
BITMAP
F3CF1E7800
F3CF9E7800
F3CF9E7800
F3CF9E7800
0000000000
0000000000
FCF1C79E00
FCF3E79E00
FCF3E79E00
FCF3E79E00
0000000000
0000000000
FF1C71C780
FF3CF9E780
FF3CF9E780
FF3CF9E780
FF1C71C780
0000000000
0000000000
FCF3E79E00
FCF3E79E00
FCF3E79E00
FCF1C79E00
0000000000
0000000000
F3CFFFE780
F3CFFFE780
F3CFFFE780
F3CFFFE780
ENDCHAR
STARTCHAR F11A
ENCODING 61722
SWIDTH 990 0
DWIDTH 33 0
BBX 33 33 0 0
BITMAP
0007F00000
000FF80000
000FF80000
000FF80000
000FF80000
000FF80000
000FF80000
000FF80000
000FF80000
000FF80000
000FF80000
000FF80000
0FFFFFF800
07FFFFF000
03FFFFE000
01FFFFC000
00FFFF8000
007FFF0000
003FFE0000
001FFC0000
000FF80000
0007F00000
0003E00000
0001C00000
F000800780
F000000780
F000000780
F000000780
F800000F80
FFFFFFFF80
FFFFFFFF80
7FFFFFFF00
3FFFFFFE00
ENDCHAR
STARTCHAR F11B
ENCODING 61723
SWIDTH 990 0
DWIDTH 33 0
BBX 33 33 0 0
BITMAP
0001C00000
0003E00000
0007F00000
000FF80000
001FFC0000
003FFE0000
007FFF0000
00FFFF8000
01FFFFC000
03FFFFE000
07FFFFE000
07FFFFF000
000FF80000
000FF80000
000FF80000
000FF80000
000FF80000
000FF80000
000FF80000
000FF80000
000FF80000
000FF80000
000FF80000
0007F00000
F007F00780
F000000780
F000000780
F000000780
F800000F80
FFFFFFFF80
FFFFFFFF80
7FFFFFFF00
3FFFFFFE00
ENDCHAR
STARTCHAR F11C
ENCODING 61724
SWIDTH 990 0
DWIDTH 33 0
BBX 33 33 0 0
BITMAP
000000C000
000001E000
000003E000
000007F000
000007F800
00000FFC00
00001FFE00
00003FFF00
07E07FFF80
0FF07FFF80
0FF007F800
0FF007F800
0FF007F800
0FF007F800
0FF007F800
0FF007F800
0FF007F800
0FF007F800
0FF007F800
0FF007F800
0FF007F800
0FF007F800
0FF007F800
FFFF87F800
FFFF03F000
7FFE000000
3FFC000000
1FF8000000
0FF8000000
07F0000000
03E0000000
01C0000000
0080000000
ENDCHAR
STARTCHAR F11D
ENCODING 61725
SWIDTH 990 0
DWIDTH 33 0
BBX 33 33 0 0
BITMAP
0001C00000
0003C00000
0003E00000
0003E00000
0603E03000
0F03E07800
1F03E07C00
1F03E07C00
3E03E03E00
3C03E01E00
7C03E01F00
7803E00F00
F803E00F00
F003E00F80
F003E00780
F001C00780
F000800780
F000000780
F000000780
F000000F80
F800000F80
7800000F00
7C00001F00
7C00001E00
3E00003E00
1F00007C00
1F8000FC00
0FE003F800
07FC1FF000
03FFFFE000
00FFFF8000
003FFE0000
000FF00000
ENDCHAR
STARTCHAR F11E
ENCODING 61726
SWIDTH 990 0
DWIDTH 33 0
BBX 33 33 0 0
BITMAP
000FF00000
003FFE0000
00FFFF8000
03FFFFE000
07FC1FF000
0FE003F800
1F8000FC00
1F00007C00
3E00803E00
3C01C01E00
7C03E01F00
7803E00F00
F803E00F80
F003E00F80
F003E00780
F003E00780
F003E00780
F003E00780
F003E00780
F003E00F80
F803E00F80
7803E00F00
7C03E01F00
7C01C01E00
3E00803E00
1F00007C00
1F8000FC00
0FE003F800
07FC1FF000
03FFFFE000
00FFFF8000
003FFE0000
000FF80000
ENDCHAR
STARTCHAR F11F
ENCODING 61727
SWIDTH 990 0
DWIDTH 33 0
BBX 33 33 0 0
BITMAP
0001C00000
0003C00000
0003E00000
0003E00000
0603E03000
0F03E07800
0F83E0F800
07E1C3F000
03E003E000
01E003C000
00E0038000
0000000000
0000000000
0000000000
3E00003E00
FF00007F80
FF00007F80
FF00007F80
3E00003E00
0000000000
0000000000
0000000000
01E0038000
03E003C000
03E003E000
07C1C3F000
0F83E0F800
0F03E07800
0603E03000
0003E00000
0003E00000
0001C00000
0001C00000
ENDCHAR
STARTCHAR F120
ENCODING 61728
SWIDTH 990 0
DWIDTH 33 0
BBX 33 33 0 1
BITMAP
000000F000
000001F800
0001F9F800
0003F9F800
0003F9F800
0041F8F000
00E1FC0000
01E0FE0C00
03F007FE00
03F001FE00
07F800FF00
03F0007F00
31E0003F80
7CE0003F80
FCE0000000
FCC0000000
FCC0000000
78C0000000
01E0001F80
03E0003F80
07E0003F80
07F0007F00
07F800FF00
03F001FE00
01F08FFE00
01E0FE0400
00C1FC0000
0041F8F000
0003F9F800
0007F9F800
0001F9F800
000001F800
000000F000
ENDCHAR
STARTCHAR F121
ENCODING 61729
SWIDTH 990 0
DWIDTH 33 0
BBX 25 33 4 1
BITMAP
7FFFC000
FFFFE000
FFFFF000
FFFFF800
FFFFFC00
FFFFFE00
FFFFFF00
FFFFFF80
FFFFFF80
FFFFFF80
FFFFFF80
FFFFFF80
F38E7F80
C30E3F80
C30E1F80
C30E1F80
E79F3F80
FFFFFF80
FFFFFF80
C30E1F80
C30E1F80
C30E1F80
C30E1F80
C30E1F80
E38E3F80
FFFFFF80
FFFFFF80
C30E1F80
C30E1F80
C30E1F80
E38E3F80
FFFFFF80
7FFFFF00
ENDCHAR
STARTCHAR F122
ENCODING 61730
SWIDTH 990 0
DWIDTH 33 0
BBX 33 33 0 0
BITMAP
7FFFFFFF00
FFFFFFFF80
FFFFFFFF80
7FFFFFFF00
0F00007800
0F00007800
0F00007800
0F00007800
0F8000F800
078000F000
07FFFFF000
07FFFFF000
03FFFFE000
01FFFFC000
01FFFFC000
00FFFF8000
003FFE0000
00FFFF8000
01FFFFC000
01FBEFC000
03E3E3E000
07C3E1F000
0783E0F000
0783E0F000
0F83E0F800
0F03E07800
0F0FF87800
0F3FFE7800
0F7FFF7800
7FFFFFFF00
FFFFFFFF80
FFFFFFFF80
7FFFFFFF00
ENDCHAR
STARTCHAR F123
ENCODING 61731
SWIDTH 990 0
DWIDTH 33 0
BBX 33 33 0 0
BITMAP
7FFFFFFF00
FFFFFFFF80
FFFFFFFF80
7FFFFFFF00
0F00007800
0F00007800
0F00007800
0F00007800
0F8000F800
078000F000
078000F000
07C001F000
03E003E000
01F80FC000
01FFFFC000
00FFFF8000
003FFE0000
00FFFF8000
01FFFFC000
01F80FC000
03E003E000
07C001F000
078000F000
078000F000
0F8000F800
0F00007800
0F00007800
0F00007800
0F00007800
7FFFFFFF00
FFFFFFFF80
FFFFFFFF80
7FFFFFFF00
ENDCHAR
STARTCHAR F124
ENCODING 61732
SWIDTH 990 0
DWIDTH 33 0
BBX 33 33 0 0
BITMAP
3FFFFFFE00
7FFFFFFF00
FFFFFFFF80
FFFFFFFF80
F000F80780
F000F80780
F000F80780
F000F80780
F000F80780
F000F80780
FFFFF80780
FFFFF80780
FFFFF80780
FFFFF80780
F000F80780
F000F80780
F000F80780
F000F80780
F000F80780
F000F80780
F000F80780
F000F80780
F000F80780
F000F80780
F000F80780
F000F80780
F000F80780
F000F80780
F000F80780
FFFFFFFF80
FFFFFFFF80
7FFFFFFF00
3FFFFFFE00
ENDCHAR
STARTCHAR F125
ENCODING 61733
SWIDTH 990 0
DWIDTH 33 0
BBX 33 33 0 0
BITMAP
07FFFFF000
0FFFFFF800
0FFFFFF800
0FFFFFF800
0FFFFFF800
0FFFFFF800
0FFFFFF800
0FFFFFF800
0FFFFFF800
0FFFFFF800
0000000000
0000000000
1FFFFFFC00
7FFFFFFF00
7FFFFFFF00
FFFFFFFF80
FC00001F80
F000000780
F000000780
F1C0000780
F3C0000780
F3C0000780
F180000780
F000000780
F800000F80
FFFFFFFF80
FFFFFFFF80
7FFFFFFF00
3FFFFFFE00
0FFFFFF800
0FFFFFF800
0FFFFFF800
07FFFFF000
ENDCHAR
STARTCHAR F126
ENCODING 61734
SWIDTH 990 0
DWIDTH 33 0
BBX 21 33 6 0
BITMAP
01FC00
07FF00
0FFF80
1FFFC0
3FFFE0
7FFFF0
7F8FF0
7F8FF0
FF07F8
FF8FF8
FFFFF8
FFFFF8
FFFFF8
FFFFF8
FFFFF8
FFFFF8
FFFFF8
FFFFF8
FFFFF8
FFFFF8
FFFFF8
FFFFF8
FFFFF8
FFFFF8
FFFFF8
7FFFF0
7FFFF0
7FFFF0
3FFFE0
1FFFC0
0FFF80
07FF00
01FC00
ENDCHAR
STARTCHAR F127
ENCODING 61735
SWIDTH 990 0
DWIDTH 33 0
BBX 33 33 0 0
BITMAP
3FFFFFFE00
7FFFFFFF00
FFFFFFFF80
FFFFFFFF80
FFFFFFFF80
FFFFFFFF80
7FFFFFFF00
3FFFFFFE00
0000000000
0000000000
0000000000
0000000000
1FFFFFFC00
7FFFFFFF00
7FFFFFFF00
FFFFFFFF80
FFFFFFFF80
FFFFFFFF80
FFFFFFFF00
7FFFFFFF00
1FFFFFFC00
0000000000
0000000000
0000000000
0000000000
3FFFFFFE00
7FFFFFFF00
FFFFFFFF80
FFFFFFFF80
FFFFFFFF80
FFFFFFFF80
7FFFFFFF00
3FFFFFFE00
ENDCHAR
STARTCHAR F128
ENCODING 61736
SWIDTH 990 0
DWIDTH 33 0
BBX 33 33 0 0
BITMAP
0007F00000
003FFE0000
00FFFF8000
03FFFFE000
07FC1FF000
0FF003F800
1FF000FC00
1FF800FC00
3FF801FE00
3FFC039E00
7FFC071F00
7FFC060F00
F9FE880F00
F87FF00F80
F00F700780
F00E300780
F00C180780
F00E3FFF80
F0077FFF80
F007FE3F80
F808BE1F00
78307E1F00
7C707E1F80
3CE0600180
3FC0F00380
1F80780780
1F807C0F80
0FE07E1F80
07F87F3F00
03FFFFFE00
00FFFFFE00
003FFFF800
0007FBE000
ENDCHAR
STARTCHAR F129
ENCODING 61737
SWIDTH 990 0
DWIDTH 33 0
BBX 27 33 4 0
BITMAP
00398000
01F9F000
03F9F800
0FF9FE00
1FE0FF00
1F803F00
3E1F0F80
7C7FC7C0
7C7FE7C0
78FFE3C0
F87FC3E0
F03F81E0
F00001E0
F00001E0
F00001E0
F00001E0
F80003E0
780003C0
7C0007C0
3E0007C0
3F001F80
1F803F00
0FF1FE00
07F9FC00
03F9F800
00F9E000
00190000
08000300
1F001F00
3FFFFF80
3FFFFF80
3FFFFF80
07FFFC00
ENDCHAR
STARTCHAR F12A
ENCODING 61738
SWIDTH 990 0
DWIDTH 33 0
BBX 33 25 0 4
BITMAP
1800000C00
3C00001E00
3C00001E00
1E00003C00
0700007000
038000E000
01C3E1C000
00FFFF8000
00FFFF8000
01FFFFC000
07FFFFE000
0FFFFFF000
0FFFFFF800
1FFFFFFC00
3FFFFFFE00
3E3FFE3E00
7C3FFE1F00
7C3FFE1F00
7E7FFF3F00
FFFFFFFF80
FFFFFFFF80
FFFFFFFF80
FFFFFFFF80
FFFFFFFF80
7FFFFFFF00
ENDCHAR
STARTCHAR F12B
ENCODING 61739
SWIDTH 990 0
DWIDTH 33 0
BBX 25 33 4 0
BITMAP
00700000
00F80000
00FE0000
00FF8000
00FFC000
00FFF000
00FBFC00
00F8FF00
60F83F80
F8F81F80
FCF87F00
7FF8FE00
3FFBF800
0FFFF000
07FFC000
01FF8000
00FE0000
01FF8000
07FFC000
0FFFF000
3FFBF800
7FF8FE00
FCF87F00
F8F81F80
60F83F80
00F8FF00
00FBFC00
00FFF000
00FFC000
00FF8000
00FE0000
00F80000
00700000
ENDCHAR
STARTCHAR F12C
ENCODING 61740
SWIDTH 990 0
DWIDTH 33 0
BBX 33 33 0 0
BITMAP
000FF80000
007FFF0000
01FFFFC000
03FFFFE000
0FFFFFF000
1FFFFFF800
1FFFFFFC00
3FFFFFFE00
7FFFFFFE00
7FFFFFFF00
7FFFFFFF00
FFFFFFFF80
FFFFFFFF80
FFFFFFFF80
FFFFFFFF80
FFFFFFFF80
FFFFFFFF80
FFFFFFFF80
7FFFFFFF00
7FFFFFFF00
3FFFFFFE00
3FFFFFFE00
1FFFFFFC00
0FFFFFF800
07FFFFF000
03FFFFE000
03FFFFC000
03FFFF0000
03F7F00000
03E0000000
03C0000000
0380000000
0600000000
ENDCHAR
STARTCHAR F12D
ENCODING 61741
SWIDTH 990 0
DWIDTH 33 0
BBX 33 33 0 0
BITMAP
000FF80000
007FFF0000
01FFFFC000
03FFFFE000
0FFFFFF000
1FFFFFF800
1FFFFFFC00
3FFFFFFE00
7FFFFFFE00
7FFFFFFF00
7FFFFFFF00
FFFFFFFF80
FF7F7F7F80
FC3E3E1F80
FC3C1E1F80
FC3E3E3F80
FFFFFFFF80
FFFFFFFF80
7FFFFFFF00
7FFFFFFF00
3FFFFFFE00
3FFFFFFE00
1FFFFFFC00
0FFFFFF800
07FFFFF000
03FFFFE000
03FFFFC000
03FFFF0000
03F7F00000
03E0000000
03C0000000
0380000000
0600000000
ENDCHAR
STARTCHAR F12E
ENCODING 61742
SWIDTH 990 0
DWIDTH 33 0
BBX 33 33 0 0
BITMAP
0FFFFFF800
3FFFFFFE00
7FFFFFFF00
7FFFFFFF00
FC00001F80
F800000F80
F000000780
F000000780
F000000780
F000000780
F000000780
F000000780
F000000780
F000000780
F000000780
F000000780
F000000780
F000000780
F000000780
F800000F80
FE00003F80
7FFFFFFF00
7FFFFFFF00
3FFFFFFE00
0FFFFFF800
000FF00000
000FE00000
000FC00000
000F800000
000F000000
000E000000
000C000000
0008000000
ENDCHAR
STARTCHAR F12F
ENCODING 61743
SWIDTH 990 0
DWIDTH 33 0
BBX 33 33 0 0
BITMAP
0FFFFFF800
3FFFFFFE00
7FFFFFFF00
7FFFFFFF00
FFFFFFFF80
FFFFFFFF80
FE0FF0FF80
FC0FE07F80
FC3FE1FF80
FC3FE1FF80
FC07E03F80
FC03E01F80
FC03E01F80
FC03E01F80
FC03E01F80
FC03E01F80
FC03E01F80
FC03E01F80
FF07F07F80
FFFFFFFF80
FFFFFFFF80
7FFFFFFF00
7FFFFFFF00
3FFFFFFE00
0FFFFFF800
0000FF0000
0000FE0000
0000FC0000
0000F80000
0000F00000
0000E00000
0000C00000
0000800000
ENDCHAR
STARTCHAR F130
ENCODING 61744
SWIDTH 990 0
DWIDTH 33 0
BBX 33 33 0 0
BITMAP
0FFFFFF800
3FFFFFFE00
7FFFFFFF00
7FFFFFFF00
FFFFFFFF80
FFFFFFFF80
FE00003F80
FC00001F80
FC00001F80
FE00003F80
FFFFFFFF80
FFFFFFFF80
FFFFFFFF80
FFFFFFFF80
FF00007F80
FC00001F80
FC00001F80
FC00001F80
FF00007F80
FFFFFFFF80
FFFFFFFF80
7FFFFFFF00
7FFFFFFF00
3FFFFFFE00
0FFFFFF800
0000FF0000
0000FE0000
0000FC0000
0000F80000
0000F00000
0000E00000
0000C00000
0000800000
ENDCHAR
STARTCHAR F131
ENCODING 61745
SWIDTH 990 0
DWIDTH 33 0
BBX 33 33 0 0
BITMAP
07E003F000
1FF80FF800
3FFC1FFE00
7FFE3FFE00
7FFF7FFF00
FFFF7FFF80
FFFF7FFF80
FFFF7FFF80
FFFFFFFF80
FFFFFFFF80
FFFFFFFF80
FFFFFFFF80
FFFFFFFF80
7FFFFFFF00
7FFFFFFF00
7FFFFFFF00
3FFFFFFE00
3FFFFFFE00
1FFFFFFC00
0FFFFFF800
0FFFFFF000
07FFFFF000
03FFFFE000
01FFFFC000
00FFFF8000
007FFF0000
003FFE0000
001FFC0000
000FF80000
0007F00000
0003E00000
0001C00000
0000800000
ENDCHAR
STARTCHAR F132
ENCODING 61746
SWIDTH 990 0
DWIDTH 33 0
BBX 33 33 0 0
BITMAP
07E003F000
1FF80FF800
3FFC1FFE00
7FFE3FFE00
7E3F7E3F00
F81F7C0F80
F80F780F80
F00F780780
F00FF80780
F007E00780
F000000780
F000000780
F800000F80
7800000F00
7800000F00
7C00001F00
3C00001E00
3E00003E00
1F00007C00
0F0000F800
0F8000F000
07C001F000
03E003E000
01F007C000
00F80F8000
007C1F0000
003E3E0000
001F7C0000
000FF80000
0007F00000
0003E00000
0001C00000
0000800000
ENDCHAR
STARTCHAR F133
ENCODING 61747
SWIDTH 990 0
DWIDTH 33 0
BBX 33 33 0 1
BITMAP
000FF80000
003FFE0000
007FFF0000
00FFFF8000
01FFFFC000
01FFFFC000
03FFFFE000
03FFFFE000
03FFFFE000
03FFFFE000
03FFFFE000
03FFFFE000
03FFFFE000
01FFFFC000
01FFFFC000
01FFFFC000
01FFFFC000
00FFFF8000
00FFFF8000
007FFF0000
003FFE0000
000FFC0000
000FF80000
007FFF0000
03FFFFE000
0FFFFFF800
1FFFFFFC00
7FFFFFFE00
7FFFFFFF00
FFFFFFFF80
FFFFFFFF80
FFFFFFFF80
0FFFFFF800
ENDCHAR
STARTCHAR F134
ENCODING 61748
SWIDTH 990 0
DWIDTH 33 0
BBX 33 33 0 0
BITMAP
00000FC000
00003FE000
00007FF000
00007FF800
0000FFF800
0000FFF800
00007FF800
00007FF800
00007FF800
00007FF000
00003FF000
00003FE000
00601FC000
03FE0FC000
07FF3FF800
0FFF3FFE00
0FFF1FFF00
0FFF9FFF80
0FFF1FFF80
0FFF1FFF80
0FFF1FF000
07FF000000
07FF000000
03FE000000
01FC000000
01F8000000
07FF000000
3FFFC00000
7FFFE00000
FFFFF00000
FFFFF80000
FFFFF80000
3FFFE00000
ENDCHAR
STARTCHAR F135
ENCODING 61749
SWIDTH 990 0
DWIDTH 33 0
BBX 33 33 0 0
BITMAP
7FFFFFC000
FFFFFFE000
FFFFFFE700
FFFFFFE780
FFFFFFE780
FFFFFFE780
FFFFFFE780
FFFFFFE780
FFE1FFE780
FF807FE780
FF803FE000
FF003FE000
FF001FE700
FF003FE780
FF003FE780
FF803FE780
FF803FE780
FF807FE780
FFC07FE780
FFE1FFE780
FF803FE700
FE001FE000
FE000FE000
FC0007E780
FF001FE780
FFFFFFE780
FFFFFFE780
FFFFFFE780
FFFFFFE780
FFFFFFE780
FFFFFFE700
FFFFFFE000
7FFFFFC000
ENDCHAR
STARTCHAR F136
ENCODING 61750
SWIDTH 990 0
DWIDTH 33 0
BBX 33 25 0 4
BITMAP
7FFFFFFF00
FFFFFFFF80
FFFFFFFF80
FFFFFFFF80
7FFFFFFF00
1FFFFFFC00
07FFFFF000
C1FFFFC180
F07FFF0780
FC1FFC1F80
FF07F07F80
FFC1C1FF80
FFE087FF80
FFF80FFF80
FFFE3FFF80
FFFFFFFF80
FFFFFFFF80
FFFFFFFF80
FFFFFFFF80
FFFFFFFF80
FFFFFFFF80
FFFFFFFF80
FFFFFFFF80
FFFFFFFF80
7FFFFFFF00
ENDCHAR
STARTCHAR F137
ENCODING 61751
SWIDTH 990 0
DWIDTH 33 0
BBX 33 29 0 2
BITMAP
018000C000
03C001E000
03C001E000
03C001E000
73CFF9E700
F3CFF9E780
F3CFF9E780
F1CFF9C780
F80FF80F80
F81FFC0F80
FFFFFFFF80
FFFFFFFF80
FFDFFFFF80
FE07FFFF80
FC03FC0380
FC03F80180
FC03FC0380
FC03FFFF80
FC03FFFF80
FE03F81F80
FE07F83F80
FF0FFFFF80
FF0FFFFF80
FC03F80180
F800F80180
F000FFFF80
F800FFFF80
FFFFFFFF80
7FFFFFFF00
ENDCHAR
STARTCHAR F138
ENCODING 61752
SWIDTH 990 0
DWIDTH 33 0
BBX 33 33 0 0
BITMAP
00001C0000
00001E0000
00001E0000
00001E0000
00003E0000
00003E0000
00007E0000
0000FE0000
0001FC0000
0003FC0000
0007F80000
000FF80000
001FF80000
003FF80000
007FFF0000
01FFFFFC00
3FFFFFFF00
7FFFFFFF80
FFFFFFFF80
FFFFFFFF80
FFFFFFFF00
FFFFFFFE00
FFFFFFFE00
FFFFFFFE00
FFFFFFFC00
FFFFFFFC00
FFFFFFFE00
FFFFFFFE00
FFFFFFFC00
FFFFFFF000
7FFFFFF800
07FFFFF800
00FFFFF000
ENDCHAR
STARTCHAR F139
ENCODING 61753
SWIDTH 990 0
DWIDTH 33 0
BBX 33 33 0 0
BITMAP
00FFFFF000
07FFFFF800
7FFFFFF800
FFFFFFF000
FFFFFFFC00
FFFFFFFE00
FFFFFFFE00
FFFFFFFC00
FFFFFFFC00
FFFFFFFE00
FFFFFFFE00
FFFFFFFE00
FFFFFFFF00
FFFFFFFF80
FFFFFFFF80
7FFFFFFF80
3FFFFFFF00
01FFFFFC00
007FFF0000
003FF80000
001FF80000
000FF80000
0007F80000
0003FC0000
0001FC0000
0000FE0000
00007E0000
00003E0000
00003E0000
00001E0000
00001E0000
00001E0000
00001C0000
ENDCHAR
STARTCHAR F13A
ENCODING 61754
SWIDTH 990 0
DWIDTH 33 0
BBX 33 31 0 -1
BITMAP
0000C00000
0001C00000
0003E00000
0003F00000
0007F00000
0007F80000
000FF80000
001FFC0000
001FFE0000
01FFFFC000
1FFFFFFE00
FFFFFFFF80
FFFFFFFF80
7FFFFFFF80
3FFFFFFF00
1FFFFFFE00
0FFFFFFC00
0FFFFFF800
07FFFFF000
03FFFFE000
01FFFFE000
01FFFFE000
01FFFFE000
01FFFFE000
03FFFFE000
03FFFFE000
03FFFFE000
03FF3FE000
03F80FE000
03E003E000
0380006000
ENDCHAR
STARTCHAR F13B
ENCODING 61755
SWIDTH 990 0
DWIDTH 33 0
BBX 33 31 0 -1
BITMAP
0000C00000
0001C00000
0003E00000
0003F00000
0007F00000
0007780000
000E380000
001E1C0000
001C1E0000
01FC0FC000
1FF80FFE00
FFF003FF80
FE00003F80
7800000F80
3C00000F00
1E00001E00
0E00003C00
0F00007800
078000F000
03C001E000
01C001E000
01C000E000
01C000E000
01C000E000
03C080E000
03C3F0E000
03DFFCE000
03FF3FE000
03F80FE000
03E003E000
0380006000
ENDCHAR
STARTCHAR F13C
ENCODING 61756
SWIDTH 990 0
DWIDTH 33 0
BBX 33 33 0 0
BITMAP
0007F00000
003FFE0000
00FFFF8000
03FFFFE000
07FFFFF000
0FFFFFF800
1FFFFFFC00
1FFFFFFC00
3F3FFE7E00
3E1FFC3E00
7E0FF83F00
7C0FF81F00
FC0FF81F00
FC0FF81F80
FE0FF83F80
FE1FFC3F80
FFFFFFFF80
FFFFFFFF80
FFFFFFFF80
FFFFFFFF80
FFFFFFFF80
7FFFFFFF00
7CFFFF9F00
3E7FFF3E00
3E07F07E00
1F8000FC00
1FF00FFC00
0FFFFFF800
07FFFFF000
03FFFFE000
00FFFF8000
003FFE0000
0007F00000
ENDCHAR
STARTCHAR F13D
ENCODING 61757
SWIDTH 990 0
DWIDTH 33 0
BBX 33 33 0 0
BITMAP
0007F00000
003FFE0000
00FFFF8000
03FFFFE000
07FFFFF000
0FFFFFF800
1FFFFFFC00
1FFFFFFC00
3F3FFE7E00
3E1FFC3E00
7E0FF83F00
7C0FF81F00
FC0FF81F00
FC0FF81F80
FE0FF83F80
FE1FFC3F80
FFFFFFFF80
FFFFFFFF80
FFFFFFFF80
FFFFFFFF80
FFFFFFFF80
7FC001FF00
7F00007F00
3E3FFE3E00
3C7FFF1E00
1EFFFFBC00
1FFFFFFC00
0FFFFFF800
07FFFFF000
03FFFFE000
00FFFF8000
003FFE0000
0007F00000
ENDCHAR
STARTCHAR F13E
ENCODING 61758
SWIDTH 990 0
DWIDTH 33 0
BBX 33 33 0 0
BITMAP
000FF00000
003FFE0000
00FFFF8000
03FFFFE000
07FFFFF000
0FFFFFF800
1FFFFFFC00
1FFFFFFC00
3F3FFE7E00
3E1FFC3E00
7E0FF83F00
7C0FF81F00
FC0FF81F80
FC0FF81F80
FE0FF83F80
FE1FFC3F80
FFFFFFFF80
FFFFFFFF80
FFFFFFFF80
FFFFFFFF80
FFFFFFFF80
7FFFFFFF00
7FFFFFFF00
7F00007E00
3F8000FE00
1FFFFFFC00
1FFFFFFC00
0FFFFFF800
07FFFFF000
03FFFFE000
00FFFF8000
003FFE0000
000FF80000
ENDCHAR
STARTCHAR F13F
ENCODING 61759
SWIDTH 990 0
DWIDTH 33 0
BBX 33 33 0 0
BITMAP
0007F00000
003FFE0000
00FFFF8000
03FFFFE000
07FFFFF000
0FFFFFF800
1FFFFFFC00
1FFFFFFC00
3F3FFE7E00
3E1FFC3E00
7E0FF83F00
7C0FF81F00
FC0FF81F00
FC0FF81F80
FE0FF83F80
FE1FFC3F80
FFFFFFFF80
FFFFFFFF80
FFFFFFFF80
FFFFFFFF80
FFFFFFFF80
7C00001F00
7C00003F00
3E03E03E00
3F07F07E00
1F0FF07C00
1F83E0FC00
0FE003F800
07F80FF000
03FFFFE000
00FFFF8000
003FFE0000
0007F00000
ENDCHAR
STARTCHAR F140
ENCODING 61760
SWIDTH 990 0
DWIDTH 33 0
BBX 19 33 8 0
BITMAP
003FC0
00FFE0
01FFE0
03FFE0
07FFE0
07FFC0
07F000
0FE000
0FE000
0FE000
0FE000
0FE000
0FE000
0FE000
3FFF80
FFFFE0
FFFFE0
FFFFE0
FFFFE0
FFFFE0
3FFF80
0FE000
0FE000
0FE000
0FE000
0FE000
0FE000
0FE000
0FE000
0FE000
0FE000
0FC000
07C000
ENDCHAR
STARTCHAR F141
ENCODING 61761
SWIDTH 990 0
DWIDTH 33 0
BBX 33 33 0 0
BITMAP
07E0000000
1FF8000000
3FFFF00000
7FFFFE0000
7FFFFF8000
FFFFFFC000
FFFC1FE000
FFE003F000
FFC001F800
FF8000F800
FF81C0FC00
7F07F07C00
7F0FF87C00
3F07F8FE00
3F807FFE00
3F8007FE00
3FC001FE00
3FF000FE00
3FFF00FE00
3F8FF07E00
1F0FF87F00
1F07F07F00
1F81C0FF80
0F8000FF80
0FC001FF80
07E003FF80
03FC1FFF80
01FFFFFF80
00FFFFFF00
003FFFFF00
0007FFFE00
00000FFC00
000003F000
ENDCHAR
STARTCHAR F142
ENCODING 61762
SWIDTH 990 0
DWIDTH 33 0
BBX 33 25 0 4
BITMAP
007FFF0000
3FFFFFFE00
7FFFFFFF00
7FFFFFFF00
7FFFFFFF00
FFFFFFFF80
FFFBFFFF80
FFF1FFFF80
FFF07FFF80
FFF01FFF80
FFF00FFF80
FFF003FF80
FFF001FF80
FFF003FF80
FFF00FFF80
FFF01FFF80
FFF07FFF80
FFF1FFFF80
FFFBFFFF80
FFFFFFFF80
7FFFFFFF00
7FFFFFFF00
7FFFFFFF00
3FFFFFFE00
007FFF0000
ENDCHAR
STARTCHAR F143
ENCODING 61763
SWIDTH 990 0
DWIDTH 33 0
BBX 25 33 4 0
BITMAP
3FFFFE00
7FFFFF00
FFFFFF80
FFFFFF80
FFFFFF80
FFF7FF80
FFF7FF80
FFE3FF80
FFE3FF80
FFE3FF80
FFC1FF80
F0000780
F8000F80
FC001F80
FE003F80
FF007F80
FF007F80
FF007F80
FF007F80
FF1C7F80
FF7F7F80
FEFFBF80
FFFFFF80
FFFFFF80
FFFFFF80
FFFFFF80
FFE3FF80
FFC1FF80
FF80FF80
FE003F80
FC001F80
F0000780
60000300
ENDCHAR
STARTCHAR F144
ENCODING 61764
SWIDTH 990 0
DWIDTH 33 0
BBX 33 33 0 0
BITMAP
0FFFFFF800
3FFFFFFE00
7FFFFFFF00
7FFFFFFF00
FFFFFFFF80
FFFFFFFF80
F800000F80
F000000780
F000000780
F800000F80
FFFFFFFF80
FFFFFFFF80
FFFFFFFF80
FFFFFFFF80
FC00001F80
F000000780
F000000780
F000000780
FC00001F80
FFFFFFFF80
FFFFFFFF80
7FFFFFFF00
7FFFFFFF00
3FFFFFFE00
0FFFFFF800
001FFC0000
000FF80000
000FF80000
0007F00000
0003E00000
0001C00000
0001C00000
0000800000
ENDCHAR
STARTCHAR F145
ENCODING 61765
SWIDTH 990 0
DWIDTH 33 0
BBX 33 33 0 0
BITMAP
0000800000
0001C00000
0001C00000
0003E00000
0007F00000
000FF80000
000FF80000
001FFC0000
0FFFFFF800
3FFFFFFE00
7FFFFFFF00
7FFFFFFF00
FFFFFFFF80
FFFFFFFF80
FC00001F80
F000000780
F000000780
F000000780
FC00001F80
FFFFFFFF80
FFFFFFFF80
FFFFFFFF80
FFFFFFFF80
F800000F80
F000000780
F000000780
F800000F80
FFFFFFFF80
FFFFFFFF80
7FFFFFFF00
7FFFFFFF00
3FFFFFFE00
0FFFFFF800
ENDCHAR
STARTCHAR F146
ENCODING 61766
SWIDTH 990 0
DWIDTH 33 0
BBX 33 15 0 8
BITMAP
038000E000
1FE003FC00
3FF007FE00
7FF80FFF00
7FFC1FFF00
FFFC1FFF80
FFFC1FFF80
FFFC1FFF80
FFFC1FFF80
FFFC1FFF80
7FFC1FFF00
7FF80FFF00
3FF007FE00
1FE003FC00
078000F000
ENDCHAR
STARTCHAR F147
ENCODING 61767
SWIDTH 990 0
DWIDTH 33 0
BBX 33 33 0 0
BITMAP
3FFC7FFF00
7FFC7FFF80
FFFC7FFF80
FFFC7FFF80
F800003F80
F000007F80
F00000FF80
F00001F780
F00003E780
F00007C780
F0000F8780
F0001F0780
F0003E0780
F0007C0780
F000F80780
F001F00780
F003E00000
F007C00000
F00F800000
F007000780
F002000780
F000000780
F000000780
F000000780
F000000780
F000000780
F000000780
F000000780
F800000F80
FFFFFFFF80
FFFFFFFF80
7FFFFFFF00
3FFFFFFE00
ENDCHAR
STARTCHAR F148
ENCODING 61768
SWIDTH 990 0
DWIDTH 33 0
BBX 33 31 0 0
BITMAP
003FFE0000
03FFFFE000
1FFFFFFC00
3FFFFFFE00
7FF80FFF00
FF8000FF80
FF180C7F80
FF3C1E7F80
FF3FFE7F80
FF3FFE7F80
003FFE0000
003FFE0000
00FFFF8000
07FFFFF000
0FFFFFF800
1FF80FFC00
3FF007FE00
7FE3E3FE00
7FE7F3FF00
7FC7F1FF00
FFCFF9FF80
FFCFF9FF80
FFE7F3FF80
FFE7F3FF80
FFF1C7FF80
FFF80FFF80
FFFC1FFF80
7FFFFFFF00
3FFFFFFE00
0F00007800
0F00007800
ENDCHAR
STARTCHAR F149
ENCODING 61769
SWIDTH 990 0
DWIDTH 33 0
BBX 33 33 0 0
BITMAP
7FC0000000
FFC0000000
FFC7FFFE00
FFCFFFFF00
FFCFFFFF80
FFCFFFFF80
FFCE000180
FFCC000180
FFCC000180
FFCC000180
FFCFFFFF80
FFCFFFFF80
FFCE38F380
FFCC186180
FFCC186180
FFCC186180
FFCE3CF380
FFCFFFFF80
FFCFFFFF80
FFCC186180
FFCC186180
FFCC186180
FFCE38E380
FFCFFFFF80
7F8FFFFF80
001C186180
003C186180
FFFC186180
FFFE38E180
FFFFFFFF80
FFFFFFFF80
7FFFFFFF00
3FFFFFFE00
ENDCHAR
STARTCHAR F14A
ENCODING 61770
SWIDTH 990 0
DWIDTH 33 0
BBX 33 33 0 0
BITMAP
3FFFFFFE00
7FFFFFFF00
FFFFFFFF80
FFFFFFFF80
FFFFFE0780
FFFFFE0780
FFFFFE0780
FFFFFE0780
FFFFFE0780
FFFFFE0780
FFFFFFFF80
FFFFFFFF80
FFFF7FFF80
FFFC1FFF80
F9F80FCF80
F0F00F8780
F0F0078780
F0F00F8780
F0F80F8780
F07C1F0780
F07F7F0780
F03FFE0780
F01FFC0780
F00FF80780
F003E00780
F000000780
F000000780
F000000780
F000000780
FFFFFFFF80
FFFFFFFF80
7FFFFFFF00
3FFFFFFE00
ENDCHAR
STARTCHAR F14B
ENCODING 61771
SWIDTH 990 0
DWIDTH 33 0
BBX 33 33 0 0
BITMAP
3FFFFFFE00
7FFFFFFF00
FFFFFFFF80
FFFFFFFF80
FFFFF03F80
FFFFC01F80
FFFF801F80
FFFF801F80
FFFF83FF80
FFFF87FF80
FFFF87FF80
FFFF87FF80
FFFF87FF80
FFFF87FF80
FFFC007F80
FFF0001F80
FFF0001F80
FFF0001F80
FFFC007F80
FFFF87FF80
FFFF87FF80
FFFF87FF80
FFFF87FF80
FFFF87FF80
FFFF87FF80
F803860F80
F003860780
F003860780
F8038E0F80
FFFFFFFF80
FFFFFFFF80
7FFFFFFF00
3FFFFFFE00
ENDCHAR
STARTCHAR F14C
ENCODING 61772
SWIDTH 990 0
DWIDTH 33 0
BBX 33 33 0 0
BITMAP
000FF00000
003FFE0000
00FFFF8000
03FFFFE000
07FC1FF000
0FFE07F800
1FBF07FC00
1F0F0F7C00
3E079F3E00
3C07FE1E00
7C03FE1F00
7C03FC0F00
FFFFF80F80
FFFFF00F80
FFFFF80780
FFFF780780
F020780780
F0003FFF80
F000FFFF80
F001FFFF80
F807FFFF80
780FFE0F00
7C1FDE1F00
7C1F1E1E00
3E3E1E3E00
1F7C1E7C00
1FF81EFC00
0FF81FF800
07F81FF000
03FFFFE000
00FFFF8000
003FFE0000
000FF80000
ENDCHAR
STARTCHAR F14D
ENCODING 61773
SWIDTH 990 0
DWIDTH 33 0
BBX 33 33 0 0
BITMAP
3FFFFFFE00
7FFFFFFF00
FFFFFFFF80
FFFFFFFF80
FFFF7FFF80
FFFE3FFF80
FFFC1FFF80
FFFC1FFF80
FFF80FFF80
FFF80FFF80
FFF007FF80
FFF007FF80
FFE003FF80
FFE003FF80
FFC001FF80
FFC001FF80
FF8000FF80
FF8038FF80
FF00707F80
FF3BE07F80
FE1FE03F80
FE0FEE3F80
FC07FC1F80
FC03F81F80
F803F00F80
F803E00F80
F003E00780
F003E00780
F803E00F80
FFFFFFFF80
FFFFFFFF80
7FFFFFFF00
3FFFFFFE00
ENDCHAR
STARTCHAR F14E
ENCODING 61774
SWIDTH 990 0
DWIDTH 33 0
BBX 33 33 0 0
BITMAP
000FF80000
003FFE0000
00FFFF8000
03FFFFE000
07FFFFF000
0FFFFFF800
1FFFFFFC00
0FFFFFFC00
07FE000000
27F0000000
73E183FF00
73C7F1FF00
F98FF8FF00
F89FFCFF80
FC1FFCFF80
FC3FFE7F80
FE3FFE7F80
FF3FFE7F80
FF1FFC7F80
FF9FFCFF80
FF8FF8FF80
7FC7F1FF00
7FE1C1FF00
3FF003FE00
3FFE27FE00
1FFFC7FC00
1FFFCFFC00
0FFF8FF800
07FF9FF000
03FF1FE000
00FE3F8000
003E7E0000
000C780000
ENDCHAR
STARTCHAR F14F
ENCODING 61775
SWIDTH 990 0
DWIDTH 33 0
BBX 33 33 0 0
BITMAP
07FFFFFF00
0FFFFFFF80
00FFFFFF80
007FFFFF80
7E3FFFFF80
FF3FFFFF80
FF3FFFFF80
FF3FFFFF80
003FC3FF80
007F00FF80
0FFE00FF80
0FFE007F80
01FC007F80
007C007F80
3E3E007F80
FF3E00FF80
FF3E00FF80
FF3F00FF80
3E3F01FF80
007FC3FF80
01FE00FF80
0FFC003F80
0FF8003F80
0070001F80
003C007F80
FF3FFFFF80
FF3FFFFF80
FF3FFFFF80
7E3FFFFF80
007FFFFF80
00FFFFFF80
0FFFFFFF80
07FFFFFF00
ENDCHAR
STARTCHAR F150
ENCODING 61776
SWIDTH 990 0
DWIDTH 33 0
BBX 33 25 0 4
BITMAP
7FFFFFFF00
FFFFFFFF80
C1FFFFC180
C0FFFF8180
C07FFF0180
C03FFE0180
C01FFC0180
C20FF82180
C307F06180
C383E0E180
C3C1C1E180
C3E083E180
C3F007E180
C3E003E180
C3CC19E180
C39E3CE180
C33F7E6180
C27FFF2180
C0FFFF8180
C1FFFFC180
C3FFFFE180
C3FFFFE180
C3FFFFE180
FFFFFFFF80
7FFFFFFF00
ENDCHAR
STARTCHAR F151
ENCODING 61777
SWIDTH 990 0
DWIDTH 33 0
BBX 33 33 0 0
BITMAP
FFFC000000
FFFC000000
FFFC000000
FFFC000000
0FC01FFF80
07C01FFF80
07E01FFF80
03E01FFF80
03F001F000
01F803E000
00F807C000
00FC0F8000
007C1F0000
007E3E0000
003E7C0000
003F7C0000
001FF80000
001FF00000
000FE00000
000FE00000
000FE00000
000FE00000
000FE00000
000FE00000
000FE00000
000FE00000
000FE00000
000FE00000
000FE00000
00FFFE0000
00FFFE0000
00FFFE0000
00FFFE0000
ENDCHAR
STARTCHAR F152
ENCODING 61778
SWIDTH 990 0
DWIDTH 33 0
BBX 33 33 0 0
BITMAP
3FFFFFFE00
7FFFFFFF00
FFFF800380
FFFF800180
FFFF800180
FFFF800180
FFFF800180
FFFF800180
FFFF800180
FFFF800180
FFFF800180
FFFF800180
FFFF800180
FFFF800180
FFFF800180
FFFF800180
C000000180
C000FFFF80
C000FFFF80
C000FFFF80
C000FFFF80
C000FFFF80
C000FFFF80
C000FFFF80
C000FFFF80
C000FFFF80
C000FFFF80
C000FFFF80
C000FFFF80
C000FFFF80
E000FFFF80
7FFFFFFF00
3FFFFFFE00
ENDCHAR
STARTCHAR F153
ENCODING 61779
SWIDTH 990 0
DWIDTH 33 0
BBX 33 33 0 1
BITMAP
6F8F838300
FFFFC38780
F9F8E3C780
F0F0F3CF80
F0F0F1EF00
F0F0F9EF00
F0F0F8EF00
F0F0F8FE00
F0F0F87E00
F0F0F87E00
F0F0F87E00
F0F0F83C00
F0F0783C00
F070703C00
0000007800
0000007800
0000007800
0000007800
0000002000
0000000000
0000000000
0000000000
0000000000
0000000000
0000000000
F000000700
F000000780
F000000780
F000000780
FFFFFFFF80
FFFFFFFF80
FFFFFFFF80
7FFFFFFF00
ENDCHAR
STARTCHAR F154
ENCODING 61780
SWIDTH 990 0
DWIDTH 33 0
BBX 33 31 0 2
BITMAP
000000E000
000001F000
00007FF800
0000FFF800
0000C1F800
0000C0F000
0000C00000
0001800000
1803E00C00
7E3FFE3F00
E7FFFFF380
C3FFFFE180
C3FFFFE180
C3FFFFE180
7FDFFDFF00
7F8FF8FF00
1F0FF87C00
3F0FF8FE00
3FDFFDFE00
3FFFFFFE00
3FFFFFFE00
3FFFFFFE00
1FFFFFFC00
1FCFF9FC00
1FE3E3FC00
0FF007F800
07FC1FF000
03FFFFE000
01FFFFC000
007FFF0000
000FF80000
ENDCHAR
STARTCHAR F155
ENCODING 61781
SWIDTH 990 0
DWIDTH 33 0
BBX 33 33 0 0
BITMAP
000FF00000
003FFE0000
00FFFF8000
03FFFFE000
07FFFFF000
0FFFFFF800
1FFFFFFC00
1FFFFFFC00
3FFFFFFE00
3FFFFFFE00
7FFFFFFF00
7FFFFFFF00
FFFFFFFF80
FFFFFFFF80
FFFFFFFF80
FFFFFFFF80
FFFFFFFF80
FFFFFFFF80
FFFFFFFF80
FFFFFFFF80
FFFFFFFF80
7FFFFFFF00
7FFFFFFF00
3FFFFFFE00
3FFFFFFE00
3FFFFFFC00
3FFFFFFC00
3FFFFFF800
3FFFFFF000
3FFFFFE000
7EFFFF8000
783FFE0000
600FF80000
ENDCHAR
STARTCHAR F156
ENCODING 61782
SWIDTH 990 0
DWIDTH 33 0
BBX 33 33 0 0
BITMAP
0007F00000
003FFE0000
00FFFF8000
03FFFFE000
07FC1FF000
0FE003F800
1F8000FC00
1F00007C00
3E00003E00
3C00001E00
7C00001F00
7800000F00
F800000F00
F000000F80
F000000780
F000000780
F000000780
F000000780
F000000780
F000000F80
F800000F80
7800000F00
7C00001F00
3C00001E00
3E00003E00
3F00007C00
3F8000FC00
3FE003F800
3FFC1FF000
3FFFFFE000
7EFFFF8000
783FFE0000
600FF00000
ENDCHAR
STARTCHAR F157
ENCODING 61783
SWIDTH 990 0
DWIDTH 33 0
BBX 33 33 0 0
BITMAP
000FF00000
003FFE0000
00FFFF8000
03FFFFE000
07FFFFF000
0FFFFFF800
1FFFFFFC00
1FFFFFFC00
3FFFFFFE00
3FFFFFFE00
7FFFFFFF00
7FFFFFFF00
FFFFFFFF80
FFFFFFFF80
FFDF7DFF80
FF8E38FF80
FF0C187F80
FF0E38FF80
FFDF7DFF80
FFFFFFFF80
FFFFFFFF80
7FFFFFFF00
7FFFFFFF00
3FFFFFFE00
3FFFFFFE00
3FFFFFFC00
3FFFFFFC00
3FFFFFF800
3FFFFFF000
3FFFFFE000
7EFFFF8000
783FFE0000
600FF80000
ENDCHAR
STARTCHAR F158
ENCODING 61784
SWIDTH 990 0
DWIDTH 33 0
BBX 33 33 0 0
BITMAP
000FF00000
003FFE0000
00FFFF8000
03FFFFE000
07FC1FF000
0FE003F800
1F8000FC00
1F00007C00
3E00003E00
3C00001E00
7C00001F00
7800000F00
F800000F80
F000000F80
F020820780
F0F1C70780
F0F3E78780
F0F1C78780
F020820780
F000000F80
F800000F80
7800000F00
7C00001F00
3C00001E00
3E00003E00
3F00007C00
3F8000FC00
3FE003F800
3FFC1FF000
3FFFFFE000
7EFFFF8000
783FFE0000
600FF80000
ENDCHAR
STARTCHAR F159
ENCODING 61785
SWIDTH 990 0
DWIDTH 33 0
BBX 33 33 0 0
BITMAP
3FFFFFFE00
7FFFFFFF00
FFFFFFFF80
FFFFFFFF80
F0E3800780
F0C3800780
F0C3800780
F0C3800780
FFFFFFFF80
FFFFFFFF80
F800000F80
F000000780
F000000780
F000000780
F000000780
F000000780
F000000780
F000000780
F000000780
F000000780
F000000780
F000000780
F000000780
F000000780
F000000780
F000000780
F000000780
F000000780
F000000780
FFFFFFFF80
FFFFFFFF80
7FFFFFFF00
3FFFFFFE00
ENDCHAR
STARTCHAR F15A
ENCODING 61786
SWIDTH 990 0
DWIDTH 33 0
BBX 33 33 0 0
BITMAP
FFFFFFFF80
FFFFFFFF80
C000000180
C000000180
C003E00180
C00FF80180
C01FFC0180
C03FFC0180
C03FFE0180
C03FFE0180
C03FFE0180
C03FFE0180
C01FFC0180
C01FFC0180
C01FFC0180
C00FF80180
C007F00180
C003E00180
C03FFE0180
C0FFFF8180
C1FFFFC180
C3FFFFC180
C3FFFFE180
C3FFFFE180
C03FFE0180
C000000180
C000000180
FFFFFFFF80
FFFFFFFF80
FFFFFFFF80
FFFFFFFF80
FFFFFFFF80
FFFFFFFF80
ENDCHAR
STARTCHAR F15B
ENCODING 61787
SWIDTH 990 0
DWIDTH 33 0
BBX 33 33 0 0
BITMAP
0600000000
0F00000000
1F80000000
3FC0000000
7FC0000000
7FC0000000
FFC0000000
FFC0000000
FFC0000000
FFC0000000
FF80000000
7F00000000
7E00000000
7F00000000
3F00000000
3F80000000
1FC0000000
1FC0000000
0FE0000000
0FF0000000
07F8000000
03FC000000
01FE000000
00FF81F800
007FC3FE00
003FF7FF00
001FFFFF80
000FFFFF80
0007FFFF00
0001FFFE00
00007FFC00
00001FF800
000007F000
ENDCHAR
STARTCHAR F15C
ENCODING 61788
SWIDTH 990 0
DWIDTH 33 0
BBX 33 33 0 0
BITMAP
06001C0380
0F001E0780
1F801F0F80
3FC01F9F00
7FC00FFE00
7FC007FC00
FFC003F800
FFC001F800
FFC003FC00
FFC007FE00
FF800FBF00
7F001F1F80
7E001E0F80
7F001C0780
3F00000000
3F80000000
1FC0000000
1FC0000000
0FE0000000
0FF0000000
07F8000000
03FC000000
01FE000000
00FF81F800
007FC3FE00
003FF7FF00
001FFFFF80
000FFFFF80
0007FFFF00
0001FFFE00
00007FFC00
00001FF800
000007F000
ENDCHAR
STARTCHAR F15D
ENCODING 61789
SWIDTH 990 0
DWIDTH 33 0
BBX 33 33 0 0
BITMAP
0600000380
0F00000780
1F800C0F80
3FC01E1F00
7FC01E3E00
7FC01E7C00
FFC01EF800
FFC01FF000
FFC01FE000
FFC01FC000
FF801FFC00
7F001FFE00
7E001FFE00
7F001FFE00
3F00000000
3F80000000
1FC0000000
1FC0000000
0FE0000000
0FF0000000
07F8000000
03FC000000
01FE000000
00FF81F800
007FC3FE00
003FF7FF00
001FFFFF80
000FFFFF80
0007FFFF00
0001FFFE00
00007FFC00
00001FF800
000007F000
ENDCHAR
STARTCHAR F15E
ENCODING 61790
SWIDTH 990 0
DWIDTH 33 0
BBX 33 33 0 0
BITMAP
060003FF00
0F0007FF80
1F8007FF80
3FC007FF80
7FC0003F80
7FC0007F80
FFC000FF80
FFC001F780
FFC003E780
FFC007C780
FF800F8780
7F001F0780
7E001E0000
7F001C0000
3F00000000
3F80000000
1FC0000000
1FC0000000
0FE0000000
0FF0000000
07F8000000
03FC000000
01FE000000
00FF81F800
007FC3FE00
003FF7FF00
001FFFFF80
000FFFFF80
0007FFFF00
0001FFFE00
00007FFC00
00001FF800
000007F000
ENDCHAR
STARTCHAR F15F
ENCODING 61791
SWIDTH 990 0
DWIDTH 33 0
BBX 25 33 4 0
BITMAP
001C0000
003E0000
007F0000
00FF8000
01FFC000
03FFE000
07E3F000
0FC0F800
1F80FC00
3F807E00
7F007F00
FF80FF80
FF80FF80
FFC1FF80
FFFFFF80
FFFFFF80
FFFFFF80
FFFFFF80
FFFFFF80
FFFFFF80
FFFFFF80
FFFFFF80
FFFFFF80
FFFFFF80
FFFFFF80
FFFFFF80
FFFFFF80
FFFFFF80
FFFFFF80
FFFFFF80
FFFFFF80
7FFFFF00
3FFFFE00
ENDCHAR
STARTCHAR F160
ENCODING 61792
SWIDTH 990 0
DWIDTH 33 0
BBX 33 29 0 2
BITMAP
0003E00000
001FFC0000
007FFE0000
00FFFF8000
01FFFFC000
03FFFFE000
07FFF3F000
07FFE1F000
0FFFC0F800
1FFFC07C00
1FFF803C00
3FFF803E00
3FFF001E00
7C3E001F00
781E000F00
7800000F00
7000000700
F000000780
F000000780
F000000780
F000000F80
F800000F80
FC00001F80
7F00007F00
7FF007FF00
3FFFFFFE00
1FFFFFFC00
03FFFFE000
003FFE0000
ENDCHAR
STARTCHAR F161
ENCODING 61793
SWIDTH 990 0
DWIDTH 33 0
BBX 33 33 0 0
BITMAP
3FFFFFFE00
7FFFFFFF00
FFFFFFFF80
FFFFFFFF80
FFFC1FFF80
FFE003FF80
FFC001FF80
FF8000FF80
FF8000FF80
FF00007F80
FF00007F80
FF00007F80
FF00007F80
FF0000FF80
FF8000FF80
FF8000FF80
FF8000FF80
FFC001FF80
FFE001FF80
FFE003FF80
FFF007FF80
FFF80FFF80
FFFC1FFF80
FFC001FF80
FF00007F80
FC00001F80
F800001F80
F800000F80
F000000780
F000000780
F000000780
7000000700
3000000600
ENDCHAR
STARTCHAR F162
ENCODING 61794
SWIDTH 990 0
DWIDTH 33 0
BBX 33 33 0 0
BITMAP
007F000000
03FFE00000
0F80F00000
1E00380000
38000C0000
3000060000
6000030000
6000030000
C000030000
C000018000
C000018000
C000019800
C000039C00
E000033E00
6000073F00
70000E3F00
3C001E7F80
1E007CFF80
0FF7F0FF80
0FFFC1FF80
0F9C07FF80
0F001FFF80
0E03FFFF00
0C7FFFFF00
083FFFFE00
001FFFFC00
000FFFF800
0003FFF800
00007FF800
0000007800
0000003800
0000001800
0000000800
ENDCHAR
STARTCHAR F163
ENCODING 61795
SWIDTH 990 0
DWIDTH 33 0
BBX 32 29 0 2
BITMAP
000FF800
000FF800
0007FC00
0023FE00
0033FE00
0071FF00
00F9FF00
00FCFF80
01FC7FC0
01FE7FC0
03FC3FE0
07FC3FF0
07F81FF0
0FF00FF8
0FF00FF8
1FE007FC
3FE007FE
3FC003FE
7FC001FF
7F800000
FF000000
FF1FFFFF
7E3FFFFF
3E7FFFFE
1C7FFFFC
18FFFFFC
08FFFFF8
01FFFFF0
03FFFFF0
ENDCHAR
STARTCHAR F164
ENCODING 61796
SWIDTH 990 0
DWIDTH 33 0
BBX 33 33 0 0
BITMAP
03C0000000
03C0000000
03C0000000
03C0000000
03C0000000
07C0000000
07C0000000
1FC0000000
FFFF800000
FFFF800000
FFFF800000
FFFF800000
FFFF800000
FFFF800000
0FC0000000
0FC0000000
0FC0000000
0FC0000000
0FC0000000
0FC0000000
0FC0000000
0FC0000000
0FC0000000
0FC0007E00
0FC000FF00
0FC001FF00
0FF061FF80
0FFFE1FF80
0FFFE1FF80
07FFE1FF80
03FFE1FF00
01FFC0FE00
007F003C00
ENDCHAR
STARTCHAR F165
ENCODING 61797
SWIDTH 990 0
DWIDTH 33 0
BBX 33 33 0 0
BITMAP
3FFFFFFE00
7FFFFFFF00
F0007FFF80
8000FFFF80
0707FF9F80
1FC3FF9F80
1FE1FF9F80
3FF1FF9F80
3FF1F80380
3FF1F80180
3FF1FF9F80
3FF1FF9F80
1FF1FF9F80
1FE1FF9F80
0FC3FFFF80
0007FFFF80
800FFFFF80
FC1FFFFF80
FC1FFFFF80
FC0FFFFF80
FE07FFFF80
FE03FFFF80
C000FFFF80
0000FFFF80
1FE07FFF80
7FF87FFF80
FFFC7FFF80
FFFC3FFF80
FFFC7FFF80
FFFC7FFF80
FFFC7FFF80
7FF87FFF00
3FF0FFFE00
ENDCHAR
STARTCHAR F166
ENCODING 61798
SWIDTH 990 0
DWIDTH 33 0
BBX 33 33 0 0
BITMAP
3FFFFFFE00
7FFFFFFF00
FFFFFFFF80
FFFFFFFF80
F0FFFFFF80
F0FFFFFF80
F0FFFFFF80
F0FFFFFF80
FFFFFFFF80
FFFFFFFF80
F8F8F8FF80
F0F0C03F80
F0F0001F80
F0F0000F80
F0F0080780
F0F03E0780
F0F07F0780
F0F07F8780
F0F0FF8780
F0F0FF8780
F0F0FF8780
F0F0FF8780
F0F0FF8780
F0F0FF8780
F0F0FF8780
F0F0FF8780
F0F0FF8780
F0F0FF8780
F0F8FF8780
FFFFFFFF80
FFFFFFFF80
7FFFFFFF00
3FFFFFFE00
ENDCHAR
STARTCHAR F167
ENCODING 61799
SWIDTH 990 0
DWIDTH 33 0
BBX 33 33 0 0
BITMAP
01FFF00000
07FFFC0000
0FFFFE0000
1FFFFF0000
3FFFFF8000
7FFFFFC000
7FFFFFC000
FFFFFFC000
FF807FE000
FF003FE000
FF001FE000
FF803FE000
FFFFFFFF00
FFFFFFFF80
FFFFFFFF80
FFFFFFFF80
FFFFFFFF80
FFFFFFFF80
FFFFFFFF80
FFFFFFFF80
FFFFFFFF80
FF8000FF80
FF00007F80
FF00007F80
FF8000FF80
FFFFFFFF80
7FFFFFFF00
7FFFFFFF00
3FFFFFFE00
1FFFFFFC00
0FFFFFF800
07FFFFF000
01FFFFC000
ENDCHAR
STARTCHAR F168
ENCODING 61800
SWIDTH 990 0
DWIDTH 33 0
BBX 33 33 0 0
BITMAP
01E000F800
07F003FE00
0FF807FF00
1FF80FFF00
3FF80FFF00
3FF81FFF80
7FFC1FFF80
FFFC1FFF80
E7FC13FF80
47FC01FF80
03FC00FF80
03FE00FF80
03FE00FF00
03FE01FF00
01FE01FE00
01FE01FE00
01FE03FE00
01FF03FC00
01FF07FC00
01FF0FF800
00FF9FF000
00FFBFF000
00FFFFE000
00FFFFC000
007FFFC000
007FFF8000
007FFF0000
003FFE0000
003FFC0000
003FF80000
001FF00000
000FE00000
0007800000
ENDCHAR
STARTCHAR F169
ENCODING 61801
SWIDTH 990 0
DWIDTH 33 0
BBX 33 33 0 0
BITMAP
000FF80000
00FFFF8000
03FFFFE000
07FFFFF000
0FFFFFFC00
1FFFFFFE00
3FFC0FFE00
3FC001FF00
7F80007F00
7F00003F80
FE0E003F80
FE3F001F80
FC3F801F80
FC3F801F80
FC3F803F80
FC3F803F80
FE3F807F00
FE3F80FF00
7C3FF7FF00
783FFFFE00
703FFFFC00
203FFFFC00
003FFFF000
003FFFE000
003F9F0000
003F800000
003F800000
01FF800000
03FF800000
03FF000000
03FF000000
01FF000000
00FC000000
ENDCHAR
STARTCHAR F16A
ENCODING 61802
SWIDTH 990 0
DWIDTH 33 0
BBX 33 27 0 2
BITMAP
00000F8100
00003FE200
00007FFE00
30007FFC00
38007FFF80
3E00FFFF00
3F00FFFE00
3FE0FFF800
1FFFFFF800
1FFFFFF800
3FFFFFF800
3FFFFFF000
3FFFFFF000
1FFFFFF000
1FFFFFF000
07FFFFE000
0FFFFFE000
0FFFFFC000
07FFFFC000
03FFFF8000
007FFF0000
007FFE0000
01FFFC0000
FFFFF80000
7FFFF00000
1FFFC00000
03FC000000
ENDCHAR
STARTCHAR F16B
ENCODING 61803
SWIDTH 990 0
DWIDTH 33 0
BBX 33 29 0 2
BITMAP
3FFFFFFE00
7FFFFFFF00
FFFFFFFF80
FFFFFFFF80
FFFFFFFF80
FFFFFFFF80
FFFFFFFF80
FFFFFFFF80
FF3FFE7F80
FE1FFC3F80
FC0FF81F80
FC07F01F80
FE03E03F80
FF01807F80
FF8000FF80
FFC001FF80
FFE003FF80
FFF007FF00
7FF80FFF00
7FFC1FFF00
7FFE3FFF00
3FFFFFFE00
3FFFFFFE00
1FFFFFFC00
0FFFFFF800
07FFFFF000
03FFFFE000
00FFFF8000
000FF80000
ENDCHAR
STARTCHAR F16C
ENCODING 61804
SWIDTH 990 0
DWIDTH 33 0
BBX 33 33 0 0
BITMAP
000000F800
000001FE00
000003FF00
000007FF00
000007FF80
000007FF80
00000FFF80
00003FFF80
0000FFFF80
0003FFFF00
060FFBFE00
1FFFE0FC00
7FFF800000
7FFE000000
FFF8000000
FFF0000000
FFF0000000
FFF0000000
FFF8000000
7FFE000000
7FFF800000
1FFFE0FC00
060FFBFE00
0003FFFF00
0000FFFF80
00003FFF80
00000FFF80
000007FF80
000007FF80
000007FF00
000003FF00
000001FE00
000000F800
ENDCHAR
STARTCHAR F16D
ENCODING 61805
SWIDTH 990 0
DWIDTH 33 0
BBX 33 33 0 0
BITMAP
3FFFFFFE00
7FFFFFFF00
FFFFFFFF80
FFFFFFFF80
F0E3800780
F0C3800780
F0C3800780
F0C3800780
FFFFFFFF80
FFFFFFFF80
F800000F80
F000000780
F000000780
F000000780
F000800780
F001C00780
F003E00780
F003E00780
F003E00780
F01FFC0780
F03FFE0780
F03FFE0780
F01FF80780
F003E00780
F003E00780
F001C00780
F001C00780
F000000780
F000000780
FFFFFFFF80
FFFFFFFF80
7FFFFFFF00
3FFFFFFE00
ENDCHAR
STARTCHAR F16E
ENCODING 61806
SWIDTH 990 0
DWIDTH 33 0
BBX 33 33 0 0
BITMAP
3FFFFFFE00
7FFFFFFF00
FFFFFFFF80
FFFFFFFF80
F0E3800780
F0C3800780
F0C3800780
F0C3800780
FFFFFFFF80
FFFFFFFF80
F800000F80
F000000780
F000000780
F000000780
F000000780
F000000780
F000000780
F000000780
F000000780
F01FFC0780
F03FFE0780
F03FFE0780
F01FF80780
F000000780
F000000780
F000000780
F000000780
F000000780
F000000780
FFFFFFFF80
FFFFFFFF80
7FFFFFFF00
3FFFFFFE00
ENDCHAR
STARTCHAR F16F
ENCODING 61807
SWIDTH 990 0
DWIDTH 33 0
BBX 33 33 0 0
BITMAP
0FFFF00000
1FFFFC0000
3FFFFE0000
3FFFFE0000
7FFFFF0000
7FFFFF0000
7FFFFF0000
FFFFFF8000
FFFFFFFC00
FFFFFFFF00
FFFFFFFF80
FFFFFFFF80
F800000F80
F000000780
F000800780
F001C00780
F003E00780
F003E00780
F003E00780
F01FFC0780
F03FFE0780
F03FFE0780
F01FF80780
F003E00780
F003E00780
F001C00780
F001C00780
F000000780
F000000780
FFFFFFFF80
FFFFFFFF80
7FFFFFFF00
3FFFFFFE00
ENDCHAR
STARTCHAR F170
ENCODING 61808
SWIDTH 990 0
DWIDTH 33 0
BBX 33 33 0 0
BITMAP
0FFFF00000
1FFFFC0000
3FFFFE0000
3FFFFE0000
7FFFFF0000
7FFFFF0000
7FFFFF0000
FFFFFF8000
FFFFFFFC00
FFFFFFFF00
FFFFFFFF80
FFFFFFFF80
F800000F80
F000000780
F000000780
F000000780
F000000780
F000000780
F000000780
F01FFC0780
F03FFE0780
F03FFE0780
F01FFC0780
F000000780
F000000780
F000000780
F000000780
F000000780
F000000780
FFFFFFFF80
FFFFFFFF80
7FFFFFFF00
3FFFFFFE00
ENDCHAR
STARTCHAR F171
ENCODING 61809
SWIDTH 990 0
DWIDTH 33 0
BBX 33 33 0 0
BITMAP
3FFFFFFE00
7FFFFFFF00
FFFFFFFF80
FFFFFFFF80
F000000780
F000000780
F000000780
F000000780
F000000780
F000000780
FFFFFFFF80
FFFFFFFF80
FFFFFFFF80
FFFFFFFF80
FFFC1FFF80
FFF80FFF80
FFF007FF80
FFF007FF80
FFF007FF80
FFF007FF80
FFF007FF80
FF8000FF80
FFC001FF80
FFE003FF80
FFF007FF80
FFF80FFF80
FFFC1FFF80
FFFE3FFF80
FFFF7FFF80
FFFFFFFF80
FFFFFFFF80
7FFFFFFF00
3FFFFFFE00
ENDCHAR
STARTCHAR F172
ENCODING 61810
SWIDTH 990 0
DWIDTH 33 0
BBX 33 33 0 0
BITMAP
1FFFFFFC00
3FFFFFFE00
3FFFFFFE00
3FFFFFFE00
3FFFFFFE00
3FFFFFFE00
3C00E03E00
3C00E01E00
3FFFFFFE00
3FFFFFFE00
3FFFFFFE00
3FFFFFFE00
3E0E003E00
3C0C001E00
3FFFFFFE00
3FFFFFFE00
3FFFFFFE00
3FFFFFFE00
3FFFFFFE00
003FFE0000
003FFE0000
FF1FFC7F80
FF9FFCFF80
FF9FFCFF80
FF8FF8FF80
FFCFF9FF80
FFC3F1FF80
FFC001FF80
FFE003FF80
FFFFFFFF80
FFFFFFFF80
FFFFFFFF80
7FFFFFFF00
ENDCHAR
STARTCHAR F173
ENCODING 61811
SWIDTH 990 0
DWIDTH 33 0
BBX 33 33 0 0
BITMAP
1FFFFFFC00
3FFFFFFE00
3FFFFFFE00
3FFFFFFE00
3FFFFFFE00
3FFFFFFE00
3FFFFFFE00
3FFFFFFE00
3FFFFFFE00
1FFFFFFC00
8FFFFFF880
C7FFFFF180
E3FFFFE380
F1FFFFC780
F8FFFF8F80
FC7FFF1F80
FE3FFE3F80
FF9FFC7F80
FFCFF8FF80
FFE001FF80
FFF003FF80
FFE3E3FF80
FFC7F1FF80
FF8FF8FF80
FF1FFC7F80
FE3FFE3F80
FC7FFF1F80
F8FFFF8F80
F1FFFFC780
E3FFFFE380
C7FFFFF180
8FFFFFF880
1FFFFFFC00
ENDCHAR
STARTCHAR F174
ENCODING 61812
SWIDTH 990 0
DWIDTH 33 0
BBX 33 33 0 0
BITMAP
0007F00000
001FFC0000
003FFE0000
007FFF0000
00FE1F8000
01F80FC000
01E1C7C000
01C7E3C000
3FC3FFFE00
1FC3FFFC00
8FFFE3F880
C7FFE1F180
E3F7F1E380
F1E3E1C780
F8F0078F80
FC780F1F80
FE3FFE3F80
FF1FFC7F80
FF8FF8FF80
FFC7F1FF80
FFE3E3FF80
FFE1C3FF80
FFC081FF80
FF8C18FF80
FF1E3C7F80
FE3FFE3F80
FC7FFF1F80
F8FFFF8F80
F1FFFFC780
E3FFFFE380
C7FFFFF180
8FFFFFF880
1FFFFFFC00
ENDCHAR
STARTCHAR F175
ENCODING 61813
SWIDTH 990 0
DWIDTH 33 0
BBX 33 33 0 0
BITMAP
0007F00000
001FFC0000
003FFE0000
007FFF0000
00FFBF8000
01FF9FC000
01FF8FC000
01FF8FC000
3FE007FE00
1FC003FC00
8FC001F880
C7C003F180
E3FF87E380
F1FF8FC780
F8FF9F8F80
FC7F9F1F80
FE3FFE3F80
FF1FFC7F80
FF8FF8FF80
FFC7F1FF80
FFE3E3FF80
FFE1C3FF80
FFC081FF80
FF8C18FF80
FF1E3C7F80
FE3FFE3F80
FC7FFF1F80
F8FFFF8F80
F1FFFFC780
E3FFFFE380
C7FFFFF180
8FFFFFF880
1FFFFFFC00
ENDCHAR
STARTCHAR F176
ENCODING 61814
SWIDTH 990 0
DWIDTH 33 0
BBX 33 33 0 0
BITMAP
0007F00000
001FFC0000
003FFE0000
007FFF0000
00FF7F8000
01FE3FC000
01FC1FC000
01F007C000
3FE003FE00
1FC001FC00
8FFC1FF880
C7FC1FF180
E3FC1FE380
F1FC1FC780
F8FC1F8F80
FC7C1F1F80
FE3E3E3F80
FF1FFC7F80
FF8FF8FF80
FFC7F1FF80
FFE3E3FF80
FFE1C3FF80
FFC081FF80
FF8C18FF80
FF1E3C7F80
FE3FFE3F80
FC7FFF1F80
F8FFFF8F80
F1FFFFC780
E3FFFFE380
C7FFFFF180
8FFFFFF880
1FFFFFFC00
ENDCHAR
STARTCHAR F177
ENCODING 61815
SWIDTH 990 0
DWIDTH 33 0
BBX 33 33 0 0
BITMAP
0007F00000
001FFC0000
003FFE0000
007FFF0000
00FE3F8000
01FC1FC000
01FC1FC000
01FC1FC000
3FFC1FFE00
1FFC1FFC00
8FC001F880
C7C001F180
E3E003E380
F1F80FC780
F8FC1F8F80
FC7E3F1F80
FE3FFE3F80
FF1FFC7F80
FF8FF8FF80
FFC7F1FF80
FFE3E3FF80
FFE1C3FF80
FFC081FF80
FF8C18FF80
FF1E3C7F80
FE3FFE3F80
FC7FFF1F80
F8FFFF8F80
F1FFFFC780
E3FFFFE380
C7FFFFF180
8FFFFFF880
1FFFFFFC00
ENDCHAR
STARTCHAR F178
ENCODING 61816
SWIDTH 990 0
DWIDTH 33 0
BBX 33 33 0 0
BITMAP
3FFFFFFE00
7FFFFFFF00
FFFFFFFF80
FFFFFFFF80
FE00003F80
F800000F80
F800000F80
F000000780
F007F00780
F007F00780
F00FF80780
F00FF80780
F00FF80780
F00FF80780
F07FFF0780
F07FFF0780
F03FFE0780
F01FFC0780
F00FF80780
F007F00780
F003E00780
F001C00780
F800800F80
FF8000FF80
FF8001FF80
FFC001FF80
FFC001FF80
FFC001FF80
FFE003FF80
FFFFFFFF80
FFFFFFFF80
FFFFFFFF80
7FFFFFFF00
ENDCHAR
STARTCHAR F179
ENCODING 61817
SWIDTH 990 0
DWIDTH 33 0
BBX 33 33 0 0
BITMAP
3FFFFFFE00
7FFFFFFF00
FFFFFFFF80
FFFFFFFF80
FE00003F80
F800000F80
F800000F80
F000000780
F000800780
F001C00780
F003E00780
F007F00780
F00FF80780
F01FFC0780
F03FFE0780
F07FFF0780
F07FF80780
F00FF80780
F00FF80780
F00FF80780
F00FF80780
F007F00780
F803E00F80
FF8000FF80
FF8001FF80
FFC001FF80
FFC001FF80
FFC001FF80
FFE003FF80
FFFFFFFF80
FFFFFFFF80
FFFFFFFF80
7FFFFFFF00
ENDCHAR
STARTCHAR F17A
ENCODING 61818
SWIDTH 990 0
DWIDTH 33 0
BBX 33 33 0 0
BITMAP
3FFFFFFE00
7FFFFFFF00
FFFFFFFF80
FFFFFFFF80
FE00003F80
F800000F80
F800000F80
F000000780
F07FFF0780
F0FFFF8780
F0FFFF8780
F07FFF0780
F000000780
F000000780
F03FFE0780
F0FFFF0780
F0FFFF8780
F0FFFF0780
F03FFE0780
F000000780
F000000780
F000000780
F800000F80
FF8000FF80
FF8001FF80
FFC001FF80
FFC001FF80
FFC001FF80
FFE003FF80
FFFFFFFF80
FFFFFFFF80
FFFFFFFF80
7FFFFFFF00
ENDCHAR
STARTCHAR F17B
ENCODING 61819
SWIDTH 990 0
DWIDTH 33 0
BBX 33 33 0 0
BITMAP
7F00000000
FFF0000000
FFFE000000
FFFF800000
FFFFE00000
7FFFF00000
03FFFC0000
001FFE0000
0007FF0000
0001FF8000
00007FC000
00003FE000
30001FE000
7F800FF000
FFE007F800
FFF803F800
FFFC01FC00
7FFF01FC00
1FFF00FE00
00FF80FE00
003FC07E00
001FC07F00
000FE03F00
0007E03F00
0007F03F00
3C03F03F80
7E03F01F80
FF03F01F80
FF03F81F80
FF03F81F80
FF03F81F80
7E01F01F80
3C00E00F00
ENDCHAR
STARTCHAR F17C
ENCODING 61820
SWIDTH 990 0
DWIDTH 33 0
BBX 29 33 2 1
BITMAP
047E0000
0CFF8000
1CFFFF00
3CFFFFC0
7CFFFFF0
FCFFFFF0
00FFFFF8
00FFFFF8
7FFFFFF8
FFFFFFF8
FFFFFFF8
FFFFFFF8
FFFFFDF8
FFFFF878
FFFFF878
FFFFFE78
FFFFFFF8
FFFFFFF8
FFFFFFF8
FFFFFFF8
7FFDFFF8
3FFDFFF8
1FF83FF8
0FF001F8
07C001F8
0000F9F8
0001F1F8
000181F8
000181F0
000181F0
0001C3F0
0001FFE0
0000FF00
ENDCHAR
STARTCHAR F17D
ENCODING 61821
SWIDTH 990 0
DWIDTH 33 0
BBX 33 31 0 0
BITMAP
FC00001F80
FC00001F80
CFFFFFF980
CFFFFFF980
FC00001F80
FC00001F80
CC00001980
CC00001980
FC00001F80
FC00001F80
CC00001980
CC00001980
FC00001F80
FC00001F80
CC00001980
CC00001980
CC00001980
FC00001F80
FC00001F80
CC00001980
CC00001980
FC00001F80
FC00001F80
CC00001980
CC00001980
FC00001F80
FC00001F80
CFFFFFF980
CFFFFFF980
FC00001F80
FC00001F80
ENDCHAR
STARTCHAR F17E
ENCODING 61822
SWIDTH 990 0
DWIDTH 33 0
BBX 33 33 0 0
BITMAP
000FF00000
003FFE0000
00FFFF8000
03FFFFE000
07F80FF000
0FE003F800
1F8000FC00
1F00007C00
3E00003E00
3C08001E00
7C0C001F00
780F000F00
F80FC00F80
F00FF00780
F00FF80780
F00FFE0780
F00FFF8780
F00FFE0780
F00FF80780
F00FF00F80
F80FC00F80
780F000F00
7C0C001F00
7C08001E00
3E00003E00
1F00007C00
1F8000FC00
0FE003F800
07F80FF000
03FFFFE000
00FFFF8000
003FFE0000
000FF80000
ENDCHAR
ENDFONT
